<?xml version="1.0" encoding="UTF-8" standalone="no"?>
<svg width="144px" height="139px" viewBox="0 0 144 139" version="1.1" xmlns="http://www.w3.org/2000/svg" xmlns:xlink="http://www.w3.org/1999/xlink" xmlns:sketch="http://www.bohemiancoding.com/sketch/ns">
    <!-- Generator: Sketch 3.0.4 (8053) - http://www.bohemiancoding.com/sketch -->
    <title>Group + thoughtbot 2 + Oval 1 + Ralph 5</title>
    <desc>Created with Sketch.</desc>
    <defs></defs>
    <g id="Page-1" stroke="none" stroke-width="1" fill="none" fill-rule="evenodd" sketch:type="MSPage">
        <g id="Desktop-HD" sketch:type="MSArtboardGroup" transform="translate(-669.000000, -1699.000000)">
            <g id="Stacked-Vertical-Con-2-+-Group-+-thoughtbot-2-+-Oval-1-+-Ralph-5" sketch:type="MSLayerGroup" transform="translate(670.000000, 1657.000000)">
                <g id="Group-+-thoughtbot-2-+-Oval-1-+-Ralph-5" transform="translate(-0.160554, 42.500000)" sketch:type="MSShapeGroup">
                    <g id="Group-+-thoughtbot-2" transform="translate(0.000000, 106.447374)">
                        <g id="Group" transform="translate(-0.745410, 0.444017)">
                            <path d="M24.64595,22.793681 L21.2436246,22.793681 L21.2436246,14.6791305 C21.2436246,13.1595442 21.0027544,12.055328 20.5210068,11.3664489 C20.0392592,10.6775698 19.2263223,10.3331354 18.0821718,10.3331354 C16.7172203,10.3331354 15.6634132,10.8295261 14.920719,11.8223225 L14.920719,22.793681 L11.5183936,22.793681 L11.5183936,0 L14.920719,0 L14.920719,8.75277349 C15.9645055,7.86128285 17.1287114,7.41554421 18.4133716,7.41554421 C22.5684446,7.41554421 24.64595,9.83671544 24.64595,14.6791305 L24.64595,22.793681 Z" id="Path" fill="#C52D2F"></path>
                            <path d="M27.0822759,15.2565705 C27.0822759,14.1624683 27.2579104,13.1342303 27.6091847,12.1718256 C27.960459,11.209421 28.4622719,10.3787262 29.1146384,9.67971652 C29.767005,8.98070681 30.5598693,8.42859872 31.4932553,8.0233757 C32.4266413,7.61815268 33.4653939,7.41554421 34.6095445,7.41554421 C35.753695,7.41554421 36.7874296,7.61815268 37.7107791,8.0233757 C38.6341287,8.42859872 39.4219749,8.98577202 40.0743415,9.69491231 C40.726708,10.4040526 41.233539,11.2347473 41.5948497,12.1870214 C41.9561604,13.1392955 42.136813,14.1624683 42.136813,15.2565705 C42.136813,16.3506726 41.9611785,17.3738454 41.6099042,18.3261195 C41.2586299,19.2783936 40.7568171,20.1090883 40.1044505,20.8182286 C39.452084,21.5273689 38.6592196,22.0845422 37.7258337,22.4897652 C36.7924477,22.8949882 35.753695,23.0975967 34.6095445,23.0975967 C33.4453211,23.0975967 32.4015503,22.8949882 31.4782008,22.4897652 C30.5548512,22.0845422 29.767005,21.5324341 29.1146384,20.8334244 C28.4622719,20.1344147 27.960459,19.3087852 27.6091847,18.3565111 C27.2579104,17.404237 27.0822759,16.3709338 27.0822759,15.2565705 Z M30.5749285,15.2565705 C30.5749285,16.7761568 30.9312157,17.9816772 31.6438007,18.8731678 C32.3563857,19.7646585 33.344957,20.2103971 34.6095445,20.2103971 C35.8741319,20.2103971 36.8627033,19.7646585 37.5752883,18.8731678 C38.2878733,17.9816772 38.6441604,16.7761568 38.6441604,15.2565705 C38.6441604,13.7369841 38.2878733,12.5365289 37.5752883,11.6551689 C36.8627033,10.7738088 35.8741319,10.3331354 34.6095445,10.3331354 C33.344957,10.3331354 32.3563857,10.7738088 31.6438007,11.6551689 C30.9312157,12.5365289 30.5749285,13.7369841 30.5749285,15.2565705 Z" id="Path" fill="#C52D2F"></path>
                            <path d="M57.5200409,22.793681 L54.3886972,22.793681 L54.2381518,21.6691927 C53.234511,22.6214668 52.0401963,23.0975967 50.655172,23.0975967 C46.600463,23.0975967 44.573139,20.737208 44.573139,16.0163598 L44.573139,7.68906838 L47.9754644,7.68906838 L47.9754644,15.7732272 C47.9754644,17.2928136 48.2263708,18.4020949 48.7281912,19.1011047 C49.2300116,19.8001144 50.022876,20.149614 51.1068081,20.149614 C52.431614,20.149614 53.4352397,19.6836145 54.1177155,18.7516015 L54.1177155,7.68906838 L57.5200409,7.68906838 L57.5200409,22.793681 Z" id="Path" fill="#C52D2F"></path>
                            <path d="M66.8111994,30.3915746 C65.646976,30.3915746 64.6232777,30.2700095 63.7400738,30.0268757 C62.8568699,29.7837419 62.1242231,29.4545032 61.5421114,29.0391496 C60.9599997,28.623796 60.5184044,28.1476661 60.2173121,27.6107456 C59.9162199,27.073825 59.765676,26.5014561 59.765676,25.8936216 C59.765676,24.4145576 60.6087217,23.2900805 62.2948382,22.5201568 C61.3514159,21.9933669 60.8797118,21.2943676 60.8797118,20.4231382 C60.8797118,19.5113864 61.4015972,18.8022567 62.4453836,18.2957279 C60.8596311,17.1813646 60.0667667,15.5503664 60.0667667,13.4026844 C60.0667667,12.5517161 60.2072744,11.7564778 60.4882938,11.0169458 C60.7693132,10.2774138 61.1707635,9.64426232 61.6926568,9.11747239 C62.21455,8.59068246 62.8518524,8.17533509 63.604583,7.87141783 C64.3573136,7.56750056 65.2053774,7.41554421 66.1487997,7.41554421 C67.4936784,7.41554421 68.6679206,7.73971776 69.6715614,8.3880746 C70.6350566,7.90180697 71.7490812,7.65867681 73.0136687,7.65867681 L73.7663955,7.65867681 L73.4954139,9.87726175 L72.351269,9.87726175 C72.0100312,9.87726175 71.6286534,9.90765303 71.2071242,9.96843648 C71.9096728,10.9612329 72.2609418,12.0958403 72.2609418,13.3722928 C72.2609418,14.1827389 72.1254523,14.9475859 71.8544693,15.6668567 C71.5834863,16.3861276 71.1870541,17.0192791 70.6651609,17.5663301 C70.1432676,18.1133812 69.5059653,18.5439242 68.7532347,18.8579721 C68.000504,19.1720199 67.1524403,19.3290415 66.2090179,19.3290415 C65.5867606,19.3290415 65.0046576,19.2682589 64.4626916,19.146692 C64.1615993,19.3087812 64.0110555,19.5113897 64.0110555,19.7545235 C64.0110555,19.9368739 64.0762911,20.0888302 64.2067645,20.2103971 C64.3372378,20.331964 64.5530173,20.4433987 64.8541096,20.5447044 C65.1552018,20.6460102 65.5616702,20.7422492 66.0735271,20.8334244 C66.5853839,20.9245996 67.2327225,21.0208386 68.0155623,21.1221444 C68.6779653,21.2234501 69.3604308,21.3551456 70.0629794,21.5172348 C70.765528,21.679324 71.4078485,21.9224542 71.9899601,22.2466326 C72.5720718,22.570811 73.0538122,22.9962888 73.4351957,23.5230788 C73.8165792,24.0498687 74.0273406,24.7286071 74.0674863,25.5593143 C74.0674863,27.0181171 73.435202,28.1881811 72.1706146,29.0695411 C70.9060271,29.9509012 69.1195733,30.3915746 66.8111994,30.3915746 Z M66.1487997,10.0292196 C65.1853045,10.0292196 64.4476396,10.3331323 63.9357828,10.9409669 C63.423926,11.5488014 63.1680014,12.3693657 63.1680014,13.4026844 C63.1680014,14.4360031 63.4289441,15.2565674 63.9508373,15.864402 C64.4727306,16.4722365 65.2154136,16.7761492 66.1789088,16.7761492 C67.142404,16.7761492 67.880069,16.4671713 68.3919258,15.8492062 C68.9037826,15.2312411 69.1597072,14.4056115 69.1597072,13.3722928 C69.1597072,12.3389741 68.8987645,11.523475 68.3768712,10.9257711 C67.854978,10.3280671 67.1122949,10.0292196 66.1487997,10.0292196 Z M66.9617447,23.6750366 L64.8842186,23.3711209 C64.2418885,23.5737324 63.7200031,23.8675147 63.3185468,24.2524766 C62.9170904,24.6374384 62.7163653,25.0933075 62.7163653,25.6200974 C62.7163653,26.3089765 63.0676343,26.8610846 63.7701829,27.2764382 C64.4727315,27.6917918 65.4562847,27.8994655 66.7208722,27.8994655 C67.9854596,27.8994655 69.0041398,27.696857 69.7769432,27.291634 C70.5497466,26.886411 70.9361425,26.359629 70.9361425,25.7112721 C70.9361425,25.1236988 70.5949098,24.6830253 69.912434,24.3892386 C69.2299583,24.0954519 68.246405,23.857387 66.9617447,23.6750366 Z" id="Path" fill="#C52D2F"></path>
                            <path d="M108.917067,23.0975967 C107.37146,23.0975967 106.046674,22.601206 104.942669,21.6084096 L104.822233,22.793681 L101.66078,22.793681 L101.66078,0 L105.063105,0 L105.063105,8.72238192 C106.046674,7.85115242 107.331314,7.41554421 108.917067,7.41554421 C110.000999,7.41554421 110.984552,7.61815268 111.867756,8.0233757 C112.75096,8.42859872 113.50368,8.98070681 114.125937,9.67971652 C114.748194,10.3787262 115.229935,11.209421 115.571172,12.1718256 C115.91241,13.1342303 116.083027,14.1624683 116.083027,15.2565705 C116.083027,16.3506726 115.917428,17.3738454 115.586227,18.3261195 C115.255025,19.2783936 114.778303,20.1090883 114.156046,20.8182286 C113.533789,21.5273689 112.781069,22.0845422 111.897865,22.4897652 C111.014661,22.8949882 110.021072,23.0975967 108.917067,23.0975967 Z M108.646085,10.3331354 C107.481862,10.3331354 106.568563,10.7687436 105.90616,11.6399731 C105.243757,12.5112026 104.91256,13.716723 104.91256,15.2565705 C104.91256,16.8369402 105.243757,18.0576563 105.90616,18.9187552 C106.568563,19.7798541 107.481862,20.2103971 108.646085,20.2103971 C109.850454,20.2103971 110.808917,19.7494629 111.521502,18.8275805 C112.234087,17.9056981 112.590374,16.7153733 112.590374,15.2565705 C112.590374,13.7977676 112.239105,12.612508 111.536556,11.7007562 C110.834008,10.7890044 109.870527,10.3331354 108.646085,10.3331354 Z" id="Path" fill="#4F5261"></path>
                            <path d="M88.6879509,22.793681 L85.2856255,22.793681 L85.2856255,14.6791305 C85.2856255,13.1595442 85.0447553,12.055328 84.5630077,11.3664489 C84.0812601,10.6775698 83.2683233,10.3331354 82.1241727,10.3331354 C80.7592212,10.3331354 79.7054141,10.8295261 78.9627199,11.8223225 L78.9627199,22.793681 L75.5603945,22.793681 L75.5603945,0 L78.9627199,0 L78.9627199,8.75277349 C80.0065064,7.86128285 81.1707123,7.41554421 82.4553725,7.41554421 C86.6104456,7.41554421 88.6879509,9.83671544 88.6879509,14.6791305 L88.6879509,22.793681 Z" id="Path" fill="#C52D2F"></path>
                            <path d="M99.1199088,20.2711803 L98.818818,23.0975967 L96.2294376,23.0975967 C95.5670347,23.0975967 94.9849318,22.9962925 94.4831113,22.793681 C93.9812909,22.5910695 93.5647862,22.317548 93.2335848,21.9731085 C92.9023833,21.6286689 92.656495,21.2234519 92.4959124,20.7574455 C92.3353299,20.291439 92.2550399,19.7849178 92.2550399,19.2378667 L92.2550399,10.4850932 L89.9968593,10.4850932 L90.29795,7.68906838 L92.2550399,7.68906838 L92.2550399,3.19955744 L95.6573652,2.83485854 L95.6573652,7.68906838 L99.1500179,7.68906838 L99.1500179,10.4850932 L95.6573652,10.4850932 L95.6573652,17.6575049 C95.6573652,18.2856005 95.6774378,18.7769261 95.7175834,19.1314962 C95.757729,19.4860664 95.8580916,19.7443922 96.0186741,19.9064814 C96.1792567,20.0685706 96.4301631,20.1698748 96.771401,20.2103971 C97.1126389,20.2509194 97.584343,20.2711803 98.1865275,20.2711803 L99.1199088,20.2711803 Z" id="Path" fill="#C52D2F"></path>
                            <path d="M117.90128,15.2565705 C117.90128,14.1624683 118.076915,13.1342303 118.428189,12.1718256 C118.779463,11.209421 119.281276,10.3787262 119.933643,9.67971652 C120.586009,8.98070681 121.378874,8.42859872 122.31226,8.0233757 C123.245646,7.61815268 124.284398,7.41554421 125.428549,7.41554421 C126.572699,7.41554421 127.606434,7.61815268 128.529783,8.0233757 C129.453133,8.42859872 130.240979,8.98577202 130.893346,9.69491231 C131.545712,10.4040526 132.052543,11.2347473 132.413854,12.1870214 C132.775165,13.1392955 132.955817,14.1624683 132.955817,15.2565705 C132.955817,16.3506726 132.780183,17.3738454 132.428909,18.3261195 C132.077634,19.2783936 131.575821,20.1090883 130.923455,20.8182286 C130.271088,21.5273689 129.478224,22.0845422 128.544838,22.4897652 C127.611452,22.8949882 126.572699,23.0975967 125.428549,23.0975967 C124.264325,23.0975967 123.220555,22.8949882 122.297205,22.4897652 C121.373855,22.0845422 120.586009,21.5324341 119.933643,20.8334244 C119.281276,20.1344147 118.779463,19.3087852 118.428189,18.3565111 C118.076915,17.404237 117.90128,16.3709338 117.90128,15.2565705 Z M121.393933,15.2565705 C121.393933,16.7761568 121.75022,17.9816772 122.462805,18.8731678 C123.17539,19.7646585 124.163961,20.2103971 125.428549,20.2103971 C126.693136,20.2103971 127.681708,19.7646585 128.394293,18.8731678 C129.106878,17.9816772 129.463165,16.7761568 129.463165,15.2565705 C129.463165,13.7369841 129.106878,12.5365289 128.394293,11.6551689 C127.681708,10.7738088 126.693136,10.3331354 125.428549,10.3331354 C124.163961,10.3331354 123.17539,10.7738088 122.462805,11.6551689 C121.75022,12.5365289 121.393933,13.7369841 121.393933,15.2565705 Z" id="Path" fill="#4F5261"></path>
                            <path d="M142.529248,20.2711803 L142.228158,23.0975967 L139.638777,23.0975967 C138.976374,23.0975967 138.394271,22.9962925 137.892451,22.793681 C137.390631,22.5910695 136.974126,22.317548 136.642924,21.9731085 C136.311723,21.6286689 136.065835,21.2234519 135.905252,20.7574455 C135.74467,20.291439 135.664379,19.7849178 135.664379,19.2378667 L135.664379,10.4850932 L133.406199,10.4850932 L133.70729,7.68906838 L135.664379,7.68906838 L135.664379,3.19955744 L139.066705,2.83485854 L139.066705,7.68906838 L142.559357,7.68906838 L142.559357,10.4850932 L139.066705,10.4850932 L139.066705,17.6575049 C139.066705,18.2856005 139.086777,18.7769261 139.126923,19.1314962 C139.167069,19.4860664 139.267431,19.7443922 139.428014,19.9064814 C139.588596,20.0685706 139.839503,20.1698748 140.180741,20.2103971 C140.521978,20.2509194 140.993683,20.2711803 141.595867,20.2711803 L142.529248,20.2711803 Z" id="Path" fill="#4F5261"></path>
                            <path d="M9.0820677,20.2711803 L8.78097696,23.0975967 L6.19159657,23.0975967 C5.52919363,23.0975967 4.94709068,22.9962925 4.44527027,22.793681 C3.94344985,22.5910695 3.52694516,22.317548 3.19574368,21.9731085 C2.86454221,21.6286689 2.6186539,21.2234519 2.45807137,20.7574455 C2.29748883,20.291439 2.21719877,19.7849178 2.21719877,19.2378667 L2.21719877,10.4850932 L-0.0409817955,10.4850932 L0.260108947,7.68906838 L2.21719877,7.68906838 L2.21719877,3.19955744 L5.61952416,2.83485854 L5.61952416,7.68906838 L9.11217677,7.68906838 L9.11217677,10.4850932 L5.61952416,10.4850932 L5.61952416,17.6575049 C5.61952416,18.2856005 5.63959668,18.7769261 5.67974231,19.1314962 C5.71988794,19.4860664 5.82025052,19.7443922 5.98083305,19.9064814 C6.14141558,20.0685706 6.39232203,20.1698748 6.73355991,20.2103971 C7.07479779,20.2509194 7.5465019,20.2711803 8.1486864,20.2711803 L9.0820677,20.2711803 Z" id="Path" fill="#C52D2F"></path>
                        </g>
                    </g>
                    <g id="Oval-1-+-Ralph-4" transform="translate(26.161885, -0.319390)">
                        <ellipse id="Oval-1" fill="#C52D2F" cx="44.8030313" cy="44.7387514" rx="44.8030313" ry="44.7387514"></ellipse>
                        <path d="M31.5081456,48.4482214 L31.5081456,61.270394 C32.1334309,62.1075485 32.5146673,62.9191698 32.5146673,63.9324407 C32.5146673,65.1945558 31.9484045,66.3270166 31.058711,67.08213 L29.9501469,65.9656798 C30.5607025,65.5029426 30.9559144,64.7663513 30.9559144,63.9356847 C30.9559144,62.5338694 29.8290938,61.3972229 28.4392135,61.3972229 C27.0493333,61.3972229 25.9225127,62.5340787 25.9225127,63.9359986 C25.9225127,64.759654 26.3115008,65.4921642 26.9142766,65.9561571 L25.8068536,67.0721888 C24.9247324,66.317494 24.3438436,65.1919397 24.3438436,63.9359986 C24.3438436,62.9215766 24.6559369,61.9881499 25.2783178,61.2703946 L25.2783178,41.3590922 C25.3820479,40.592154 25.9698136,39.9720318 26.7270437,39.9720318 L62.9634075,39.9765315 C63.7207413,39.9765315 64.3186726,40.5920494 64.4224028,41.3590922 L64.4224028,61.2803352 C64.9410535,61.9977766 65.3568769,62.926181 65.3568769,63.9409169 C65.3568769,65.1959162 64.7852201,66.3222029 63.9029952,67.0770024 L62.7900744,65.9611801 C63.3929541,65.4970825 63.7792451,64.7645723 63.7792451,63.9409169 C63.7792451,62.5387877 62.651076,61.4021412 61.2611958,61.4021412 C59.8714193,61.4021412 58.7437688,62.5386831 58.7437688,63.9409169 C58.7437688,64.7712695 59.1386695,65.5079655 59.7491214,65.9713306 L58.6404536,67.0886179 C57.7507601,66.3338185 57.1844972,65.1970673 57.1844972,63.9349522 C57.1844972,62.9217859 57.5873095,62.1075485 58.1925749,61.270394 L58.1925749,48.553684 L56.427457,48.553684 L56.427457,75.4754412 L57.4657617,76.1667216 L57.4657617,78.3801581 L45.3180795,78.3801581 L45.3180795,76.1668262 L46.6673934,75.5020209 L46.6673934,67.1821485 L43.1371576,67.1821485 L43.1397464,75.4754412 L44.3845082,76.1667216 L44.3845082,78.3801581 L32.1311284,78.3801581 L32.1311284,76.1667216 L33.377094,75.4772202 L33.377094,48.4482214 L31.5081456,48.4482214 Z M45.1639843,18.6990579 C47.680108,18.6990579 49.9590828,19.6027477 51.3641167,20.9627303 L52.4746873,19.3675895 C50.7201601,17.7835421 48.0960528,16.7771864 45.1638805,16.7771864 C42.2239209,16.7771864 39.5937914,17.7885655 37.8394719,19.3796248 L38.9491081,20.9768586 C40.3529998,19.6089224 42.6394504,18.6990579 45.1639843,18.6990579 Z M45.2834932,14.6239243 C48.0328201,14.6239243 50.5973287,15.4245297 52.5041752,16.8790151 C52.8914628,17.1743495 53.2407485,17.4888356 53.549125,17.8190199 L54.6612531,16.2179139 C52.4963879,14.0795127 49.1010279,12.7019482 45.2834932,12.7019482 C41.3738609,12.7019482 37.907377,14.1464914 35.7516489,16.3736395 L36.8693839,17.9829086 C37.2126474,17.5924434 37.611564,17.2223858 38.0626036,16.8789104 C39.9693462,15.4245297 42.5339587,14.6239243 45.2834932,14.6239243 Z M45.1639843,10.7147724 C49.5277711,10.7147724 53.3851767,12.317239 55.6778571,14.7536956 L56.7818865,13.1679738 C54.1084597,10.5077662 49.8987573,8.79258699 45.1639843,8.79258699 C40.4211126,8.79237768 36.206011,10.5128943 33.5328957,13.180009 L34.6360944,14.7683472 C36.9269059,12.3235183 40.7914758,10.7147724 45.1639843,10.7147724 Z M54.173146,23.018036 L35.7604745,23.018036 C35.0054194,23.018036 34.4165968,23.6450199 34.4165968,24.4091009 L34.4165968,36.516347 C34.4165968,37.2757186 35.0054194,37.8789459 35.7604745,37.8789459 L54.173146,37.8789459 C54.9309008,37.8789459 55.5980115,37.2757186 55.5980115,36.516347 L55.5980115,24.4091009 C55.5980115,23.6450199 54.9309008,23.018036 54.173146,23.018036 Z M40.2758537,31.9032903 C38.9830606,31.9032903 37.9335423,30.8422004 37.9335423,29.5414522 C37.9335423,28.23432 38.9830606,27.1762651 40.2758537,27.1762651 C41.5703081,27.1762651 42.6198265,28.2342154 42.6198265,29.5414522 C42.6198265,30.8423051 41.5703081,31.9032903 40.2758537,31.9032903 L40.2758537,31.9032903 Z M49.6875662,31.9032903 C48.3901007,31.9032903 47.3388172,30.8422004 47.3388172,29.5414522 C47.3388172,28.23432 48.3901007,27.1762651 49.6875662,27.1762651 C50.9823321,27.1762651 52.0318504,28.2342154 52.0318504,29.5414522 C52.0318504,30.8423051 50.9823321,31.9032903 49.6875662,31.9032903 L49.6875662,31.9032903 Z M41.4768607,29.5414522 C41.4768607,30.2071582 40.9404725,30.7495814 40.2759576,30.7495814 C39.6163226,30.7495814 39.0782732,30.2071582 39.0782732,29.5414522 C39.0782732,28.8693623 39.6163226,28.3303927 40.2759576,28.3303927 C40.9404725,28.3303927 41.4768607,28.8693623 41.4768607,29.5414522 L41.4768607,29.5414522 Z M49.6875662,30.7495814 C49.0249201,30.7495814 48.4882205,30.2071582 48.4882205,29.5414522 C48.4882205,28.8693623 49.0249201,28.3303927 49.6875662,28.3303927 C50.3475126,28.3303927 50.8915842,28.8693623 50.8915842,29.5414522 C50.8915842,30.2071582 50.3475126,30.7495814 49.6875662,30.7495814 Z" id="Ralph-2" fill="#FFFFFF"></path>
                    </g>
                </g>
            </g>
        </g>
    </g>
</svg>