<?xml version="1.0" encoding="UTF-8" standalone="no"?>
<svg width="346px" height="100px" viewBox="0 0 346 100" version="1.1" xmlns="http://www.w3.org/2000/svg" xmlns:xlink="http://www.w3.org/1999/xlink" xmlns:sketch="http://www.bohemiancoding.com/sketch/ns">
    <!-- Generator: Sketch 3.2.2 (9983) - http://www.bohemiancoding.com/sketch -->
    <title>Turing - Gear and Lettering</title>
    <desc>Created with Sketch.</desc>
    <defs></defs>
    <g id="Page-1" stroke="none" stroke-width="1" fill="none" fill-rule="evenodd" sketch:type="MSPage">
        <g id="Group" sketch:type="MSLayerGroup" transform="translate(-1591.000000, -5457.000000)">
            <g id="Turing---Gear-and-Lettering" transform="translate(1591.000000, 5457.000000)" sketch:type="MSShapeGroup">
                <g id="Group">
                    <g>
                        <path d="M99.475,44.7761194 L95.3737069,41.5671642 C94.9262931,39.3283582 94.4043103,37.1641791 93.6586207,35.0746269 L95.5974138,30.2238806 L93.9568966,27.3880597 L91.7198276,23.5074627 L90.0793103,20.6716418 L84.8594828,19.9253731 C83.4426724,18.2089552 81.8021552,16.641791 80.1616379,15.2238806 L79.4159483,10 L76.5823276,8.35820896 L72.7047414,6.11940299 L69.8711207,4.47761194 L65.0241379,6.41791045 C62.9362069,5.67164179 60.7737069,5.07462687 58.5366379,4.70149254 L55.3301724,0.597014925 L52.1982759,0.597014925 L47.7241379,0.597014925 L44.4431034,0.597014925 L41.2366379,4.70149254 C38.999569,5.14925373 36.837069,5.67164179 34.7491379,6.41791045 L29.9021552,4.47761194 L27.0685345,6.11940299 L23.1909483,8.35820896 L20.3573276,10 L19.6116379,15.2238806 C17.8965517,16.7164179 16.3306034,18.2835821 14.9137931,19.9253731 L9.69396552,20.6716418 L8.05344828,23.5074627 L5.81637931,27.3880597 L4.17586207,30.2238806 L6.11465517,35.0746269 C5.36896552,37.1641791 4.77241379,39.3283582 4.39956897,41.5671642 L0.223706897,44.7761194 L0.223706897,48.0597015 L0.223706897,52.5373134 L0.223706897,55.8208955 L4.39956897,59.0298507 C4.84698276,61.2686567 5.36896552,63.4328358 6.11465517,65.5223881 L4.17586207,70.3731343 L5.81637931,73.2089552 L8.05344828,77.0895522 L9.69396552,79.9253731 L14.9137931,80.6716418 C16.4051724,82.3880597 17.9711207,83.9552239 19.6116379,85.3731343 L20.3573276,90.5970149 L23.1909483,92.238806 L27.0685345,94.4776119 L29.9021552,96.119403 L34.7491379,94.1791045 C36.837069,94.9253731 38.999569,95.4477612 41.2366379,95.8955224 L44.4431034,100 L47.7241379,100 L52.1982759,100 L55.4047414,100 L58.6112069,95.8955224 C60.8482759,95.4477612 63.0107759,94.9253731 65.0987069,94.1791045 L69.9456897,96.119403 L72.7793103,94.4776119 L76.6568966,92.238806 L79.4905172,90.5970149 L80.2362069,85.3731343 C81.9512931,83.9552239 83.5172414,82.3134328 84.9340517,80.6716418 L90.1538793,79.9253731 L91.7943966,77.0895522 L94.0314655,73.2089552 L95.6719828,70.3731343 L93.7331897,65.5223881 C94.4788793,63.4328358 95.0008621,61.2686567 95.4482759,59.0298507 L99.549569,55.8208955 L99.549569,52.5373134 L99.549569,48.0597015 L99.549569,44.7761194 L99.475,44.7761194 Z M49.9612069,64.7761194 C41.9077586,64.7761194 35.4202586,58.2835821 35.4202586,50.2238806 C35.4202586,42.1641791 41.9077586,35.6716418 49.9612069,35.6716418 C57.9400862,35.6716418 64.5021552,42.1641791 64.5021552,50.2238806 C64.5021552,58.2835821 57.9400862,64.7761194 49.9612069,64.7761194 L49.9612069,64.7761194 Z" id="Shape" fill="#000000"></path>
                        <ellipse id="Oval" stroke="#010101" stroke-width="2" fill="#FFFFFF" cx="49.9612069" cy="50.2238806" rx="42.7280172" ry="42.761194"></ellipse>
                        <ellipse id="Oval" fill="#010101" cx="49.9612069" cy="50.2238806" rx="41.012931" ry="41.0447761"></ellipse>
                        <path d="M48.1715517,89.7014925 C49.5137931,90.0746269 51.0051724,89.7761194 51.6017241,88.9552239 C51.825431,88.5820896 51.825431,88.2089552 51.6762931,87.9104478 C51.0797414,88.7313433 50.1849138,89.1791045 49.2900862,89.4776119 C50.1849138,88.9552239 51.0051724,88.4328358 51.5271552,87.6865672 C51.3034483,87.4626866 51.0051724,87.3880597 50.6323276,87.4626866 C49.5137931,87.6865672 49.2155172,89.2537313 48.1715517,89.7014925 L48.1715517,89.7014925 L48.1715517,89.7014925 Z M44.0702586,89.3283582 C45.337931,89.8507463 46.8293103,89.7014925 47.575,88.880597 C47.7987069,88.5820896 47.8732759,88.2089552 47.7241379,87.8358209 C47.0530172,88.5820896 46.1581897,88.880597 45.1887931,89.1791045 C46.1581897,88.7313433 46.9784483,88.2835821 47.575,87.6119403 C47.4258621,87.3880597 47.1275862,87.238806 46.6801724,87.3134328 C45.5616379,87.4626866 45.1142241,89.0298507 44.0702586,89.3283582 L44.0702586,89.3283582 L44.0702586,89.3283582 Z M44.5922414,84.2537313 C46.0090517,83.9552239 47.4258621,84.4029851 47.9478448,85.3731343 C48.0969828,85.7462687 48.0969828,86.119403 47.9478448,86.4179104 C47.4258621,85.5970149 46.6056034,85.0746269 45.7107759,84.6268657 C46.6056034,85.2238806 47.2767241,85.8955224 47.7241379,86.641791 C47.500431,86.8656716 47.2021552,86.9402985 46.8293103,86.7910448 C45.7107759,86.4179104 45.5616379,84.8507463 44.5922414,84.2537313 L44.5922414,84.2537313 L44.5922414,84.2537313 Z M39.9689655,88.5074627 C41.2366379,89.1791045 42.7280172,89.1791045 43.4737069,88.4328358 C43.7719828,88.1343284 43.8465517,87.761194 43.7719828,87.4626866 C43.0262931,88.1343284 42.0568966,88.358209 41.0875,88.5074627 C42.0568966,88.2089552 42.9517241,87.8358209 43.6228448,87.1641791 C43.4737069,86.9402985 43.175431,86.7164179 42.8025862,86.7164179 C41.7586207,86.7910448 41.0875,88.2835821 39.9689655,88.5074627 L39.9689655,88.5074627 L39.9689655,88.5074627 Z M41.0875,83.5074627 C42.5043103,83.358209 43.8465517,83.9552239 44.2939655,85 C44.4431034,85.3731343 44.3685345,85.7462687 44.1448276,86.0447761 C43.6974138,85.1492537 42.9517241,84.5522388 42.1314655,84.0298507 C42.9517241,84.7014925 43.5482759,85.4477612 43.9211207,86.2686567 C43.6974138,86.4179104 43.324569,86.4925373 42.9517241,86.3432836 C41.9077586,85.8208955 41.9823276,84.1791045 41.0875,83.5074627 L41.0875,83.5074627 L41.0875,83.5074627 Z M36.0913793,87.238806 C37.2844828,88.0597015 38.7012931,88.2089552 39.5961207,87.5373134 C39.8943966,87.3134328 40.0435345,86.9402985 39.9689655,86.5671642 C39.1487069,87.0895522 38.1793103,87.3134328 37.2099138,87.3134328 C38.2538793,87.0895522 39.1487069,86.7910448 39.8943966,86.2686567 C39.7452586,85.9701493 39.5215517,85.8208955 39.0741379,85.7462687 C37.9556034,85.7462687 37.2099138,87.1641791 36.0913793,87.238806 L36.0913793,87.238806 L36.0913793,87.238806 Z M37.6573276,82.3880597 C39.0741379,82.3880597 40.3418103,83.1343284 40.6400862,84.1791045 C40.7146552,84.5522388 40.6400862,84.9253731 40.4163793,85.2238806 C40.0435345,84.2537313 39.3724138,83.5820896 38.6267241,82.9850746 C39.3724138,83.7313433 39.8943966,84.5522388 40.1926724,85.3731343 C39.9689655,85.5223881 39.5961207,85.5223881 39.2232759,85.2985075 C38.2538793,84.7761194 38.4775862,83.1343284 37.6573276,82.3880597 L37.6573276,82.3880597 L37.6573276,82.3880597 Z M32.2883621,85.5970149 C33.3323276,86.4925373 34.8237069,86.8656716 35.7185345,86.2686567 C36.0168103,86.0447761 36.2405172,85.6716418 36.2405172,85.3731343 C35.3456897,85.8208955 34.3762931,85.8955224 33.4068966,85.8208955 C34.4508621,85.7462687 35.4202586,85.5223881 36.1659483,85.0746269 C36.0913793,84.7761194 35.7931034,84.5522388 35.4202586,84.4776119 C34.3017241,84.2537313 33.4068966,85.5970149 32.2883621,85.5970149 L32.2883621,85.5970149 L32.2883621,85.5970149 Z M34.3017241,80.9701493 C35.7185345,81.119403 36.9116379,82.0149254 37.1353448,83.0597015 C37.2099138,83.4328358 37.0607759,83.8059701 36.7625,84.0298507 C36.5387931,83.0597015 35.9422414,82.3134328 35.1965517,81.641791 C35.7931034,82.4626866 36.3150862,83.2835821 36.4642241,84.1791045 C36.1659483,84.2537313 35.8676724,84.2537313 35.5693966,84.0298507 C34.7491379,83.358209 35.1219828,81.7910448 34.3017241,80.9701493 L34.3017241,80.9701493 L34.3017241,80.9701493 Z M28.7090517,83.5820896 C29.6784483,84.6268657 31.0952586,85.0746269 32.0646552,84.6268657 C32.4375,84.4029851 32.5866379,84.1044776 32.6612069,83.7313433 C31.6918103,84.1044776 30.7969828,84.0298507 29.8275862,83.880597 C30.8715517,83.880597 31.8409483,83.8059701 32.6612069,83.4328358 C32.5866379,83.1343284 32.362931,82.9104478 31.9900862,82.761194 C30.8715517,82.4626866 29.8275862,83.6567164 28.7090517,83.5820896 L28.7090517,83.5820896 L28.7090517,83.5820896 Z M31.2443966,79.1044776 C32.5866379,79.4029851 33.7051724,80.4477612 33.8543103,81.4925373 C33.8543103,81.8656716 33.7051724,82.238806 33.4068966,82.4626866 C33.2577586,81.4925373 32.7357759,80.6716418 32.1392241,79.9253731 C32.6612069,80.8208955 33.0340517,81.7164179 33.1831897,82.6119403 C32.8849138,82.6865672 32.5866379,82.6119403 32.2883621,82.3880597 C31.3189655,81.5671642 31.9155172,80.0746269 31.2443966,79.1044776 L31.2443966,79.1044776 L31.2443966,79.1044776 Z M25.2788793,81.119403 C26.0991379,82.238806 27.5159483,82.8358209 28.4853448,82.5373134 C28.8581897,82.3880597 29.0818966,82.0895522 29.1564655,81.7164179 C28.187069,82.0149254 27.2176724,81.8656716 26.3228448,81.5671642 C27.3668103,81.7164179 28.3362069,81.7164179 29.1564655,81.4179104 C29.0818966,81.119403 28.9327586,80.8208955 28.5599138,80.6716418 C27.5905172,80.2985075 26.3974138,81.4179104 25.2788793,81.119403 L25.2788793,81.119403 L25.2788793,81.119403 Z M28.3362069,77.0149254 C29.6784483,77.4626866 30.6478448,78.5820896 30.6478448,79.6268657 C30.6478448,80 30.4241379,80.3731343 30.1258621,80.5223881 C30.0512931,79.5522388 29.6784483,78.6567164 29.0818966,77.8358209 C29.5293103,78.8059701 29.8275862,79.7014925 29.8275862,80.5970149 C29.5293103,80.6716418 29.2310345,80.5223881 28.9327586,80.2238806 C28.187069,79.4776119 28.8581897,77.9850746 28.3362069,77.0149254 L28.3362069,77.0149254 L28.3362069,77.0149254 Z M22.2215517,78.358209 C22.9672414,79.5522388 24.2349138,80.2985075 25.2788793,80.0746269 C25.6517241,79.9253731 25.95,79.7014925 26.024569,79.3283582 C25.0551724,79.4776119 24.0857759,79.2537313 23.1909483,78.880597 C24.2349138,79.1044776 25.1297414,79.1791045 26.0991379,79.0298507 C26.0991379,78.7313433 25.95,78.4328358 25.5771552,78.2835821 C24.6077586,77.761194 23.2655172,78.7313433 22.2215517,78.358209 L22.2215517,78.358209 L22.2215517,78.358209 Z M25.6517241,74.6268657 C26.9193966,75.2238806 27.8142241,76.4179104 27.6650862,77.4626866 C27.5905172,77.8358209 27.3668103,78.1343284 26.9939655,78.2835821 C27.0685345,77.3134328 26.6956897,76.3432836 26.2482759,75.5223881 C26.6211207,76.4925373 26.7702586,77.4626866 26.6956897,78.358209 C26.3974138,78.358209 26.0991379,78.2835821 25.875431,77.9104478 C25.2788793,77.0149254 26.0991379,75.5970149 25.6517241,74.6268657 L25.6517241,74.6268657 L25.6517241,74.6268657 Z M19.4625,75.2985075 C20.0590517,76.5671642 21.2521552,77.4626866 22.2961207,77.3134328 C22.6689655,77.238806 22.9672414,77.0149254 23.1163793,76.641791 C22.1469828,76.7164179 21.1775862,76.3432836 20.3573276,75.8955224 C21.3267241,76.2686567 22.2961207,76.4179104 23.1909483,76.3432836 C23.1909483,76.0447761 23.1163793,75.7462687 22.7435345,75.5223881 C21.8487069,74.9253731 20.4318966,75.8208955 19.4625,75.2985075 L19.4625,75.2985075 L19.4625,75.2985075 Z M23.1909483,71.9402985 C24.3840517,72.6865672 25.1297414,73.9552239 24.9060345,75 C24.7568966,75.3731343 24.5331897,75.6716418 24.1603448,75.7462687 C24.3094828,74.7761194 24.0857759,73.8059701 23.712931,72.9104478 C23.9366379,73.9552239 24.0112069,74.8507463 23.862069,75.8208955 C23.5637931,75.8208955 23.2655172,75.6716418 23.1163793,75.2985075 C22.5943966,74.2537313 23.5637931,72.9850746 23.1909483,71.9402985 L23.1909483,71.9402985 L23.1909483,71.9402985 Z M17.0017241,72.0149254 C17.4491379,73.358209 18.5676724,74.3283582 19.6116379,74.3283582 C19.9844828,74.3283582 20.3573276,74.1044776 20.5064655,73.8059701 C19.537069,73.7313433 18.6422414,73.358209 17.8219828,72.761194 C18.7913793,73.2089552 19.6862069,73.5074627 20.5810345,73.5074627 C20.6556034,73.2089552 20.5064655,72.9104478 20.2081897,72.6119403 C19.387931,71.8656716 17.9711207,72.6119403 17.0017241,72.0149254 L17.0017241,72.0149254 L17.0017241,72.0149254 Z M21.1030172,69.0298507 C22.2215517,69.8507463 22.8181034,71.2686567 22.5198276,72.238806 C22.3706897,72.6119403 22.0724138,72.8358209 21.699569,72.9104478 C21.9978448,71.9402985 21.8487069,70.9701493 21.550431,70.0746269 C21.699569,71.119403 21.699569,72.0895522 21.4012931,72.9104478 C21.1030172,72.8358209 20.8047414,72.6865672 20.6556034,72.3134328 C20.2081897,71.2686567 21.3267241,70.0746269 21.1030172,69.0298507 L21.1030172,69.0298507 L21.1030172,69.0298507 Z M14.9137931,68.4328358 C15.212069,69.7761194 16.2560345,70.8955224 17.3,71.0447761 C17.6728448,71.0447761 18.0456897,70.8955224 18.2693966,70.5970149 C17.3,70.4477612 16.4797414,69.9253731 15.7340517,69.3283582 C16.6288793,69.8507463 17.5237069,70.2238806 18.4185345,70.3731343 C18.4931034,70.0746269 18.4185345,69.7761194 18.1948276,69.4776119 C17.3,68.5820896 15.8086207,69.1044776 14.9137931,68.4328358 L14.9137931,68.4328358 L14.9137931,68.4328358 Z M19.3133621,65.8955224 C20.3573276,66.8656716 20.8047414,68.2835821 20.3573276,69.2537313 C20.1336207,69.6268657 19.8353448,69.7761194 19.4625,69.8507463 C19.8353448,68.880597 19.7607759,67.9850746 19.6116379,67.0149254 C19.6116379,68.0597015 19.537069,69.0298507 19.1642241,69.8507463 C18.8659483,69.7761194 18.6422414,69.5522388 18.4931034,69.1791045 C18.1948276,68.0597015 19.387931,67.0149254 19.3133621,65.8955224 L19.3133621,65.8955224 L19.3133621,65.8955224 Z M13.1987069,64.7014925 C13.3478448,66.119403 14.2426724,67.3134328 15.2866379,67.5373134 C15.6594828,67.6119403 16.0323276,67.4626866 16.2560345,67.1641791 C15.2866379,66.9402985 14.5409483,66.3432836 13.8698276,65.5970149 C14.6900862,66.1940299 15.5103448,66.7164179 16.4051724,66.8656716 C16.4797414,66.5671642 16.4797414,66.2686567 16.2560345,65.9701493 C15.5849138,65.0746269 14.0189655,65.4477612 13.1987069,64.7014925 L13.1987069,64.7014925 L13.1987069,64.7014925 Z M17.8219828,62.6119403 C18.7168103,63.6567164 19.0896552,65.1492537 18.4931034,66.0447761 C18.2693966,66.3432836 17.8965517,66.5671642 17.5982759,66.5671642 C18.0456897,65.6716418 18.1202586,64.7014925 18.0456897,63.7313433 C17.9711207,64.7761194 17.7474138,65.7462687 17.3,66.4925373 C17.0017241,66.4179104 16.7780172,66.119403 16.7034483,65.7462687 C16.4797414,64.6268657 17.8219828,63.7313433 17.8219828,62.6119403 L17.8219828,62.6119403 L17.8219828,62.6119403 Z M11.8564655,60.7462687 C11.8564655,62.1641791 12.6021552,63.4328358 13.6461207,63.7313433 C14.0189655,63.8059701 14.3918103,63.7313433 14.6900862,63.5074627 C13.7206897,63.1343284 13.049569,62.4626866 12.4530172,61.7164179 C13.1987069,62.4626866 14.0189655,62.9850746 14.8392241,63.2835821 C14.9883621,62.9850746 14.9883621,62.6865672 14.7646552,62.3134328 C14.2426724,61.3432836 12.6021552,61.5671642 11.8564655,60.7462687 L11.8564655,60.7462687 L11.8564655,60.7462687 Z M16.7034483,59.1791045 C17.5237069,60.3731343 17.6728448,61.7910448 17.0017241,62.6865672 C16.7780172,62.9850746 16.4051724,63.1343284 16.0323276,63.0597015 C16.5543103,62.238806 16.7780172,61.2686567 16.7780172,60.2985075 C16.5543103,61.3432836 16.2560345,62.238806 15.7340517,62.9850746 C15.4357759,62.8358209 15.2866379,62.6119403 15.212069,62.1641791 C15.212069,61.0447761 16.6288793,60.2985075 16.7034483,59.1791045 L16.7034483,59.1791045 L16.7034483,59.1791045 Z M10.9616379,56.7164179 C10.8125,58.1343284 11.4090517,59.4776119 12.4530172,59.9253731 C12.8258621,60.0746269 13.1987069,60 13.4969828,59.7761194 C12.6021552,59.3283582 12.0056034,58.5820896 11.4836207,57.761194 C12.1547414,58.5820896 12.900431,59.1791045 13.7206897,59.5522388 C13.8698276,59.3283582 13.9443966,58.9552239 13.7952586,58.5820896 C13.2732759,57.5373134 11.6327586,57.6119403 10.9616379,56.7164179 L10.9616379,56.7164179 L10.9616379,56.7164179 Z M15.9577586,55.6716418 C16.6288793,56.9402985 16.6288793,58.4328358 15.8831897,59.1791045 C15.5849138,59.4776119 15.212069,59.5522388 14.9137931,59.4776119 C15.5849138,58.7313433 15.8086207,57.761194 15.9577586,56.7910448 C15.6594828,57.761194 15.2866379,58.6567164 14.6155172,59.3283582 C14.3918103,59.1791045 14.1681034,58.880597 14.1681034,58.5074627 C14.2426724,57.3880597 15.7340517,56.7164179 15.9577586,55.6716418 L15.9577586,55.6716418 L15.9577586,55.6716418 Z M10.5142241,52.6119403 C10.2159483,54.0298507 10.6633621,55.4477612 11.6327586,55.9701493 C12.0056034,56.119403 12.3784483,56.119403 12.6767241,55.9701493 C11.8564655,55.4477612 11.3344828,54.6268657 10.887069,53.7313433 C11.4836207,54.6268657 12.1547414,55.2985075 12.900431,55.7462687 C13.1241379,55.5223881 13.1987069,55.2238806 13.049569,54.8507463 C12.6767241,53.7313433 11.1107759,53.5820896 10.5142241,52.6119403 L10.5142241,52.6119403 L10.5142241,52.6119403 Z M15.5849138,52.0895522 C16.1068966,53.358209 15.9577586,54.8507463 15.1375,55.5970149 C14.8392241,55.8208955 14.4663793,55.8955224 14.0935345,55.7462687 C14.8392241,55.0746269 15.1375,54.1791045 15.4357759,53.2089552 C14.9883621,54.1791045 14.5409483,55 13.8698276,55.5970149 C13.6461207,55.4477612 13.4969828,55.1492537 13.5715517,54.7014925 C13.7206897,53.5820896 15.2866379,53.1343284 15.5849138,52.0895522 L15.5849138,52.0895522 L15.5849138,52.0895522 Z M10.5142241,48.4328358 C10.1413793,49.7761194 10.4396552,51.2686567 11.2599138,51.8656716 C11.6327586,52.0895522 12.0056034,52.0895522 12.3038793,51.9402985 C11.4836207,51.3432836 11.0362069,50.4477612 10.737931,49.5522388 C11.2599138,50.4477612 11.7818966,51.2686567 12.5275862,51.7910448 C12.7512931,51.5671642 12.8258621,51.2686567 12.7512931,50.8955224 C12.5275862,49.7761194 10.9616379,49.4776119 10.5142241,48.4328358 L10.5142241,48.4328358 L10.5142241,48.4328358 Z M15.5849138,48.4328358 C15.9577586,49.7761194 15.6594828,51.2686567 14.8392241,51.8656716 C14.4663793,52.0895522 14.0935345,52.0895522 13.7952586,51.9402985 C14.6155172,51.3432836 15.062931,50.4477612 15.3612069,49.5522388 C14.8392241,50.4477612 14.3172414,51.2686567 13.5715517,51.7910448 C13.3478448,51.5671642 13.2732759,51.2686567 13.3478448,50.8955224 C13.5715517,49.7761194 15.1375,49.4776119 15.5849138,48.4328358 L15.5849138,48.4328358 L15.5849138,48.4328358 Z M10.887069,44.3283582 C10.3650862,45.5970149 10.5142241,47.0895522 11.3344828,47.8358209 C11.6327586,48.0597015 12.0056034,48.1343284 12.3784483,47.9850746 C11.6327586,47.3134328 11.3344828,46.4179104 11.0362069,45.4477612 C11.4836207,46.4179104 11.9310345,47.238806 12.6021552,47.8358209 C12.8258621,47.6865672 12.975,47.3880597 12.900431,46.9402985 C12.8258621,45.8955224 11.2599138,45.3731343 10.887069,44.3283582 L10.887069,44.3283582 L10.887069,44.3283582 Z M15.9577586,44.8507463 C16.2560345,46.2686567 15.8086207,47.6865672 14.8392241,48.2089552 C14.4663793,48.358209 14.0935345,48.358209 13.7952586,48.2089552 C14.6155172,47.6865672 15.1375,46.8656716 15.5849138,45.9701493 C14.9883621,46.8656716 14.3172414,47.5373134 13.5715517,47.9850746 C13.3478448,47.761194 13.2732759,47.4626866 13.4224138,47.0895522 C13.7952586,45.9701493 15.4357759,45.8208955 15.9577586,44.8507463 L15.9577586,44.8507463 L15.9577586,44.8507463 Z M11.7073276,40.2985075 C11.0362069,41.5671642 11.0362069,43.0597015 11.7818966,43.8059701 C12.0801724,44.1044776 12.4530172,44.1791045 12.7512931,44.1044776 C12.0801724,43.358209 11.8564655,42.3880597 11.7073276,41.4179104 C12.0056034,42.3880597 12.3784483,43.2835821 13.049569,43.9552239 C13.2732759,43.8059701 13.4969828,43.5074627 13.4969828,43.1343284 C13.4224138,42.0149254 11.9310345,41.3432836 11.7073276,40.2985075 L11.7073276,40.2985075 L11.7073276,40.2985075 Z M16.7034483,41.3432836 C16.8525862,42.761194 16.2560345,44.1044776 15.212069,44.5522388 C14.8392241,44.7014925 14.4663793,44.6268657 14.1681034,44.4029851 C15.062931,43.9552239 15.6594828,43.2089552 16.1814655,42.3880597 C15.5103448,43.2089552 14.7646552,43.8059701 13.9443966,44.1791045 C13.7952586,43.9552239 13.7206897,43.5820896 13.8698276,43.2089552 C14.4663793,42.238806 16.0323276,42.238806 16.7034483,41.3432836 L16.7034483,41.3432836 L16.7034483,41.3432836 Z M12.975,36.3432836 C12.1547414,37.5373134 12.0056034,38.9552239 12.6767241,39.8507463 C12.900431,40.1492537 13.2732759,40.2985075 13.6461207,40.2238806 C13.1241379,39.4029851 12.900431,38.4328358 12.900431,37.4626866 C13.1241379,38.5074627 13.4224138,39.4029851 13.9443966,40.1492537 C14.2426724,40 14.3918103,39.7761194 14.4663793,39.3283582 C14.5409483,38.2089552 13.1241379,37.4626866 12.975,36.3432836 L12.975,36.3432836 L12.975,36.3432836 Z M17.8219828,37.9104478 C17.8219828,39.3283582 17.0762931,40.5970149 16.0323276,40.8955224 C15.6594828,40.9701493 15.2866379,40.8955224 14.9883621,40.6716418 C15.9577586,40.2985075 16.6288793,39.6268657 17.225431,38.880597 C16.4797414,39.6268657 15.6594828,40.1492537 14.8392241,40.4477612 C14.6900862,40.1492537 14.6900862,39.8507463 14.9137931,39.4776119 C15.4357759,38.5074627 17.0762931,38.7313433 17.8219828,37.9104478 L17.8219828,37.9104478 L17.8219828,37.9104478 Z M14.6155172,32.5373134 C13.7206897,33.5820896 13.3478448,35.0746269 13.9443966,35.9701493 C14.1681034,36.2686567 14.5409483,36.4925373 14.8392241,36.4925373 C14.3918103,35.5970149 14.3172414,34.6268657 14.3918103,33.6567164 C14.4663793,34.7014925 14.6900862,35.6716418 15.1375,36.4179104 C15.4357759,36.3432836 15.6594828,36.0447761 15.7340517,35.6716418 C15.9577586,34.5522388 14.6155172,33.6567164 14.6155172,32.5373134 L14.6155172,32.5373134 L14.6155172,32.5373134 Z M19.3133621,34.6268657 C19.1642241,36.0447761 18.2693966,37.238806 17.225431,37.4626866 C16.8525862,37.5373134 16.4797414,37.3880597 16.2560345,37.0895522 C17.225431,36.8656716 17.9711207,36.2686567 18.6422414,35.5223881 C17.8219828,36.119403 17.0017241,36.641791 16.1068966,36.7910448 C16.0323276,36.4925373 16.0323276,36.1940299 16.2560345,35.8955224 C16.8525862,35 18.4931034,35.3731343 19.3133621,34.6268657 L19.3133621,34.6268657 L19.3133621,34.6268657 Z M16.7034483,28.9552239 C15.6594828,29.9253731 15.212069,31.3432836 15.6594828,32.3134328 C15.8831897,32.6865672 16.1814655,32.8358209 16.5543103,32.9104478 C16.1814655,31.9402985 16.2560345,31.0447761 16.4051724,30.0746269 C16.4051724,31.119403 16.4797414,32.0895522 16.8525862,32.9104478 C17.1508621,32.8358209 17.374569,32.6119403 17.5237069,32.238806 C17.8219828,31.119403 16.5543103,30.0746269 16.7034483,28.9552239 L16.7034483,28.9552239 L16.7034483,28.9552239 Z M21.1030172,31.4925373 C20.8047414,32.8358209 19.7607759,33.9552239 18.7168103,34.1044776 C18.3439655,34.1044776 17.9711207,33.9552239 17.7474138,33.6567164 C18.7168103,33.5074627 19.537069,32.9850746 20.2827586,32.3880597 C19.387931,32.9104478 18.4931034,33.2835821 17.5982759,33.4328358 C17.5237069,33.1343284 17.5982759,32.8358209 17.8219828,32.5373134 C18.6422414,31.641791 20.2081897,32.1641791 21.1030172,31.4925373 L21.1030172,31.4925373 L21.1030172,31.4925373 Z M19.0896552,25.5970149 C17.9711207,26.4179104 17.374569,27.8358209 17.6728448,28.8059701 C17.8219828,29.1791045 18.1202586,29.4029851 18.4931034,29.4776119 C18.1948276,28.5074627 18.3439655,27.5373134 18.6422414,26.641791 C18.4931034,27.6865672 18.4931034,28.6567164 18.7913793,29.5522388 C19.0896552,29.4776119 19.387931,29.3283582 19.537069,28.9552239 C19.9844828,27.8358209 18.8659483,26.641791 19.0896552,25.5970149 L19.0896552,25.5970149 L19.0896552,25.5970149 Z M23.1909483,28.5820896 C22.7435345,29.9253731 21.625,30.8955224 20.5810345,30.8955224 C20.2081897,30.8955224 19.8353448,30.6716418 19.6862069,30.3731343 C20.6556034,30.2985075 21.550431,29.9253731 22.3706897,29.3283582 C21.4012931,29.7761194 20.5064655,30.0746269 19.6116379,30.0746269 C19.537069,29.7761194 19.6862069,29.4776119 19.9844828,29.1791045 C20.8047414,28.4328358 22.2215517,29.1791045 23.1909483,28.5820896 L23.1909483,28.5820896 L23.1909483,28.5820896 Z M21.8487069,22.4626866 C20.6556034,23.2089552 19.9099138,24.4776119 20.1336207,25.5223881 C20.2827586,25.8955224 20.5064655,26.1940299 20.8793103,26.2686567 C20.7301724,25.2985075 20.9538793,24.3283582 21.3267241,23.4328358 C21.1030172,24.4776119 21.0284483,25.3731343 21.1775862,26.3432836 C21.4758621,26.3432836 21.7741379,26.1940299 21.9232759,25.8208955 C22.4452586,24.8507463 21.4758621,23.5820896 21.8487069,22.4626866 L21.8487069,22.4626866 L21.8487069,22.4626866 Z M25.6517241,25.8955224 C25.0551724,27.1641791 23.862069,28.0597015 22.8181034,27.9104478 C22.4452586,27.8358209 22.1469828,27.6119403 21.9978448,27.238806 C22.9672414,27.3134328 23.9366379,26.9402985 24.7568966,26.4925373 C23.7875,26.8656716 22.8181034,27.0149254 21.9232759,26.9402985 C21.9232759,26.641791 21.9978448,26.3432836 22.3706897,26.119403 C23.1909483,25.5223881 24.6077586,26.3432836 25.6517241,25.8955224 L25.6517241,25.8955224 L25.6517241,25.8955224 Z M24.9060345,19.7014925 C23.6383621,20.2985075 22.7435345,21.4925373 22.8926724,22.5373134 C22.9672414,22.9104478 23.1909483,23.2089552 23.5637931,23.358209 C23.4892241,22.3880597 23.862069,21.4179104 24.3094828,20.5970149 C23.9366379,21.5671642 23.7875,22.5373134 23.862069,23.4328358 C24.1603448,23.4328358 24.4586207,23.358209 24.6823276,22.9850746 C25.2788793,22.0895522 24.4586207,20.7462687 24.9060345,19.7014925 L24.9060345,19.7014925 L24.9060345,19.7014925 Z M28.2616379,23.5074627 C27.5159483,24.7014925 26.2482759,25.4477612 25.2043103,25.2238806 C24.8314655,25.0746269 24.5331897,24.8507463 24.4586207,24.4776119 C25.4280172,24.6268657 26.3974138,24.4029851 27.2922414,24.0298507 C26.2482759,24.2537313 25.3534483,24.3283582 24.3840517,24.1791045 C24.3840517,23.880597 24.5331897,23.5820896 24.9060345,23.4328358 C25.95,22.8358209 27.2176724,23.8059701 28.2616379,23.5074627 L28.2616379,23.5074627 L28.2616379,23.5074627 Z M28.187069,17.238806 C26.8448276,17.6865672 25.875431,18.8059701 25.875431,19.8507463 C25.875431,20.2238806 26.0991379,20.5970149 26.3974138,20.7462687 C26.4719828,19.7761194 26.8448276,18.880597 27.4413793,18.0597015 C26.9939655,19.0298507 26.6956897,19.9253731 26.6956897,20.8208955 C26.9939655,20.8955224 27.2922414,20.7462687 27.5905172,20.4477612 C28.3362069,19.7014925 27.6650862,18.2089552 28.187069,17.238806 L28.187069,17.238806 L28.187069,17.238806 Z M31.2443966,21.3432836 C30.4241379,22.4626866 29.0073276,23.0597015 28.037931,22.761194 C27.6650862,22.6119403 27.4413793,22.3134328 27.3668103,21.9402985 C28.3362069,22.238806 29.3056034,22.0895522 30.200431,21.7910448 C29.1564655,21.9402985 28.187069,21.9402985 27.2922414,21.641791 C27.3668103,21.3432836 27.5159483,21.0447761 27.8887931,20.8955224 C28.9327586,20.4477612 30.1258621,21.5671642 31.2443966,21.3432836 L31.2443966,21.3432836 L31.2443966,21.3432836 Z M31.7663793,15.1492537 C30.4241379,15.4477612 29.3056034,16.4925373 29.1564655,17.5373134 C29.1564655,17.9104478 29.3056034,18.2835821 29.6038793,18.5074627 C29.7530172,17.5373134 30.275,16.7164179 30.8715517,15.9701493 C30.349569,16.8656716 29.9767241,17.761194 29.8275862,18.6567164 C30.1258621,18.7313433 30.4241379,18.6567164 30.7224138,18.4328358 C31.6918103,17.6119403 31.0952586,16.0447761 31.7663793,15.1492537 L31.7663793,15.1492537 L31.7663793,15.1492537 Z M34.3017241,19.5522388 C33.3323276,20.5970149 31.9155172,21.0447761 30.9461207,20.5970149 C30.5732759,20.3731343 30.4241379,20.0746269 30.349569,19.7014925 C31.3189655,20.0746269 32.2137931,20 33.1831897,19.8507463 C32.1392241,19.8507463 31.1698276,19.7761194 30.349569,19.4029851 C30.4241379,19.1044776 30.6478448,18.880597 31.0206897,18.7313433 C32.1392241,18.4328358 33.1831897,19.7014925 34.3017241,19.5522388 L34.3017241,19.5522388 L34.3017241,19.5522388 Z M35.5693966,13.4328358 C34.1525862,13.5820896 32.9594828,14.4776119 32.7357759,15.5223881 C32.6612069,15.8955224 32.8103448,16.2686567 33.1086207,16.4925373 C33.3323276,15.5223881 33.9288793,14.7761194 34.674569,14.1044776 C34.0780172,14.9253731 33.5560345,15.7462687 33.4068966,16.641791 C33.7051724,16.7164179 34.0034483,16.7164179 34.3017241,16.4925373 C35.1965517,15.8208955 34.8237069,14.2537313 35.5693966,13.4328358 L35.5693966,13.4328358 L35.5693966,13.4328358 Z M37.5827586,18.0597015 C36.5387931,18.9552239 35.0474138,19.3283582 34.1525862,18.7313433 C33.8543103,18.5074627 33.6306034,18.1343284 33.6306034,17.8358209 C34.525431,18.2835821 35.4948276,18.358209 36.4642241,18.2835821 C35.4202586,18.2089552 34.4508621,17.9850746 33.7051724,17.5373134 C33.7797414,17.238806 34.0780172,17.0149254 34.4508621,16.9402985 C35.5693966,16.7910448 36.4642241,18.1343284 37.5827586,18.0597015 L37.5827586,18.0597015 L37.5827586,18.0597015 Z M39.4469828,12.1641791 C38.0301724,12.1641791 36.7625,12.9104478 36.4642241,13.9552239 C36.3896552,14.3283582 36.4642241,14.7014925 36.687931,15 C37.0607759,14.0298507 37.7318966,13.358209 38.4775862,12.761194 C37.7318966,13.5074627 37.2099138,14.3283582 36.9116379,15.1492537 C37.1353448,15.2985075 37.5081897,15.2985075 37.8810345,15.0746269 C38.850431,14.4776119 38.6267241,12.9104478 39.4469828,12.1641791 L39.4469828,12.1641791 L39.4469828,12.1641791 Z M41.012931,16.9402985 C39.8198276,17.761194 38.4030172,17.9104478 37.5081897,17.238806 C37.2099138,17.0149254 37.0607759,16.641791 37.1353448,16.2686567 C37.9556034,16.7910448 38.925,17.0149254 39.8943966,17.0149254 C38.850431,16.7910448 37.9556034,16.4925373 37.2099138,15.9701493 C37.3590517,15.6716418 37.5827586,15.5223881 38.0301724,15.4477612 C39.1487069,15.4477612 39.8943966,16.8656716 41.012931,16.9402985 L41.012931,16.9402985 L41.012931,16.9402985 Z M43.5482759,11.2686567 C42.1314655,11.119403 40.7892241,11.7164179 40.3418103,12.761194 C40.1926724,13.1343284 40.2672414,13.5074627 40.4909483,13.8059701 C40.9383621,12.9104478 41.6840517,12.3134328 42.5043103,11.7910448 C41.6840517,12.4626866 41.0875,13.2089552 40.7146552,14.0298507 C40.9383621,14.1791045 41.3112069,14.2537313 41.6840517,14.1044776 C42.6534483,13.5074627 42.5788793,11.8656716 43.5482759,11.2686567 L43.5482759,11.2686567 L43.5482759,11.2686567 Z M44.5922414,16.1940299 C43.324569,16.8656716 41.8331897,16.8656716 41.0875,16.119403 C40.7892241,15.8208955 40.7146552,15.4477612 40.7892241,15.1492537 C41.5349138,15.8208955 42.5043103,16.0447761 43.4737069,16.1940299 C42.5043103,15.8955224 41.6094828,15.5223881 40.9383621,14.8507463 C41.0875,14.6268657 41.3857759,14.4029851 41.7586207,14.4029851 C42.8771552,14.4776119 43.4737069,15.9701493 44.5922414,16.1940299 L44.5922414,16.1940299 L44.5922414,16.1940299 Z M47.649569,10.7462687 C46.2327586,10.4477612 44.8159483,10.8955224 44.2939655,11.8656716 C44.1448276,12.238806 44.1448276,12.6119403 44.2939655,12.9104478 C44.8159483,12.0895522 45.6362069,11.5671642 46.5310345,11.119403 C45.6362069,11.7164179 44.9650862,12.3880597 44.5176724,13.1343284 C44.7413793,13.358209 45.0396552,13.4328358 45.4125,13.2835821 C46.5310345,12.9850746 46.6056034,11.3432836 47.649569,10.7462687 L47.649569,10.7462687 L47.649569,10.7462687 Z M48.1715517,15.8208955 C46.9038793,16.3432836 45.4125,16.1940299 44.6668103,15.3731343 C44.4431034,15.0746269 44.3685345,14.7014925 44.5176724,14.3283582 C45.1887931,15.0746269 46.0836207,15.3731343 47.0530172,15.6716418 C46.0836207,15.2238806 45.2633621,14.7761194 44.6668103,14.1044776 C44.8159483,13.880597 45.1142241,13.7313433 45.5616379,13.8059701 C46.6056034,13.9552239 47.0530172,15.5223881 48.1715517,15.8208955 L48.1715517,15.8208955 L48.1715517,15.8208955 Z M51.7508621,10.7462687 C50.4086207,10.3731343 48.9172414,10.6716418 48.3206897,11.4925373 C48.0969828,11.8656716 48.0969828,12.238806 48.2461207,12.5373134 C48.8426724,11.7164179 49.7375,11.2686567 50.6323276,10.9701493 C49.7375,11.4925373 48.9172414,12.0149254 48.3952586,12.761194 C48.6189655,12.9850746 48.9172414,13.0597015 49.2900862,12.9850746 C50.4086207,12.8358209 50.7068966,11.1940299 51.7508621,10.7462687 L51.7508621,10.7462687 L51.7508621,10.7462687 Z M51.7508621,15.8208955 C50.4086207,16.1940299 48.9172414,15.8955224 48.3206897,15.0746269 C48.0969828,14.7014925 48.0969828,14.3283582 48.2461207,14.0298507 C48.8426724,14.8507463 49.7375,15.2985075 50.6323276,15.5970149 C49.7375,15.0746269 48.9172414,14.5522388 48.3952586,13.8059701 C48.6189655,13.5820896 48.9172414,13.5074627 49.2900862,13.5820896 C50.4086207,13.8059701 50.7068966,15.3731343 51.7508621,15.8208955 L51.7508621,15.8208955 L51.7508621,15.8208955 Z M55.8521552,11.1940299 C54.5844828,10.6716418 53.0931034,10.8208955 52.3474138,11.641791 C52.1237069,11.9402985 52.0491379,12.3134328 52.1982759,12.6865672 C52.8693966,11.9402985 53.7642241,11.641791 54.7336207,11.3432836 C53.7642241,11.7910448 52.9439655,12.238806 52.3474138,12.9104478 C52.4965517,13.1343284 52.7948276,13.2835821 53.2422414,13.2089552 C54.3607759,13.0597015 54.8081897,11.4925373 55.8521552,11.1940299 L55.8521552,11.1940299 L55.8521552,11.1940299 Z M55.3301724,16.1940299 C53.9133621,16.4925373 52.4965517,16.0447761 51.974569,15.0746269 C51.825431,14.7014925 51.825431,14.3283582 51.974569,14.0298507 C52.4965517,14.8507463 53.3168103,15.3731343 54.2116379,15.8208955 C53.3168103,15.2238806 52.6456897,14.5522388 52.1982759,13.8059701 C52.4219828,13.5820896 52.7202586,13.5074627 53.0931034,13.6567164 C54.2116379,14.0298507 54.3607759,15.6716418 55.3301724,16.1940299 L55.3301724,16.1940299 L55.3301724,16.1940299 Z M59.9534483,12.0149254 C58.6857759,11.3432836 57.1943966,11.3432836 56.4487069,12.0895522 C56.150431,12.3880597 56.0758621,12.761194 56.150431,13.0597015 C56.8961207,12.3880597 57.8655172,12.1641791 58.8349138,12.0149254 C57.8655172,12.3134328 56.9706897,12.6865672 56.299569,13.358209 C56.4487069,13.5820896 56.7469828,13.8059701 57.1198276,13.8059701 C58.1637931,13.7313433 58.8349138,12.238806 59.9534483,12.0149254 L59.9534483,12.0149254 L59.9534483,12.0149254 Z M58.8349138,16.9402985 C57.4181034,17.0895522 56.0758621,16.4925373 55.6284483,15.4477612 C55.4793103,15.0746269 55.5538793,14.7014925 55.7775862,14.4029851 C56.225,15.2985075 56.9706897,15.8955224 57.7909483,16.4179104 C56.9706897,15.7462687 56.3741379,15 56.0012931,14.1791045 C56.225,14.0298507 56.5978448,13.9552239 56.9706897,14.1044776 C58.0146552,14.7014925 57.9400862,16.3432836 58.8349138,16.9402985 L58.8349138,16.9402985 L58.8349138,16.9402985 Z M63.8310345,13.2089552 C62.637931,12.3880597 61.2211207,12.238806 60.3262931,12.9104478 C60.0280172,13.1343284 59.8788793,13.5074627 59.9534483,13.880597 C60.7737069,13.358209 61.7431034,13.1343284 62.7125,13.1343284 C61.6685345,13.358209 60.7737069,13.6567164 60.0280172,14.1791045 C60.1771552,14.4776119 60.4008621,14.6268657 60.8482759,14.7014925 C61.9668103,14.7761194 62.7125,13.358209 63.8310345,13.2089552 L63.8310345,13.2089552 L63.8310345,13.2089552 Z M62.2650862,18.0597015 C60.8482759,18.0597015 59.5806034,17.3134328 59.2823276,16.2686567 C59.2077586,15.8955224 59.2823276,15.5223881 59.5060345,15.2238806 C59.8788793,16.1940299 60.55,16.8656716 61.2956897,17.4626866 C60.55,16.7164179 60.0280172,15.8955224 59.7297414,15.0746269 C59.9534483,14.9253731 60.3262931,14.9253731 60.6991379,15.1492537 C61.6685345,15.7462687 61.4448276,17.3134328 62.2650862,18.0597015 L62.2650862,18.0597015 L62.2650862,18.0597015 Z M67.6340517,14.9253731 C66.5900862,14.0298507 65.0987069,13.6567164 64.2038793,14.2537313 C63.9056034,14.4776119 63.6818966,14.8507463 63.6818966,15.1492537 C64.5767241,14.7014925 65.5461207,14.6268657 66.5155172,14.7014925 C65.4715517,14.7761194 64.5021552,15 63.7564655,15.4477612 C63.8310345,15.7462687 64.1293103,15.9701493 64.5021552,16.0447761 C65.6206897,16.1940299 66.5155172,14.8507463 67.6340517,14.9253731 L67.6340517,14.9253731 L67.6340517,14.9253731 Z M65.5461207,19.5522388 C64.1293103,19.4029851 62.9362069,18.5074627 62.7125,17.4626866 C62.637931,17.0895522 62.787069,16.7164179 63.0853448,16.4925373 C63.3090517,17.4626866 63.9056034,18.2089552 64.6512931,18.880597 C64.0547414,18.0597015 63.5327586,17.238806 63.3836207,16.3432836 C63.6818966,16.2686567 63.9801724,16.2686567 64.2784483,16.4925373 C65.1732759,17.1641791 64.800431,18.7313433 65.5461207,19.5522388 L65.5461207,19.5522388 L65.5461207,19.5522388 Z M71.2133621,16.9402985 C70.2439655,15.8955224 68.8271552,15.4477612 67.8577586,15.8955224 C67.4849138,16.119403 67.3357759,16.4179104 67.2612069,16.7910448 C68.2306034,16.4179104 69.125431,16.4925373 70.0948276,16.641791 C69.0508621,16.641791 68.0814655,16.7164179 67.2612069,17.0895522 C67.3357759,17.3880597 67.5594828,17.6119403 67.9323276,17.761194 C69.0508621,18.0597015 70.0948276,16.7910448 71.2133621,16.9402985 L71.2133621,16.9402985 L71.2133621,16.9402985 Z M68.6780172,21.3432836 C67.3357759,21.0447761 66.2172414,20 66.0681034,18.9552239 C66.0681034,18.5820896 66.2172414,18.2089552 66.5155172,17.9850746 C66.6646552,18.9552239 67.1866379,19.7761194 67.7831897,20.5223881 C67.2612069,19.6268657 66.8883621,18.7313433 66.7392241,17.8358209 C67.0375,17.761194 67.3357759,17.8358209 67.6340517,18.0597015 C68.6034483,18.880597 68.0068966,20.4477612 68.6780172,21.3432836 L68.6780172,21.3432836 L68.6780172,21.3432836 Z M74.6435345,19.3283582 C73.8232759,18.2089552 72.4064655,17.6119403 71.437069,17.9104478 C71.0642241,18.0597015 70.8405172,18.358209 70.7659483,18.7313433 C71.7353448,18.4328358 72.7047414,18.5820896 73.599569,18.880597 C72.5556034,18.7313433 71.5862069,18.7313433 70.6913793,19.0298507 C70.7659483,19.3283582 70.9150862,19.6268657 71.287931,19.7761194 C72.3318966,20.2238806 73.525,19.1044776 74.6435345,19.3283582 L74.6435345,19.3283582 L74.6435345,19.3283582 Z M71.5862069,23.5074627 C70.2439655,23.0597015 69.274569,21.9402985 69.274569,20.8955224 C69.274569,20.5223881 69.4982759,20.1492537 69.7965517,20 C69.8711207,20.9701493 70.2439655,21.8656716 70.8405172,22.6865672 C70.3931034,21.7164179 70.0948276,20.8208955 70.0948276,19.9253731 C70.3931034,19.8507463 70.6913793,20 70.9896552,20.2985075 C71.7353448,21.0447761 71.0642241,22.5373134 71.5862069,23.5074627 L71.5862069,23.5074627 L71.5862069,23.5074627 Z M77.7008621,22.0895522 C76.9551724,20.8955224 75.6875,20.1492537 74.6435345,20.3731343 C74.2706897,20.5223881 73.9724138,20.7462687 73.8978448,21.119403 C74.8672414,20.9701493 75.8366379,21.1940299 76.7314655,21.5671642 C75.6875,21.3432836 74.7926724,21.2686567 73.8232759,21.4179104 C73.8232759,21.7164179 73.9724138,22.0149254 74.3452586,22.1641791 C75.3146552,22.761194 76.6568966,21.7164179 77.7008621,22.0895522 L77.7008621,22.0895522 L77.7008621,22.0895522 Z M74.2706897,25.8955224 C73.0030172,25.2985075 72.1081897,24.1044776 72.2573276,23.0597015 C72.3318966,22.6865672 72.5556034,22.3880597 72.9284483,22.238806 C72.8538793,23.2089552 73.2267241,24.1791045 73.6741379,25 C73.3012931,24.0298507 73.1521552,23.0597015 73.2267241,22.1641791 C73.525,22.1641791 73.8232759,22.238806 74.0469828,22.6119403 C74.6435345,23.5074627 73.8232759,24.8507463 74.2706897,25.8955224 L74.2706897,25.8955224 L74.2706897,25.8955224 Z M80.4599138,25.1492537 C79.8633621,23.880597 78.6702586,22.9850746 77.6262931,23.1343284 C77.2534483,23.2089552 76.9551724,23.4328358 76.8060345,23.8059701 C77.775431,23.7313433 78.7448276,24.1044776 79.5650862,24.5522388 C78.5956897,24.1791045 77.6262931,24.0298507 76.7314655,24.1044776 C76.7314655,24.4029851 76.8060345,24.7014925 77.1788793,24.9253731 C78.0737069,25.5223881 79.4905172,24.7014925 80.4599138,25.1492537 L80.4599138,25.1492537 L80.4599138,25.1492537 Z M76.7314655,28.5820896 C75.5383621,27.8358209 74.7926724,26.5671642 75.0163793,25.5223881 C75.1655172,25.1492537 75.3892241,24.8507463 75.762069,24.7761194 C75.612931,25.7462687 75.8366379,26.7164179 76.2094828,27.6119403 C75.9857759,26.5671642 75.9112069,25.6716418 76.0603448,24.7014925 C76.3586207,24.7014925 76.6568966,24.8507463 76.8060345,25.2238806 C77.3280172,26.1940299 76.3586207,27.4626866 76.7314655,28.5820896 L76.7314655,28.5820896 L76.7314655,28.5820896 Z M82.9206897,28.5074627 C82.4732759,27.1641791 81.3547414,26.1940299 80.3107759,26.1940299 C79.937931,26.1940299 79.5650862,26.4179104 79.4159483,26.7164179 C80.3853448,26.7910448 81.2801724,27.1641791 82.100431,27.761194 C81.1310345,27.3134328 80.2362069,27.0149254 79.3413793,27.0149254 C79.2668103,27.3134328 79.4159483,27.6119403 79.7142241,27.9104478 C80.5344828,28.5820896 81.9512931,27.9104478 82.9206897,28.5074627 L82.9206897,28.5074627 L82.9206897,28.5074627 Z M78.8193966,31.4925373 C77.7008621,30.6716418 77.1043103,29.2537313 77.4025862,28.2835821 C77.5517241,27.9104478 77.85,27.6865672 78.2228448,27.6119403 C77.924569,28.5820896 78.0737069,29.5522388 78.3719828,30.4477612 C78.2228448,29.4029851 78.2228448,28.4328358 78.5211207,27.5373134 C78.8193966,27.6119403 79.1176724,27.761194 79.2668103,28.1343284 C79.7142241,29.1791045 78.5956897,30.3731343 78.8193966,31.4925373 L78.8193966,31.4925373 L78.8193966,31.4925373 Z M85.0086207,32.0895522 C84.7103448,30.7462687 83.6663793,29.6268657 82.6224138,29.4776119 C82.249569,29.4776119 81.8767241,29.6268657 81.6530172,29.9253731 C82.6224138,30.0746269 83.4426724,30.5970149 84.1883621,31.1940299 C83.2935345,30.6716418 82.3987069,30.2985075 81.5038793,30.1492537 C81.4293103,30.4477612 81.5038793,30.7462687 81.7275862,31.0447761 C82.6224138,31.9402985 84.1137931,31.4179104 85.0086207,32.0895522 L85.0086207,32.0895522 L85.0086207,32.0895522 Z M80.6090517,34.6268657 C79.5650862,33.6567164 79.1176724,32.238806 79.5650862,31.2686567 C79.7887931,30.8955224 80.087069,30.7462687 80.4599138,30.6716418 C80.087069,31.641791 80.1616379,32.5373134 80.3107759,33.5074627 C80.3107759,32.4626866 80.3853448,31.4925373 80.7581897,30.6716418 C81.0564655,30.7462687 81.2801724,30.9701493 81.4293103,31.3432836 C81.7275862,32.3880597 80.4599138,33.5074627 80.6090517,34.6268657 L80.6090517,34.6268657 L80.6090517,34.6268657 Z M86.7237069,35.8208955 C86.574569,34.4029851 85.6797414,33.2089552 84.6357759,32.9850746 C84.262931,32.9104478 83.8900862,33.0597015 83.6663793,33.358209 C84.6357759,33.5820896 85.3814655,34.1791045 86.0525862,34.9253731 C85.2323276,34.3283582 84.412069,33.8059701 83.5172414,33.6567164 C83.4426724,33.9552239 83.4426724,34.2537313 83.6663793,34.5522388 C84.3375,35.4477612 85.9034483,35.0746269 86.7237069,35.8208955 L86.7237069,35.8208955 L86.7237069,35.8208955 Z M82.100431,37.9104478 C81.2056034,36.8656716 80.8327586,35.3731343 81.4293103,34.4776119 C81.6530172,34.1791045 82.0258621,33.9552239 82.3241379,33.9552239 C81.8767241,34.8507463 81.8021552,35.8208955 81.8767241,36.7910448 C81.9512931,35.7462687 82.175,34.7761194 82.6224138,34.0298507 C82.9206897,34.1044776 83.1443966,34.4029851 83.2189655,34.7761194 C83.4426724,35.8208955 82.100431,36.7910448 82.100431,37.9104478 L82.100431,37.9104478 L82.100431,37.9104478 Z M88.0659483,39.7761194 C88.0659483,38.358209 87.3202586,37.0895522 86.2762931,36.7910448 C85.9034483,36.7164179 85.5306034,36.7910448 85.2323276,37.0149254 C86.2017241,37.3880597 86.8728448,38.0597015 87.4693966,38.8059701 C86.7237069,38.0597015 85.9034483,37.5373134 85.0831897,37.238806 C84.9340517,37.5373134 84.9340517,37.8358209 85.1577586,38.2089552 C85.6797414,39.1044776 87.3202586,38.880597 88.0659483,39.7761194 L88.0659483,39.7761194 L88.0659483,39.7761194 Z M83.2189655,41.3432836 C82.3987069,40.1492537 82.249569,38.7313433 82.9206897,37.8358209 C83.1443966,37.5373134 83.5172414,37.3880597 83.8900862,37.4626866 C83.3681034,38.2835821 83.1443966,39.2537313 83.1443966,40.2238806 C83.3681034,39.1791045 83.6663793,38.2835821 84.1883621,37.5373134 C84.4866379,37.6865672 84.6357759,37.9104478 84.7103448,38.358209 C84.7103448,39.4029851 83.2935345,40.2238806 83.2189655,41.3432836 L83.2189655,41.3432836 L83.2189655,41.3432836 Z M88.9607759,43.8059701 C89.1099138,42.3880597 88.5133621,41.0447761 87.4693966,40.5970149 C87.0965517,40.4477612 86.7237069,40.5223881 86.425431,40.7462687 C87.3202586,41.1940299 87.9168103,41.9402985 88.4387931,42.761194 C87.7676724,41.9402985 87.0219828,41.3432836 86.2017241,40.9701493 C86.0525862,41.1940299 85.9780172,41.5671642 86.2017241,41.9402985 C86.6491379,42.9104478 88.2896552,42.9104478 88.9607759,43.8059701 L88.9607759,43.8059701 L88.9607759,43.8059701 Z M83.9646552,44.8507463 C83.2935345,43.5820896 83.2935345,42.0895522 84.0392241,41.3432836 C84.3375,41.0447761 84.7103448,40.9701493 85.0086207,41.0447761 C84.3375,41.7910448 84.1137931,42.761194 83.9646552,43.7313433 C84.262931,42.761194 84.6357759,41.8656716 85.3068966,41.1940299 C85.5306034,41.3432836 85.7543103,41.641791 85.7543103,42.0149254 C85.6797414,43.1343284 84.1883621,43.7313433 83.9646552,44.8507463 L83.9646552,44.8507463 L83.9646552,44.8507463 Z M89.4081897,47.9104478 C89.7064655,46.4925373 89.2590517,45.0746269 88.2896552,44.5522388 C87.9168103,44.4029851 87.5439655,44.4029851 87.2456897,44.5522388 C88.0659483,45.0746269 88.587931,45.8955224 89.0353448,46.7910448 C88.4387931,45.8955224 87.7676724,45.2238806 87.0219828,44.7761194 C86.7982759,45 86.7237069,45.2985075 86.8728448,45.6716418 C87.2456897,46.7910448 88.8116379,46.9402985 89.4081897,47.9104478 L89.4081897,47.9104478 L89.4081897,47.9104478 Z M84.3375,48.4328358 C83.8155172,47.1641791 83.9646552,45.6716418 84.7849138,44.9253731 C85.0831897,44.7014925 85.4560345,44.6268657 85.8288793,44.7761194 C85.0831897,45.4477612 84.7849138,46.3432836 84.4866379,47.3134328 C84.9340517,46.3432836 85.3814655,45.5223881 86.0525862,44.9253731 C86.2762931,45.0746269 86.425431,45.3731343 86.3508621,45.8208955 C86.2017241,46.8656716 84.6357759,47.3880597 84.3375,48.4328358 L84.3375,48.4328358 L84.3375,48.4328358 Z M89.4081897,52.0149254 C89.7810345,50.6716418 89.4827586,49.1791045 88.6625,48.5820896 C88.2896552,48.358209 87.9168103,48.358209 87.6185345,48.5074627 C88.4387931,49.1044776 88.8862069,50 89.1844828,50.8955224 C88.6625,50 88.1405172,49.1791045 87.3948276,48.6567164 C87.1711207,48.880597 87.0965517,49.1791045 87.1711207,49.5522388 C87.3948276,50.7462687 88.9607759,51.0447761 89.4081897,52.0149254 L89.4081897,52.0149254 L89.4081897,52.0149254 Z M84.3375,52.0149254 C83.9646552,50.6716418 84.262931,49.1791045 85.0831897,48.5820896 C85.4560345,48.358209 85.8288793,48.358209 86.1271552,48.5074627 C85.3068966,49.1044776 84.8594828,50 84.5612069,50.8955224 C85.0831897,50 85.6051724,49.1791045 86.3508621,48.6567164 C86.574569,48.880597 86.6491379,49.1791045 86.574569,49.5522388 C86.3508621,50.7462687 84.7849138,51.0447761 84.3375,52.0149254 L84.3375,52.0149254 L84.3375,52.0149254 Z M89.0353448,56.1940299 C89.5573276,54.9253731 89.4081897,53.4328358 88.587931,52.6865672 C88.2896552,52.4626866 87.9168103,52.3880597 87.5439655,52.5373134 C88.2896552,53.2089552 88.587931,54.1044776 88.8862069,55.0746269 C88.4387931,54.1044776 87.9913793,53.2835821 87.3202586,52.6865672 C87.0965517,52.8358209 86.9474138,53.1343284 87.0219828,53.5820896 C87.0965517,54.6268657 88.6625,55.0746269 89.0353448,56.1940299 L89.0353448,56.1940299 L89.0353448,56.1940299 Z M83.9646552,55.5970149 C83.6663793,54.1791045 84.1137931,52.761194 85.0831897,52.238806 C85.4560345,52.0895522 85.8288793,52.0895522 86.1271552,52.238806 C85.3068966,52.761194 84.7849138,53.5820896 84.3375,54.4776119 C84.9340517,53.5820896 85.6051724,52.9104478 86.3508621,52.4626866 C86.574569,52.6865672 86.6491379,52.9850746 86.5,53.358209 C86.1271552,54.5522388 84.4866379,54.6268657 83.9646552,55.5970149 L83.9646552,55.5970149 L83.9646552,55.5970149 Z M88.2150862,60.2238806 C88.8862069,58.9552239 88.8862069,57.4626866 88.1405172,56.7164179 C87.8422414,56.4179104 87.4693966,56.3432836 87.1711207,56.4179104 C87.8422414,57.1641791 88.0659483,58.1343284 88.2150862,59.1044776 C87.9168103,58.1343284 87.5439655,57.238806 86.8728448,56.5671642 C86.6491379,56.7164179 86.425431,57.0149254 86.425431,57.3880597 C86.425431,58.5074627 87.9913793,59.1044776 88.2150862,60.2238806 L88.2150862,60.2238806 L88.2150862,60.2238806 Z M83.2189655,59.1791045 C83.0698276,57.761194 83.6663793,56.4179104 84.7103448,55.9701493 C85.0831897,55.8208955 85.4560345,55.8955224 85.7543103,56.119403 C84.8594828,56.5671642 84.262931,57.3134328 83.7409483,58.1343284 C84.412069,57.3134328 85.1577586,56.7164179 85.9780172,56.3432836 C86.1271552,56.5671642 86.2017241,56.9402985 85.9780172,57.3134328 C85.4560345,58.2835821 83.8900862,58.2089552 83.2189655,59.1791045 L83.2189655,59.1791045 L83.2189655,59.1791045 Z M86.9474138,64.1791045 C87.7676724,62.9850746 87.9168103,61.5671642 87.2456897,60.6716418 C87.0219828,60.3731343 86.6491379,60.2238806 86.2762931,60.2985075 C86.7982759,61.119403 87.0219828,62.0895522 87.0219828,63.0597015 C86.7982759,62.0149254 86.5,61.119403 85.9780172,60.3731343 C85.6797414,60.5223881 85.5306034,60.7462687 85.4560345,61.1940299 C85.3814655,62.238806 86.7982759,63.0597015 86.9474138,64.1791045 L86.9474138,64.1791045 L86.9474138,64.1791045 Z M82.100431,62.6119403 C82.100431,61.1940299 82.8461207,59.9253731 83.8900862,59.6268657 C84.262931,59.5522388 84.6357759,59.6268657 84.9340517,59.8507463 C83.9646552,60.2238806 83.2935345,60.8955224 82.6969828,61.641791 C83.4426724,60.8955224 84.262931,60.3731343 85.0831897,60.0746269 C85.2323276,60.2985075 85.2323276,60.6716418 85.0086207,61.0447761 C84.4866379,61.9402985 82.8461207,61.7164179 82.100431,62.6119403 L82.100431,62.6119403 L82.100431,62.6119403 Z M85.3068966,67.9850746 C86.2017241,66.9402985 86.574569,65.4477612 85.9780172,64.5522388 C85.7543103,64.2537313 85.3814655,64.0298507 85.0831897,64.0298507 C85.5306034,64.9253731 85.6051724,65.8955224 85.5306034,66.8656716 C85.4560345,65.8208955 85.2323276,64.8507463 84.7849138,64.1044776 C84.4866379,64.1791045 84.262931,64.4776119 84.1883621,64.8507463 C83.9646552,65.8955224 85.3068966,66.7910448 85.3068966,67.9850746 L85.3068966,67.9850746 L85.3068966,67.9850746 Z M80.6090517,65.8955224 C80.7581897,64.4776119 81.6530172,63.2835821 82.6969828,63.0597015 C83.0698276,62.9850746 83.4426724,63.1343284 83.6663793,63.4328358 C82.6969828,63.6567164 81.9512931,64.2537313 81.2801724,65 C82.100431,64.4029851 82.9206897,63.880597 83.8155172,63.7313433 C83.8900862,64.0298507 83.8900862,64.3283582 83.6663793,64.6268657 C83.0698276,65.5223881 81.4293103,65.1492537 80.6090517,65.8955224 L80.6090517,65.8955224 L80.6090517,65.8955224 Z M83.2189655,71.5671642 C84.262931,70.5970149 84.7103448,69.1791045 84.262931,68.2089552 C84.0392241,67.8358209 83.7409483,67.6865672 83.3681034,67.6119403 C83.7409483,68.5820896 83.6663793,69.4776119 83.5172414,70.4477612 C83.5172414,69.4029851 83.4426724,68.4328358 83.0698276,67.6119403 C82.7715517,67.6865672 82.5478448,67.9104478 82.3987069,68.2835821 C82.100431,69.4029851 83.3681034,70.4477612 83.2189655,71.5671642 L83.2189655,71.5671642 L83.2189655,71.5671642 Z M78.8193966,69.0298507 C79.1176724,67.6865672 80.1616379,66.5671642 81.2056034,66.4179104 C81.5784483,66.4179104 81.9512931,66.5671642 82.175,66.8656716 C81.2056034,67.0149254 80.3853448,67.5373134 79.6396552,68.1343284 C80.5344828,67.6119403 81.4293103,67.238806 82.3241379,67.0895522 C82.3987069,67.3880597 82.3241379,67.6865672 82.100431,67.9850746 C81.2801724,68.880597 79.7142241,68.358209 78.8193966,69.0298507 L78.8193966,69.0298507 L78.8193966,69.0298507 Z M80.8327586,74.9253731 C81.9512931,74.1044776 82.5478448,72.6865672 82.249569,71.7164179 C82.100431,71.3432836 81.8021552,71.119403 81.4293103,71.0447761 C81.7275862,72.0149254 81.5784483,72.9850746 81.2801724,73.880597 C81.4293103,72.8358209 81.4293103,71.8656716 81.1310345,70.9701493 C80.8327586,71.0447761 80.5344828,71.1940299 80.3853448,71.5671642 C79.937931,72.6119403 81.0564655,73.8059701 80.8327586,74.9253731 L80.8327586,74.9253731 L80.8327586,74.9253731 Z M76.7314655,71.9402985 C77.1788793,70.5970149 78.2974138,69.6268657 79.3413793,69.6268657 C79.7142241,69.6268657 80.087069,69.8507463 80.2362069,70.1492537 C79.2668103,70.2238806 78.3719828,70.5970149 77.5517241,71.1940299 C78.5211207,70.7462687 79.4159483,70.4477612 80.3107759,70.4477612 C80.3853448,70.7462687 80.2362069,71.0447761 79.937931,71.3432836 C79.1176724,72.0149254 77.7008621,71.3432836 76.7314655,71.9402985 L76.7314655,71.9402985 L76.7314655,71.9402985 Z M78.0737069,77.9850746 C79.2668103,77.238806 80.0125,75.9701493 79.7887931,74.9253731 C79.6396552,74.5522388 79.4159483,74.2537313 79.0431034,74.1791045 C79.1922414,75.1492537 78.9685345,76.119403 78.5956897,77.0149254 C78.8193966,75.9701493 78.8939655,75.0746269 78.7448276,74.1044776 C78.4465517,74.1044776 78.1482759,74.2537313 77.9991379,74.6268657 C77.4771552,75.6716418 78.4465517,76.9402985 78.0737069,77.9850746 L78.0737069,77.9850746 L78.0737069,77.9850746 Z M74.2706897,74.6268657 C74.8672414,73.358209 76.0603448,72.4626866 77.1043103,72.6119403 C77.4771552,72.6865672 77.775431,72.9104478 77.924569,73.2835821 C76.9551724,73.2089552 75.9857759,73.5820896 75.1655172,74.0298507 C76.1349138,73.6567164 77.1043103,73.5074627 77.9991379,73.5820896 C77.9991379,73.880597 77.924569,74.1791045 77.5517241,74.4029851 C76.7314655,75 75.3146552,74.1044776 74.2706897,74.6268657 L74.2706897,74.6268657 L74.2706897,74.6268657 Z M75.0163793,80.8208955 C76.2840517,80.2238806 77.1788793,79.0298507 77.0297414,77.9850746 C76.9551724,77.6119403 76.7314655,77.3134328 76.3586207,77.1641791 C76.4331897,78.1343284 76.0603448,79.1044776 75.612931,79.9253731 C75.9857759,78.9552239 76.1349138,77.9850746 76.0603448,77.0895522 C75.762069,77.0895522 75.4637931,77.1641791 75.2400862,77.5373134 C74.6435345,78.358209 75.4637931,79.7761194 75.0163793,80.8208955 L75.0163793,80.8208955 L75.0163793,80.8208955 Z M71.6607759,77.0149254 C72.4064655,75.8208955 73.6741379,75.0746269 74.7181034,75.2985075 C75.0909483,75.4477612 75.3892241,75.6716418 75.4637931,76.0447761 C74.4943966,75.8955224 73.525,76.119403 72.6301724,76.4925373 C73.6741379,76.2686567 74.5689655,76.1940299 75.5383621,76.3432836 C75.5383621,76.641791 75.3892241,76.9402985 75.0163793,77.0895522 C73.9724138,77.6119403 72.7047414,76.641791 71.6607759,77.0149254 L71.6607759,77.0149254 L71.6607759,77.0149254 Z M71.7353448,83.2835821 C73.0775862,82.8358209 74.0469828,81.7164179 74.0469828,80.6716418 C74.0469828,80.2985075 73.8232759,79.9253731 73.525,79.7761194 C73.450431,80.7462687 73.0775862,81.641791 72.4810345,82.4626866 C72.9284483,81.4925373 73.2267241,80.5970149 73.2267241,79.7014925 C72.9284483,79.6268657 72.6301724,79.7761194 72.3318966,80.0746269 C71.5862069,80.8208955 72.2573276,82.3134328 71.7353448,83.2835821 L71.7353448,83.2835821 L71.7353448,83.2835821 Z M68.6780172,79.1044776 C69.4982759,77.9850746 70.9150862,77.3880597 71.8844828,77.6865672 C72.2573276,77.8358209 72.4810345,78.1343284 72.5556034,78.5074627 C71.5862069,78.2089552 70.6168103,78.358209 69.7219828,78.6567164 C70.7659483,78.5074627 71.7353448,78.5074627 72.6301724,78.8059701 C72.5556034,79.1044776 72.4064655,79.4029851 72.0336207,79.5522388 C70.9896552,80 69.7965517,78.880597 68.6780172,79.1044776 L68.6780172,79.1044776 L68.6780172,79.1044776 Z M68.1560345,85.3731343 C69.4982759,85.0746269 70.6168103,84.0298507 70.7659483,82.9850746 C70.7659483,82.6119403 70.6168103,82.238806 70.3185345,82.0149254 C70.1693966,82.9850746 69.6474138,83.8059701 69.0508621,84.5522388 C69.5728448,83.6567164 69.9456897,82.761194 70.0948276,81.8656716 C69.7965517,81.7910448 69.4982759,81.8656716 69.2,82.0895522 C68.2306034,82.9104478 68.8271552,84.4776119 68.1560345,85.3731343 L68.1560345,85.3731343 L68.1560345,85.3731343 Z M65.6206897,80.9701493 C66.5900862,79.9253731 68.0068966,79.4776119 68.9762931,79.9253731 C69.3491379,80.1492537 69.4982759,80.4477612 69.5728448,80.8208955 C68.6034483,80.4477612 67.7086207,80.5223881 66.7392241,80.6716418 C67.7831897,80.6716418 68.7525862,80.7462687 69.5728448,81.119403 C69.4982759,81.4179104 69.274569,81.641791 68.9017241,81.7910448 C67.7831897,82.0149254 66.7392241,80.8208955 65.6206897,80.9701493 L65.6206897,80.9701493 L65.6206897,80.9701493 Z M64.3530172,87.0895522 C65.7698276,86.9402985 66.962931,86.0447761 67.1866379,85 C67.2612069,84.6268657 67.112069,84.2537313 66.8137931,84.0298507 C66.5900862,85 65.9935345,85.7462687 65.2478448,86.4179104 C65.8443966,85.5970149 66.3663793,84.7761194 66.5155172,83.880597 C66.2172414,83.8059701 65.9189655,83.8059701 65.6206897,84.0298507 C64.7258621,84.6268657 65.0987069,86.1940299 64.3530172,87.0895522 L64.3530172,87.0895522 L64.3530172,87.0895522 Z M62.2650862,82.3880597 C63.3090517,81.4925373 64.800431,81.119403 65.6952586,81.7164179 C65.9935345,81.9402985 66.2172414,82.3134328 66.2172414,82.6119403 C65.3224138,82.1641791 64.3530172,82.0895522 63.3836207,82.1641791 C64.4275862,82.238806 65.3969828,82.4626866 66.1426724,82.9104478 C66.0681034,83.2089552 65.7698276,83.4328358 65.3969828,83.5074627 C64.3530172,83.7313433 63.4581897,82.3880597 62.2650862,82.3880597 L62.2650862,82.3880597 L62.2650862,82.3880597 Z M60.475431,88.358209 C61.8922414,88.358209 63.1599138,87.6119403 63.4581897,86.5671642 C63.5327586,86.1940299 63.4581897,85.8208955 63.2344828,85.5223881 C62.8616379,86.4925373 62.1905172,87.1641791 61.4448276,87.761194 C62.1905172,87.0149254 62.7125,86.1940299 63.0107759,85.3731343 C62.787069,85.2238806 62.4142241,85.2238806 62.0413793,85.4477612 C61.0719828,85.9701493 61.2956897,87.6119403 60.475431,88.358209 L60.475431,88.358209 L60.475431,88.358209 Z M58.9094828,83.5074627 C60.1025862,82.6865672 61.5193966,82.5373134 62.4142241,83.2089552 C62.7125,83.4328358 62.8616379,83.8059701 62.787069,84.1791045 C61.9668103,83.6567164 60.9974138,83.4328358 60.0280172,83.4328358 C61.0719828,83.6567164 61.9668103,83.9552239 62.7125,84.4776119 C62.5633621,84.7761194 62.3396552,84.9253731 61.8922414,85 C60.7737069,85.0746269 60.0280172,83.6567164 58.9094828,83.5074627 L58.9094828,83.5074627 L58.9094828,83.5074627 Z M56.3741379,89.2537313 C57.7909483,89.4029851 59.1331897,88.8059701 59.5806034,87.761194 C59.7297414,87.3880597 59.6551724,87.0149254 59.4314655,86.7164179 C58.9840517,87.6119403 58.2383621,88.2089552 57.4181034,88.7313433 C58.2383621,88.0597015 58.8349138,87.3134328 59.2077586,86.4925373 C58.9840517,86.3432836 58.6112069,86.2686567 58.2383621,86.4179104 C57.2689655,86.9402985 57.3435345,88.5820896 56.3741379,89.2537313 L56.3741379,89.2537313 L56.3741379,89.2537313 Z M55.3301724,84.2537313 C56.5978448,83.5820896 58.0892241,83.5820896 58.8349138,84.3283582 C59.1331897,84.6268657 59.2077586,85 59.1331897,85.2985075 C58.3875,84.6268657 57.4181034,84.4029851 56.4487069,84.2537313 C57.4181034,84.5522388 58.312931,84.9253731 58.9840517,85.5970149 C58.8349138,85.8208955 58.5366379,86.0447761 58.1637931,86.0447761 C57.0452586,85.9701493 56.4487069,84.4776119 55.3301724,84.2537313 L55.3301724,84.2537313 L55.3301724,84.2537313 Z M52.2728448,89.7014925 C53.6896552,90 55.1064655,89.5522388 55.6284483,88.5820896 C55.7775862,88.2089552 55.7775862,87.8358209 55.6284483,87.5373134 C55.1064655,88.358209 54.2862069,88.880597 53.3913793,89.3283582 C54.2862069,88.7313433 54.9573276,88.0597015 55.4047414,87.3134328 C55.1810345,87.0895522 54.8827586,87.0149254 54.5099138,87.1641791 C53.3913793,87.5373134 53.2422414,89.1791045 52.2728448,89.7014925 L52.2728448,89.7014925 L52.2728448,89.7014925 Z M51.7508621,84.6268657 C53.0185345,84.1044776 54.5099138,84.2537313 55.2556034,85.0746269 C55.4793103,85.3731343 55.5538793,85.7462687 55.4047414,86.119403 C54.7336207,85.3731343 53.8387931,85.0746269 52.8693966,84.7761194 C53.8387931,85.2238806 54.6590517,85.6716418 55.2556034,86.3432836 C55.1064655,86.5671642 54.8081897,86.7164179 54.3607759,86.641791 C53.3168103,86.5671642 52.8693966,85 51.7508621,84.6268657 L51.7508621,84.6268657 L51.7508621,84.6268657 Z M48.1715517,84.6268657 C49.5137931,84.2537313 51.0051724,84.5522388 51.6017241,85.3731343 C51.825431,85.7462687 51.825431,86.119403 51.6762931,86.4179104 C51.0797414,85.5970149 50.1849138,85.1492537 49.2900862,84.8507463 C50.1849138,85.3731343 51.0051724,85.8955224 51.5271552,86.641791 C51.3034483,86.8656716 51.0051724,86.9402985 50.6323276,86.8656716 C49.5137931,86.7164179 49.2155172,85.0746269 48.1715517,84.6268657 L48.1715517,84.6268657 L48.1715517,84.6268657 Z" id="Shape" fill="#FFFFFF"></path>
                        <path d="M63.9056034,41.4925373 L63.9056034,37.238806 L52.4965517,37.238806 L52.4965517,67.6865672 L58.2383621,67.6865672 L58.2383621,69.6268657 L41.8331897,69.6268657 L41.8331897,67.6865672 L47.575,67.6865672 L47.575,37.238806 L36.1659483,37.238806 L36.1659483,41.4925373 L33.4068966,41.4925373 L33.4068966,33.0597015 L36.1659483,33.0597015 L36.1659483,34.5522388 L63.9801724,34.5522388 L63.9801724,33.0597015 L66.7392241,33.0597015 L66.7392241,41.4925373 L63.9056034,41.4925373 L63.9056034,41.4925373 Z" id="Shape" fill="#FFFFFF"></path>
                    </g>
                    <g transform="translate(114.836207, 20.895522)" id="Shape" fill="#010101">
                        <g>
                            <path d="M26.7702586,39.5522388 L9.09741379,39.5522388 L9.09741379,37.4626866 L15.212069,37.4626866 L15.212069,4.62686567 L2.98275862,4.62686567 L2.98275862,9.17910448 L2.13162821e-14,9.17910448 L2.13162821e-14,0.149253731 L2.98275862,0.149253731 L2.98275862,1.71641791 L32.9594828,1.71641791 L32.9594828,0.149253731 L35.9422414,0.149253731 L35.9422414,9.17910448 L32.9594828,9.17910448 L32.9594828,4.62686567 L20.6556034,4.62686567 L20.6556034,37.4626866 L26.7702586,37.4626866 L26.7702586,39.5522388 L26.7702586,39.5522388 Z"></path>
                            <path d="M82.0258621,3.88059701 L77.4025862,3.88059701 L77.4025862,25.6716418 C77.4025862,31.7910448 75.0909483,35.7462687 69.9456897,38.358209 C67.3357759,39.6268657 64.4275862,40.2985075 61.3702586,40.2985075 C52.4965517,40.2985075 45.8599138,34.7761194 45.8599138,27.3134328 L45.8599138,3.88059701 L41.2366379,3.88059701 L41.2366379,1.79104478 L55.8521552,1.79104478 L55.8521552,3.88059701 L51.2288793,3.88059701 L51.2288793,25.5223881 C51.2288793,32.4626866 55.6284483,36.9402985 62.4142241,36.9402985 C69.4237069,36.9402985 74.1215517,32.3134328 74.1215517,25.4477612 L74.1215517,3.88059701 L69.4982759,3.88059701 L69.4982759,1.79104478 L82.0258621,1.79104478 L82.0258621,3.88059701 L82.0258621,3.88059701 Z"></path>
                            <path d="M123.113362,39.5522388 L117.893534,39.5522388 C114.239655,39.5522388 113.568534,39.1791045 111.555172,36.1940299 L102.38319,22.6119403 L97.6107759,22.6119403 L97.6107759,37.4626866 L102.234052,37.4626866 L102.234052,39.5522388 L87.6185345,39.5522388 L87.6185345,37.4626866 L92.2418103,37.4626866 L92.2418103,3.88059701 L87.6185345,3.88059701 L87.6185345,1.79104478 L104.694828,1.79104478 C110.660345,1.79104478 114.015948,3.35820896 115.880172,6.86567164 C116.700431,8.43283582 117.073276,10.1492537 117.073276,11.9402985 C117.073276,17.4626866 113.792241,21.0447761 107.826724,21.8656716 L116.700431,34.5522388 C118.19181,36.641791 119.161207,37.3880597 120.727155,37.3880597 L123.113362,37.3880597 L123.113362,39.5522388 L123.113362,39.5522388 Z M97.6107759,19.9253731 L103.501724,19.9253731 C108.199569,19.9253731 111.406034,16.7164179 111.406034,12.0149254 C111.406034,7.08955224 108.497845,4.32835821 103.352586,4.32835821 L97.6107759,4.32835821 L97.6107759,19.9253731 L97.6107759,19.9253731 Z"></path>
                            <path d="M143.246983,39.5522388 L128.631466,39.5522388 L128.631466,37.4626866 L133.254741,37.4626866 L133.254741,3.88059701 L128.631466,3.88059701 L128.631466,1.79104478 L143.246983,1.79104478 L143.246983,3.88059701 L138.623707,3.88059701 L138.623707,37.4626866 L143.246983,37.4626866 L143.246983,39.5522388 L143.246983,39.5522388 Z"></path>
                            <path d="M183.290517,40.1492537 L181.351724,40.1492537 L157.787931,9.92537313 L157.787931,37.3880597 L162.485776,37.3880597 L162.485776,39.4776119 L150.107328,39.4776119 L150.107328,37.3880597 L154.805172,37.3880597 L154.805172,6.04477612 L153.164655,3.88059701 L148.914224,3.88059701 L148.914224,1.79104478 L157.787931,1.79104478 L180.307759,30.5223881 L180.307759,3.88059701 L175.609914,3.88059701 L175.609914,1.79104478 L187.913793,1.79104478 L187.913793,3.88059701 L183.290517,3.88059701 L183.290517,40.1492537 L183.290517,40.1492537 Z"></path>
                            <path d="M226.093103,38.1343284 C220.649569,39.7761194 217.592241,40.2985075 213.34181,40.2985075 C206.928879,40.2985075 202.305603,38.7313433 198.20431,35.4477612 C193.655603,31.641791 191.04569,26.2686567 191.04569,20.5970149 C191.04569,9.32835821 200.292241,1.04477612 212.894397,1.04477612 C216.548276,1.04477612 219.307328,1.49253731 223.110345,2.8358209 L223.110345,0.597014925 L225.943966,0.597014925 L225.943966,10.2985075 L223.110345,10.2985075 L223.110345,6.56716418 C219.083621,4.70149254 215.951724,3.95522388 212.521552,3.95522388 C204.02069,3.95522388 197.160345,11.3432836 197.160345,20.5223881 C197.160345,29.9253731 204.990086,37.3134328 215.056897,37.3134328 C216.921121,37.3134328 218.039655,37.1641791 220.649569,36.4925373 L220.649569,26.4925373 L215.429741,26.4925373 L215.429741,24.4029851 L230.64181,24.4029851 L230.64181,26.4925373 L226.018534,26.4925373 L226.018534,38.1343284 L226.093103,38.1343284 Z"></path>
                        </g>
                        <g transform="translate(26.099138, 50.000000)">
                            <path d="M4.47413793,2.01492537 C3.87758621,1.71641791 3.35560345,1.49253731 2.60991379,1.49253731 C1.64051724,1.49253731 0.969396552,1.94029851 0.969396552,2.76119403 C0.969396552,3.43283582 1.34224138,3.73134328 2.90818966,4.55223881 C3.80301724,5 4.69784483,5.52238806 4.69784483,6.56716418 C4.69784483,7.76119403 3.80301724,8.58208955 2.23706897,8.58208955 C1.34224138,8.58208955 0.67112069,8.35820896 0,7.8358209 L0.298275862,7.31343284 C0.969396552,7.76119403 1.49137931,7.98507463 2.31163793,7.98507463 C3.28103448,7.98507463 3.95215517,7.46268657 3.95215517,6.64179104 C3.95215517,5.52238806 2.68448276,5.07462687 1.78965517,4.62686567 C0.596551724,4.02985075 0.149137931,3.43283582 0.149137931,2.68656716 C0.149137931,1.56716418 1.11853448,0.895522388 2.60991379,0.895522388 C3.43017241,0.895522388 3.95215517,1.04477612 4.69784483,1.41791045 L4.47413793,2.01492537 L4.47413793,2.01492537 Z"></path>
                            <path d="M11.9310345,2.01492537 C11.3344828,1.64179104 10.8125,1.49253731 10.0668103,1.49253731 C8.27715517,1.49253731 7.00948276,2.8358209 7.00948276,4.62686567 C7.00948276,6.56716418 8.27715517,7.98507463 10.2159483,7.98507463 C10.887069,7.98507463 11.4090517,7.8358209 12.0056034,7.6119403 L12.2293103,8.13432836 C11.6327586,8.43283582 10.8125,8.58208955 10.1413793,8.58208955 C7.90431034,8.58208955 6.2637931,7.01492537 6.2637931,4.70149254 C6.2637931,2.53731343 7.90431034,0.895522388 10.0668103,0.895522388 C10.8125,0.895522388 11.6327586,1.11940299 12.2293103,1.49253731 L11.9310345,2.01492537 L11.9310345,2.01492537 Z"></path>
                            <path d="M19.6862069,8.43283582 L19.6862069,4.92537313 L14.6900862,4.92537313 L14.6900862,8.43283582 L14.0189655,8.43283582 L14.0189655,1.04477612 L14.6900862,1.04477612 L14.6900862,4.32835821 L19.6862069,4.32835821 L19.6862069,1.04477612 L20.3573276,1.04477612 L20.3573276,8.43283582 L19.6862069,8.43283582 L19.6862069,8.43283582 Z"></path>
                            <path d="M26.1737069,8.58208955 C24.0112069,8.58208955 22.3706897,7.01492537 22.3706897,4.7761194 C22.3706897,2.53731343 24.0112069,0.970149254 26.1737069,0.970149254 C28.3362069,0.970149254 29.9767241,2.53731343 29.9767241,4.7761194 C29.9767241,6.94029851 28.3362069,8.58208955 26.1737069,8.58208955 L26.1737069,8.58208955 Z M26.1737069,1.49253731 C24.4586207,1.49253731 23.1163793,2.98507463 23.1163793,4.7761194 C23.1163793,6.56716418 24.4586207,8.05970149 26.1737069,8.05970149 C27.8887931,8.05970149 29.2310345,6.56716418 29.2310345,4.7761194 C29.2310345,2.98507463 27.8887931,1.49253731 26.1737069,1.49253731 L26.1737069,1.49253731 Z"></path>
                            <path d="M35.1219828,8.58208955 C32.9594828,8.58208955 31.3189655,7.01492537 31.3189655,4.7761194 C31.3189655,2.53731343 32.9594828,0.970149254 35.1219828,0.970149254 C37.2844828,0.970149254 38.925,2.53731343 38.925,4.7761194 C38.925,6.94029851 37.3590517,8.58208955 35.1219828,8.58208955 L35.1219828,8.58208955 Z M35.1219828,1.49253731 C33.4068966,1.49253731 32.0646552,2.98507463 32.0646552,4.7761194 C32.0646552,6.56716418 33.4068966,8.05970149 35.1219828,8.05970149 C36.837069,8.05970149 38.1793103,6.56716418 38.1793103,4.7761194 C38.2538793,2.98507463 36.837069,1.49253731 35.1219828,1.49253731 L35.1219828,1.49253731 Z"></path>
                            <path d="M41.012931,8.43283582 L41.012931,1.04477612 L41.6840517,1.04477612 L41.6840517,7.8358209 L45.1887931,7.8358209 L45.1887931,8.35820896 L41.012931,8.35820896 L41.012931,8.43283582 Z"></path>
                            <path d="M52.8693966,8.58208955 C50.7068966,8.58208955 49.0663793,7.01492537 49.0663793,4.7761194 C49.0663793,2.53731343 50.7068966,0.970149254 52.8693966,0.970149254 C55.0318966,0.970149254 56.6724138,2.53731343 56.6724138,4.7761194 C56.6724138,6.94029851 55.0318966,8.58208955 52.8693966,8.58208955 L52.8693966,8.58208955 Z M52.8693966,1.49253731 C51.1543103,1.49253731 49.812069,2.98507463 49.812069,4.7761194 C49.812069,6.56716418 51.1543103,8.05970149 52.8693966,8.05970149 C54.5844828,8.05970149 55.9267241,6.56716418 55.9267241,4.7761194 C55.9267241,2.98507463 54.5844828,1.49253731 52.8693966,1.49253731 L52.8693966,1.49253731 Z"></path>
                            <path d="M59.3568966,1.56716418 L59.3568966,4.40298507 L62.1905172,4.40298507 L62.1905172,4.92537313 L59.3568966,4.92537313 L59.3568966,8.35820896 L58.6857759,8.35820896 L58.6857759,0.970149254 L62.787069,0.970149254 L62.787069,1.49253731 L59.3568966,1.49253731 L59.3568966,1.56716418 Z"></path>
                            <path d="M71.5116379,2.01492537 C70.9150862,1.71641791 70.3931034,1.49253731 69.6474138,1.49253731 C68.6780172,1.49253731 68.0068966,1.94029851 68.0068966,2.76119403 C68.0068966,3.43283582 68.3797414,3.73134328 69.9456897,4.55223881 C70.8405172,5 71.7353448,5.52238806 71.7353448,6.56716418 C71.7353448,7.76119403 70.8405172,8.58208955 69.274569,8.58208955 C68.3797414,8.58208955 67.7086207,8.35820896 67.0375,7.8358209 L67.3357759,7.31343284 C68.0068966,7.76119403 68.5288793,7.98507463 69.3491379,7.98507463 C70.3185345,7.98507463 70.9896552,7.46268657 70.9896552,6.64179104 C70.9896552,5.52238806 69.7219828,5.07462687 68.8271552,4.62686567 C67.6340517,4.02985075 67.1866379,3.43283582 67.1866379,2.68656716 C67.1866379,1.56716418 68.1560345,0.895522388 69.6474138,0.895522388 C70.4676724,0.895522388 70.9896552,1.04477612 71.7353448,1.41791045 L71.5116379,2.01492537 L71.5116379,2.01492537 Z"></path>
                            <path d="M77.1043103,8.58208955 C74.9418103,8.58208955 73.3012931,7.01492537 73.3012931,4.7761194 C73.3012931,2.53731343 74.9418103,0.970149254 77.1043103,0.970149254 C79.2668103,0.970149254 80.9073276,2.53731343 80.9073276,4.7761194 C80.9073276,6.94029851 79.2668103,8.58208955 77.1043103,8.58208955 L77.1043103,8.58208955 Z M77.1043103,1.49253731 C75.3892241,1.49253731 74.0469828,2.98507463 74.0469828,4.7761194 C74.0469828,6.56716418 75.3892241,8.05970149 77.1043103,8.05970149 C78.8193966,8.05970149 80.1616379,6.56716418 80.1616379,4.7761194 C80.1616379,2.98507463 78.8193966,1.49253731 77.1043103,1.49253731 L77.1043103,1.49253731 Z"></path>
                            <path d="M83.5918103,1.56716418 L83.5918103,4.40298507 L86.425431,4.40298507 L86.425431,4.92537313 L83.5918103,4.92537313 L83.5918103,8.35820896 L82.9206897,8.35820896 L82.9206897,0.970149254 L87.0219828,0.970149254 L87.0219828,1.49253731 L83.5918103,1.49253731 L83.5918103,1.56716418 Z"></path>
                            <path d="M91.1232759,1.56716418 L91.1232759,8.35820896 L90.4521552,8.35820896 L90.4521552,1.56716418 L87.8422414,1.56716418 L87.8422414,1.04477612 L93.7331897,1.04477612 L93.7331897,1.56716418 L91.1232759,1.56716418 L91.1232759,1.56716418 Z"></path>
                            <path d="M100.966379,8.58208955 L100.593534,8.58208955 L99.0275862,4.85074627 L97.6107759,8.58208955 L97.237931,8.58208955 L94.1806034,1.11940299 L94.9262931,1.11940299 L97.4616379,7.6119403 L98.8038793,4.17910448 L97.4616379,1.04477612 L98.1327586,1.04477612 L99.1021552,3.43283582 L99.9969828,1.04477612 L100.518966,1.04477612 L99.3258621,4.02985075 L100.742672,7.46268657 L103.05431,1.04477612 L103.8,1.04477612 L100.966379,8.58208955 L100.966379,8.58208955 Z"></path>
                            <path d="M110.063793,8.43283582 L109.243534,6.19402985 L105.813362,6.19402985 L104.993103,8.43283582 L104.321983,8.43283582 L107.155603,0.895522388 L107.975862,0.895522388 L110.809483,8.43283582 L110.063793,8.43283582 L110.063793,8.43283582 Z M107.528448,1.41791045 L106.037069,5.52238806 L109.094397,5.52238806 L107.528448,1.41791045 L107.528448,1.41791045 Z"></path>
                            <path d="M116.476724,8.43283582 L114.239655,5.14925373 L113.046552,5.14925373 L113.046552,8.43283582 L112.375431,8.43283582 L112.375431,1.04477612 L114.687069,1.04477612 C116.02931,1.04477612 116.924138,1.56716418 116.924138,2.98507463 C116.924138,4.17910448 116.103879,4.92537313 114.910776,5.07462687 L117.222414,8.43283582 L116.476724,8.43283582 L116.476724,8.43283582 Z M114.388793,1.56716418 L113.046552,1.56716418 L113.046552,4.55223881 L114.463362,4.55223881 C115.581897,4.55223881 116.178448,4.02985075 116.178448,2.91044776 C116.253017,1.79104478 115.507328,1.56716418 114.388793,1.56716418 L114.388793,1.56716418 Z"></path>
                            <path d="M119.235776,8.43283582 L119.235776,1.04477612 L123.337069,1.04477612 L123.337069,1.56716418 L119.906897,1.56716418 L119.906897,4.32835821 L122.740517,4.32835821 L122.740517,4.85074627 L119.906897,4.85074627 L119.906897,7.8358209 L123.486207,7.8358209 L123.486207,8.35820896 L119.235776,8.35820896 L119.235776,8.43283582 Z"></path>
                            <path d="M133.776724,8.50746269 C133.180172,8.50746269 132.807328,8.20895522 132.359914,7.6119403 C131.539655,8.35820896 130.793966,8.50746269 129.899138,8.50746269 C128.556897,8.50746269 127.662069,7.76119403 127.662069,6.56716418 C127.662069,5.82089552 127.960345,5.29850746 129.078879,4.40298507 L129.675431,3.95522388 C129.451724,3.65671642 129.302586,3.43283582 129.153448,3.28358209 C128.706034,2.68656716 128.556897,2.31343284 128.556897,1.86567164 C128.556897,0.820895522 129.451724,0.0746268657 130.719397,0.0746268657 C131.9125,0.0746268657 132.732759,0.671641791 132.732759,1.56716418 C132.732759,2.01492537 132.359914,2.53731343 131.688793,3.05970149 L131.315948,3.35820896 L131.017672,2.98507463 L131.390517,2.68656716 C131.9125,2.31343284 132.061638,2.01492537 132.061638,1.56716418 C132.061638,0.970149254 131.465086,0.52238806 130.719397,0.52238806 C129.824569,0.52238806 129.153448,1.04477612 129.153448,1.71641791 C129.153448,2.31343284 129.600862,2.91044776 129.973707,3.35820896 L132.509052,6.64179104 C132.881897,6.11940299 132.956466,5.89552239 133.105603,5.44776119 C133.180172,5.14925373 133.32931,4.7761194 133.403879,4.40298507 L133.925862,4.40298507 C133.851293,4.92537313 133.702155,5.37313433 133.553017,5.74626866 C133.403879,6.26865672 133.180172,6.49253731 132.807328,7.08955224 C133.32931,7.76119403 133.553017,7.91044776 133.925862,7.91044776 C134.373276,7.91044776 134.671552,7.46268657 134.895259,7.01492537 L135.268103,7.23880597 C134.969828,7.98507463 134.596983,8.50746269 133.776724,8.50746269 L133.776724,8.50746269 Z M129.973707,4.40298507 L129.302586,4.92537313 C128.631466,5.44776119 128.258621,5.89552239 128.258621,6.49253731 C128.258621,7.3880597 129.00431,8.05970149 130.048276,8.05970149 C130.943103,8.05970149 131.539655,7.76119403 132.136207,7.23880597 L129.973707,4.40298507 L129.973707,4.40298507 Z"></path>
                            <path d="M142.128448,8.43283582 L139.667672,8.43283582 L139.667672,1.04477612 L142.128448,1.04477612 C144.365517,1.04477612 145.931466,2.46268657 145.931466,4.55223881 C145.931466,6.71641791 144.514655,8.43283582 142.128448,8.43283582 L142.128448,8.43283582 Z M142.053879,1.56716418 L140.413362,1.56716418 L140.413362,7.8358209 L142.053879,7.8358209 C144.14181,7.8358209 145.260345,6.49253731 145.260345,4.55223881 C145.260345,2.8358209 143.918103,1.56716418 142.053879,1.56716418 L142.053879,1.56716418 Z"></path>
                            <path d="M148.019397,8.43283582 L148.019397,1.04477612 L152.12069,1.04477612 L152.12069,1.56716418 L148.690517,1.56716418 L148.690517,4.32835821 L151.524138,4.32835821 L151.524138,4.85074627 L148.690517,4.85074627 L148.690517,7.8358209 L152.269828,7.8358209 L152.269828,8.35820896 L148.019397,8.35820896 L148.019397,8.43283582 Z"></path>
                            <path d="M158.086207,2.01492537 C157.489655,1.71641791 156.967672,1.49253731 156.221983,1.49253731 C155.252586,1.49253731 154.581466,1.94029851 154.581466,2.76119403 C154.581466,3.43283582 154.95431,3.73134328 156.520259,4.55223881 C157.415086,5 158.309914,5.52238806 158.309914,6.56716418 C158.309914,7.76119403 157.415086,8.58208955 155.849138,8.58208955 C154.95431,8.58208955 154.28319,8.35820896 153.612069,7.8358209 L153.910345,7.31343284 C154.581466,7.76119403 155.103448,7.98507463 155.923707,7.98507463 C156.893103,7.98507463 157.564224,7.46268657 157.564224,6.64179104 C157.564224,5.52238806 156.296552,5.07462687 155.401724,4.62686567 C154.208621,4.02985075 153.761207,3.43283582 153.761207,2.68656716 C153.761207,1.56716418 154.730603,0.895522388 156.221983,0.895522388 C157.042241,0.895522388 157.564224,1.04477612 158.309914,1.41791045 L158.086207,2.01492537 L158.086207,2.01492537 Z"></path>
                            <path d="M160.546983,8.43283582 L160.546983,1.04477612 L161.218103,1.04477612 L161.218103,8.43283582 L160.546983,8.43283582 L160.546983,8.43283582 Z"></path>
                            <path d="M167.25819,8.58208955 C165.021121,8.58208955 163.306034,6.94029851 163.306034,4.7761194 C163.306034,2.6119403 165.021121,0.970149254 167.332759,0.970149254 C168.227586,0.970149254 168.973276,1.11940299 169.718966,1.49253731 L169.495259,2.01492537 C168.824138,1.71641791 168.153017,1.56716418 167.481897,1.56716418 C165.468534,1.56716418 164.126293,2.8358209 164.126293,4.70149254 C164.126293,6.64179104 165.543103,8.05970149 167.631034,8.05970149 C168.078448,8.05970149 168.525862,7.98507463 169.196983,7.8358209 L169.196983,5.37313433 L169.868103,5.37313433 L169.868103,8.28358209 C168.898707,8.43283582 168.078448,8.58208955 167.25819,8.58208955 L167.25819,8.58208955 Z"></path>
                            <path d="M177.623276,8.50746269 L172.925431,1.86567164 L172.925431,8.50746269 L172.25431,8.50746269 L172.25431,1.11940299 L173.223707,1.11940299 L177.772414,7.68656716 L177.772414,1.11940299 L178.443534,1.11940299 L178.443534,8.50746269 L177.623276,8.50746269 L177.623276,8.50746269 Z"></path>
                        </g>
                    </g>
                </g>
            </g>
        </g>
    </g>
</svg>