<svg xmlns="http://www.w3.org/2000/svg">
  <symbol id="coffeescript" viewBox="0 0 100 100">
    <title>CoffeeScript</title>
    <circle fill="#28334c" cx="50" cy="50" r="50"/>
    <path fill="#fff" d="M27.251 51.734c-.298.277-.58.583-.847.919-1.204 1.754-1.656 3.758-1.204 5.914.3 2.305 1.555 4.21 3.412 5.563 1.706 1.353 3.412 2.004 5.42 2.004-.954.301-2.008.802-2.961.953-2.459.45-4.617 0-6.624-1.554-1.907-1.554-3.111-3.558-3.262-6.014-.15-2.456.603-4.962 2.309-7.117.906-1.145 1.897-2.035 2.988-2.693a43.67 43.67 0 0 1-2.035-8.133c.803 1.253 3.111 2.456 7.427 3.559 4.817 1.052 10.99 1.854 18.566 1.854 7.427 0 13.6-.752 18.417-1.854 4.164-.952 6.473-2.155 7.476-3.559-.953 5.463-2.66 10.575-5.118 15.036-1.857 2.807-3.713 5.262-5.57 7.919a18.859 18.859 0 0 0-1.556 4.66h-.15c-1.255 1.705-2.96 2.757-4.968 3.409-2.71.902-5.67 1.353-8.48 1.203h-.301c-2.81.15-5.57-.251-8.23-1.203-2.158-.602-3.914-1.704-5.118-3.408a19.432 19.432 0 0 0-1.706-4.661c-1.857-2.657-3.714-5.112-5.57-7.92a47.921 47.921 0 0 1-2.315-4.877zm15.813-20.282c.05.301-.1.552-.602.802-.653-.35-2.058-.551-3.212-.45-1.254.1-2.308.5-2.157 1.352.2.852 1.405 1.354 3.562 1.153 5.27-.45 5.219-4.01 12.947-4.711 6.021-.551 9.383 1.303 9.835 3.558.351 1.755-1.104 3.459-5.47 3.81-3.863.35-6.122-.702-6.322-1.755-.1-.551.2-1.353 2.057-1.553.2.852 1.255 1.754 3.764 1.503 1.806-.15 3.312-.802 3.11-1.804-.2-1.053-2.107-1.654-5.118-1.403-6.122.55-7.627 3.909-12.846 4.36-3.713.35-6.724-1.002-7.125-3.007-.15-.752-.15-2.506 3.763-2.857 2.007-.15 3.613.2 3.814 1.002zm7.326 9.373c-6.473 0-12.244-.652-16.409-1.554-4.466-1.103-6.824-2.306-6.824-3.86 0-.65.301-1.202 1.204-1.854-2.81 1.103-4.315 2.005-4.315 3.408.15 1.554 2.66 3.108 7.778 4.31 4.817 1.203 10.99 1.855 18.416 1.855 7.577 0 13.599-.652 18.416-1.854 5.118-1.203 7.577-2.807 7.577-4.31 0-1.103-1.104-2.156-3.111-2.958.451.301.803.802.803 1.354 0 1.553-2.309 2.806-6.975 3.859-4.316.952-9.836 1.604-16.56 1.604z"/>
  </symbol>

  <symbol id="elixir" viewBox="0 0 100 100">
    <title>Elixir</title>
    <g fill="none" fill-rule="evenodd">
      <circle fill="#4e2a8e" fill-rule="nonzero" cx="50" cy="50" r="50"/>
      <path stroke="#fff" stroke-width="4" stroke-linecap="round" stroke-linejoin="round" d="M31.099 55.337A18.947 18.947 0 0 0 31 57.27C31 67.615 39.385 76 49.73 76c10.343 0 18.728-8.385 18.728-18.73a18.67 18.67 0 0 0-5.413-13.17C48.298 27.348 51.038 18 51.038 18s-18.522 9.857-19.94 37.337z"/>
    </g>
  </symbol>

  <symbol id="github" viewBox="0 0 32 32">
    <title>GitHub</title>
    <path d="M15.999 0C7.164 0 0 7.345 0 16.405c0 7.248 4.584 13.397 10.942 15.566.8.151 1.092-.356 1.092-.79 0-.39-.013-1.422-.021-2.79-4.45.99-5.39-2.2-5.39-2.2-.728-1.895-1.777-2.4-1.777-2.4-1.452-1.017.11-.997.11-.997 1.606.116 2.451 1.691 2.451 1.691 1.427 2.507 3.745 1.783 4.657 1.363.145-1.06.559-1.783 1.015-2.193-3.552-.413-7.288-1.821-7.288-8.108 0-1.79.624-3.256 1.647-4.402-.165-.415-.714-2.083.158-4.341 0 0 1.342-.441 4.399 1.682A14.97 14.97 0 0 1 16 7.933c1.36.007 2.728.188 4.006.553 3.055-2.123 4.395-1.682 4.395-1.682.874 2.258.325 3.926.16 4.341 1.026 1.146 1.645 2.612 1.645 4.402 0 6.303-3.741 7.69-7.305 8.095.574.507 1.085 1.508 1.085 3.039 0 2.192-.02 3.962-.02 4.5 0 .438.29.949 1.1.789C27.42 29.796 32 23.65 32 16.405 32 7.345 24.836 0 15.999 0"/>
  </symbol>

  <symbol id="hound" viewBox="0 0 217 50">
    <title>Hound</title>
    <path d="M38.658 48.636H1.56c-.698 0-1.263-.564-1.263-1.26V1.88c0-.695.565-1.26 1.263-1.26h45.627c.698 0 1.263.564 1.263 1.26v19.776c-.183-.564-2.325-7.02-5.637-10.3C39.35 7.92 33.066 5.113 34 7.37c.935 2.256.935 8.134.935 8.134l-9.406 3.65-1.412 5.306-11.512 3.087s.82 5.97 4.13 7.015c2.122.67 16.034 2.23 16.034 2.23l-2.64 11.84h8.528zM66.06.483h6.962v20.76h8.6V.484h6.963v48.464h-6.963V27.37h-8.6v21.577H66.06V.483zM97.41 11.918c0-1.95.342-3.675 1.024-5.173.683-1.497 1.582-2.734 2.697-3.71 1.114-.975 2.366-1.712 3.754-2.212 1.388-.5 2.787-.748 4.198-.748 1.41 0 2.81.25 4.198.748 1.388.5 2.64 1.237 3.754 2.213 1.115.975 2.014 2.212 2.696 3.71.683 1.497 1.024 3.22 1.024 5.172v25.594c0 1.996-.34 3.732-1.024 5.207-.682 1.474-1.58 2.7-2.696 3.674-1.115.976-2.366 1.713-3.754 2.213s-2.787.748-4.198.748c-1.41 0-2.81-.25-4.198-.748-1.388-.5-2.64-1.237-3.754-2.213-1.115-.975-2.014-2.2-2.697-3.675-.682-1.476-1.024-3.212-1.024-5.208V11.918zm6.963 25.594c0 1.68.466 2.915 1.4 3.71.932.793 2.036 1.19 3.31 1.19s2.378-.397 3.31-1.19c.933-.795 1.4-2.03 1.4-3.71V11.918c0-1.68-.467-2.915-1.4-3.71-.932-.793-2.036-1.19-3.31-1.19s-2.378.397-3.31 1.19c-.934.795-1.4 2.03-1.4 3.71v25.594zm47.736.544c0 1.588-.295 3.063-.887 4.425-.59 1.362-1.4 2.553-2.423 3.574-1.024 1.02-2.218 1.827-3.584 2.417-1.365.59-2.82.885-4.368.885-1.547 0-3.004-.295-4.37-.884-1.364-.59-2.56-1.395-3.583-2.416-1.023-1.02-1.83-2.212-2.423-3.573-.59-1.36-.887-2.836-.887-4.424V.483h6.962v36.893c0 1.724.41 2.995 1.23 3.81.818.818 1.842 1.227 3.07 1.227 1.23 0 2.253-.41 3.072-1.226.82-.816 1.228-2.087 1.228-3.81V.482h6.963v37.573zM161.076.483h6.69l10.51 29.2h.138V.484h6.962v48.464h-6.553l-10.648-29.133h-.137v29.133h-6.962V.483zm33.264 0h10.307c3.96 0 6.985 1.1 9.078 3.3 2.094 2.202 3.14 5.277 3.14 9.224v22.667c0 4.538-1.103 7.884-3.31 10.04-2.208 2.155-5.382 3.233-9.523 3.233h-9.693V.483zm6.962 41.93h3.208c1.957 0 3.345-.488 4.164-1.464.82-.977 1.23-2.508 1.23-4.595V13.007c0-1.905-.388-3.38-1.162-4.424-.773-1.044-2.184-1.565-4.232-1.565h-3.208v35.395z"/>
  </symbol>

  <symbol id="javascript" viewBox="0 0 100 100">
    <title>JavaScript</title>
    <circle fill="#f0db4f" cx="50" cy="50" r="50"/>
    <path fill="#fff" stroke="#ddc41c" stroke-width="1.89" d="M25 25h50v50H25z"/>
    <path fill="#ddc41c" d="M45.115 64.884c.705.152 1.91 0 2.428-1.275.402-.99.233-4.137.217-7.36-.023-4.434 0-9.08 0-9.08h4.537v14.904s-.092 2.86-1.408 4.554c-1.31 1.684-3.835 2.2-5.435 2.216-5.05.05-6.445-3.96-6.445-3.96l3.593-2.226s1.034 1.907 2.512 2.226zM64.198 52.782l3.69-2.314s-1.66-4.267-8.08-3.294c-6.417.973-4.448 8.273-4.448 8.273s.275 2.49 6.636 4.8c3.765 1.37 2.727 3.936 1.204 4.53-3.92 1.527-5.87-2.333-5.87-2.333l-3.62 2.03s1.318 3.935 6.862 4.427c2.522.224 3.996-.185 5.51-.91.846-.406 2.616-1.885 2.738-4.338.044-.9.13-2.36-.266-3.404-.454-1.194-1.427-1.936-1.916-2.312-2.08-1.598-4.642-2.49-4.642-2.49s-4.688-1.87-1.856-4.173c1.856-1.51 4.058 1.51 4.058 1.51z"/>
  </symbol>

  <symbol id="ruby" viewBox="0 0 100 100">
    <title>Ruby</title>
    <circle fill="#ee5c5c" cx="50" cy="50" r="50"/>
    <g fill="#fff" stroke="#c33a3a" stroke-width="2">
      <path d="M11.918 44.815l37.54 35.672L88.01 44.82l-16.1-14.58H27.856L11.918 44.815z"/>
      <path d="M27.365 45.068L49.44 79.01l21.195-33.94m-57.873.097h74.45"/>
      <path d="M28.095 30.64l.744 15.01L48.73 30.64l20.36 15.01 2.82-15.01"/>
    </g>
  </symbol>

  <symbol id="sass" viewBox="0 0 100 100">
    <title>Sass</title>
    <circle fill="#c69" cx="50" cy="50" r="50"/>
    <path fill="#fff" d="M43.128 62.213c.504 1.887.45 3.646-.072 5.24-.057.176-.12.35-.19.524-.07.173-.144.344-.224.512-.402.842-.94 1.632-1.6 2.36-2.01 2.222-4.822 3.062-6.028 2.354-1.3-.764-.65-3.897 1.683-6.393 2.51-2.685 6.12-4.41 6.12-4.41l-.005-.012c.104-.057.21-.115.316-.175zm28.6-31.73c-1.567-6.225-11.764-8.272-21.414-4.8-5.744 2.065-11.96 5.307-16.432 9.54-5.315 5.034-6.163 9.415-5.813 11.246 1.23 6.46 9.973 10.68 13.567 13.814v.02c-1.06.527-8.816 4.5-10.63 8.563-1.916 4.287.304 7.362 1.774 7.776 4.555 1.283 9.228-1.024 11.74-4.817 2.423-3.66 2.22-8.386 1.168-10.737 1.453-.39 3.146-.563 5.3-.308 6.073.718 7.265 4.558 7.037 6.164-.228 1.607-1.502 2.49-1.928 2.758-.426.267-.556.36-.52.557.05.29.25.28.612.217.5-.086 3.188-1.308 3.303-4.274.147-3.766-3.418-7.98-9.73-7.87-2.6.047-4.234.297-5.415.742-.087-.1-.176-.2-.268-.3-3.902-4.215-11.116-7.197-10.81-12.864.11-2.06.82-7.483 13.86-14.063 10.686-5.39 19.24-3.907 20.717-.62 2.11 4.697-4.57 13.425-15.667 14.684-4.227.48-6.453-1.178-7.007-1.795-.583-.65-.67-.68-.887-.558-.355.2-.13.773 0 1.115.33.873 1.69 2.42 4.008 3.19 2.04.68 7.002 1.05 13.005-1.3 6.72-2.633 11.97-9.956 10.43-16.078z"/>
  </symbol>

  <symbol id="typescript" viewBox="0 0 100 100">
    <title>TypeScript</title>
    <circle fill="#178fcf" fill-rule="nonzero" cx="50" cy="50" r="50"/>
    <g fill="#fff">
      <path fill-rule="nonzero" d="M50.7 36.1H39.6v34.3h-4.5V36.1H24V32h26.6v4.1z"/>
      <path d="M54 68.7v-3c2.8 1.8 5.5 2.6 8.4 2.6 3 0 5.3-.6 6.8-1.9 1.6-1.2 2.3-3 2.3-5.2 0-2-.5-3.5-1.6-4.7-1-1.2-3.3-2.8-6.8-4.8-3.9-2.3-6.4-4.2-7.4-5.7s-1.6-3.3-1.6-5.3c0-2.7 1.1-5 3.2-6.9 2.1-1.9 4.9-2.8 8.4-2.8 2.3 0 4.6.4 6.9 1.2V35c-2.3-1-4.7-1.5-7.2-1.5-2.6 0-4.7.7-6.2 2s-2.3 3-2.3 5 .5 3.5 1.6 4.7c1 1.2 3.3 2.7 6.8 4.7 3.6 2 6 3.8 7.2 5.4 1.2 1.6 1.8 3.4 1.8 5.5 0 2.9-1 5.3-3.1 7.2-2 1.9-4.9 2.8-8.7 2.8-1.3 0-2.8-.2-4.6-.6-1.6-.5-2.9-1-3.9-1.5z"/>
    </g>
  </symbol>
</svg>
