<svg xmlns="http://www.w3.org/2000/svg" xmlns:xlink="http://www.w3.org/1999/xlink">
  <symbol id="coffeescript" viewBox="0 0 100 100">
    <title>CoffeeScript</title>
    <circle fill="#28334c" cx="50" cy="50" r="50"/>
    <path fill="#fff" d="M27.251 51.734c-.298.277-.58.583-.847.919-1.204 1.754-1.656 3.758-1.204 5.914.3 2.305 1.555 4.21 3.412 5.563 1.706 1.353 3.412 2.004 5.42 2.004-.954.301-2.008.802-2.961.953-2.459.45-4.617 0-6.624-1.554-1.907-1.554-3.111-3.558-3.262-6.014-.15-2.456.603-4.962 2.309-7.117.906-1.145 1.897-2.035 2.988-2.693a43.67 43.67 0 0 1-2.035-8.133c.803 1.253 3.111 2.456 7.427 3.559 4.817 1.052 10.99 1.854 18.566 1.854 7.427 0 13.6-.752 18.417-1.854 4.164-.952 6.473-2.155 7.476-3.559-.953 5.463-2.66 10.575-5.118 15.036-1.857 2.807-3.713 5.262-5.57 7.919a18.859 18.859 0 0 0-1.556 4.66h-.15c-1.255 1.705-2.96 2.757-4.968 3.409-2.71.902-5.67 1.353-8.48 1.203h-.301c-2.81.15-5.57-.251-8.23-1.203-2.158-.602-3.914-1.704-5.118-3.408a19.432 19.432 0 0 0-1.706-4.661c-1.857-2.657-3.714-5.112-5.57-7.92a47.921 47.921 0 0 1-2.315-4.877zm15.813-20.282c.05.301-.1.552-.602.802-.653-.35-2.058-.551-3.212-.45-1.254.1-2.308.5-2.157 1.352.2.852 1.405 1.354 3.562 1.153 5.27-.45 5.219-4.01 12.947-4.711 6.021-.551 9.383 1.303 9.835 3.558.351 1.755-1.104 3.459-5.47 3.81-3.863.35-6.122-.702-6.322-1.755-.1-.551.2-1.353 2.057-1.553.2.852 1.255 1.754 3.764 1.503 1.806-.15 3.312-.802 3.11-1.804-.2-1.053-2.107-1.654-5.118-1.403-6.122.55-7.627 3.909-12.846 4.36-3.713.35-6.724-1.002-7.125-3.007-.15-.752-.15-2.506 3.763-2.857 2.007-.15 3.613.2 3.814 1.002zm7.326 9.373c-6.473 0-12.244-.652-16.409-1.554-4.466-1.103-6.824-2.306-6.824-3.86 0-.65.301-1.202 1.204-1.854-2.81 1.103-4.315 2.005-4.315 3.408.15 1.554 2.66 3.108 7.778 4.31 4.817 1.203 10.99 1.855 18.416 1.855 7.577 0 13.599-.652 18.416-1.854 5.118-1.203 7.577-2.807 7.577-4.31 0-1.103-1.104-2.156-3.111-2.958.451.301.803.802.803 1.354 0 1.553-2.309 2.806-6.975 3.859-4.316.952-9.836 1.604-16.56 1.604z"/>
  </symbol>

  <symbol id="elixir" viewBox="0 0 100 100">
    <title>Elixir</title>
    <g fill="none" fill-rule="evenodd">
      <circle fill="#4e2a8e" fill-rule="nonzero" cx="50" cy="50" r="50"/>
      <path stroke="#fff" stroke-width="4" stroke-linecap="round" stroke-linejoin="round" d="M31.099 55.337A18.947 18.947 0 0 0 31 57.27C31 67.615 39.385 76 49.73 76c10.343 0 18.728-8.385 18.728-18.73a18.67 18.67 0 0 0-5.413-13.17C48.298 27.348 51.038 18 51.038 18s-18.522 9.857-19.94 37.337z"/>
    </g>
  </symbol>

  <symbol id="github" viewBox="0 0 32 32">
    <title>GitHub</title>
    <path d="M15.999 0C7.164 0 0 7.345 0 16.405c0 7.248 4.584 13.397 10.942 15.566.8.151 1.092-.356 1.092-.79 0-.39-.013-1.422-.021-2.79-4.45.99-5.39-2.2-5.39-2.2-.728-1.895-1.777-2.4-1.777-2.4-1.452-1.017.11-.997.11-.997 1.606.116 2.451 1.691 2.451 1.691 1.427 2.507 3.745 1.783 4.657 1.363.145-1.06.559-1.783 1.015-2.193-3.552-.413-7.288-1.821-7.288-8.108 0-1.79.624-3.256 1.647-4.402-.165-.415-.714-2.083.158-4.341 0 0 1.342-.441 4.399 1.682A14.97 14.97 0 0 1 16 7.933c1.36.007 2.728.188 4.006.553 3.055-2.123 4.395-1.682 4.395-1.682.874 2.258.325 3.926.16 4.341 1.026 1.146 1.645 2.612 1.645 4.402 0 6.303-3.741 7.69-7.305 8.095.574.507 1.085 1.508 1.085 3.039 0 2.192-.02 3.962-.02 4.5 0 .438.29.949 1.1.789C27.42 29.796 32 23.65 32 16.405 32 7.345 24.836 0 15.999 0"/>
  </symbol>

  <symbol id="haml" viewBox="0 0 100 100">
    <title>Haml</title>
    <defs>
      <ellipse id="a" cx="50" cy="50.5" rx="50" ry="50"/>
    </defs>
    <g fill="none" fill-rule="evenodd">
      <mask id="b" fill="#fff">
        <use xlink:href="#a"/>
      </mask>
      <use fill="#EBE1A8" xlink:href="#a"/>
      <g mask="url(#b)">
        <path d="M59.105 28.76l.61-.59c.1-.01.202-.02.304-.028 1.4-.095 2.13-1.515 3.47-1.727 1.402-1.077 2.75-.7 4.127.09 1.34.77 2.692 1.517 3.86 2.532.47.41 1.34.822.964 1.55-.42.815-1.18-.03-1.793.01-1.663-.128-2.956-1.116-4.357-1.852-.365-.19-.694-.48-1.112-.53-.754-.086-1.36.292-1.645.913-.26.57.427.706.767.972 1.167.91 2.617 1.468 3.487 2.75.73.974 1.365.39 2.017-.112.24-.186.603-.392.805-.118.19.26-.154.533-.32.777-.41.178-.534.476-.645.925-.273 1.105-.683 2.218-2.214 1.935-.502-.093-.775.21-1.088.46-.485.387-.893.904-1.43 1.18-1.9.98-2.482 2.712-2.894 4.607-.54 2.48.09 3.642 2.552 4.456 3.525 1.166 6.482 3.085 8.478 6.285.66 1.07.76 2.186.284 3.35-.463.97-.915 2.028-1.95 2.463-1.49.627-1.272 2.03-1.69 3.15-.24.29-.127.84-.676.897-.88.698-1.66 1.536-2.76 1.92-1.347.38-2.695.246-4.044-.003-1.342.32-2.153-1.01-3.372-1.07-.44-1.048-.01-1.833.763-2.514.155-.02.306 0 .45.064.29 1.62 1.43 1.855 2.838 1.823 1.458-.034 2.893-.035 4.06-1.08.495-.446 1.014-.85.754-1.678-.237-.753.417-1.066.894-1.44.41-.428.6-.885.19-1.423a.606.606 0 0 1-.162-.37c.733-1.2.774-1.2 1.92.03 1.252-1.208 1.268-2.513.018-4.01-1.467-1.754-3.363-2.875-5.52-3.59-.492-.163-.996-.287-1.49-.443-3.27-1.033-4.41-2.583-4.41-6.21-.863.51-1.562 1.078-2.255 1.642-1.848 1.503-3.813 2.845-5.752 4.223-.574.408-1.153.924-1.974.652a.66.66 0 0 1-.232-.365c.555-1.61 2.126-2.275 3.23-3.366 1.2-1.187 2.632-2.132 3.812-3.353.465-.392.704-1.042 1.372-1.203.472.168.55-.333.83-.493 2.165-1.465 4.116-3.206 6.23-4.732.84-.605.49-.928-.12-1.313-1.368-1.094-2.425-2.544-3.976-3.425-.696 0-1.445.155-1.88-.62-.262-.6.345-.98.383-1.505.04-.2.13-.37.292-.493z" fill="#9C9151"/>
        <path d="M68.738 57.55l.376.022c.226.48-.072.893-.178 1.33-1.567 1.656-3.5 1.466-5.433.973-1.07-.274-1.907-.53-2.068 1.014-.077.74-.687.944-1.398.695l-.36-.015c-3.8-.64-7.472-1.616-10.656-4.196-.655 1.486-.64 3.03-.99 4.485-.223.927-.072 1.968-.817 2.743-.635 3.072-1.363 6.128-1.576 9.27-.61 1.546-.717 3.202-.998 4.813-.168.958-.677 1.346-1.505 1.44-2.2.254-4.403.373-6.53-.47-.13-.66.373-.703.804-.816.26-.035.522-.015.78.035 1.108.29 2.217.37 3.32-.024 1.048-.245 1.51-.925 1.66-1.966.187-1.272.522-2.523.53-3.823.003-.162.02-.322.048-.483.477-2.005.927-4.015 1.172-6.063.172-1.778 1.03-3.5.435-5.338-.046-.24-.042-.48.007-.72.037-.15.105-.29.198-.414.61-.29.635-.878.73-1.43.494-2.886 1.136-5.746 1.628-8.634.125-.383.367-.67.723-.86a.64.64 0 0 1 .45.006c.026.16.05.32.075.482.527.56.49 1.278.344 1.903-.395 1.675.442 2.813 1.61 3.74 2.292 1.825 4.955 2.98 7.703 3.955.837.297 1.38-.006 1.835-.693.495-.746 1.263-1.29 2.11-.96 2.022.783 3.98.788 5.97 0zM26.925 21.927a.372.372 0 0 0 .02-.274c2.433-1.435 5.14-1.723 7.884-1.842.513-.02.78.335.962.833.44 1.21.708 2.52 2.128 3.138.537.235.57.93.466 1.52-.636.78.192 1.265.418 1.847.305.786.744 1.522 1.125 2.28.798.484.705 1.42 1.083 2.117 1.34 2.894 2.68 5.788 4.018 8.683.126.105.178.24.168.4-.117.44-.14.973-.838.838-1.267-2.282-2.53-4.572-3.702-6.904-1.15-2.29-2.418-4.522-3.527-6.836-.455-.952-1-1.87-2.345-1.37-1.616.307-3.204.715-4.75 1.28-.426.11-.85.156-1.257-.077-.842.286-1.555.157-1.85-.76-.258-.798-1.33-1.668.15-2.427.492-.252-.012-.716-.045-1.084.04-.104.13-.23.18-.206 1.986 1.002 4.043.472 6.08.288.42-.078 1.13.178 1.187-.33.078-.704-.802-.596-1.23-.895-.302-.18-.48-.49-.746-.71-1.744-.268-3.305.37-4.876.963-.34-.002-.588-.137-.703-.47z" fill="#9C9151"/>
        <path d="M67.786 32.85c-1.54-1.008-3.072-2.032-4.627-3.016-.512-.322-.62-.542-.15-1.026.99-1.022 1.835-1.712 3.327-.557 1.276.99 2.862 1.58 4.31 2.347-1.667-.143-2.215 1.117-2.86 2.253z" fill="#FFF"/>
        <path d="M37.684 79.178c-.397.074-.848.03-1.078.477-1.527-.47-3.032-.99-4.315-1.984-.06-.306.132-.434.378-.526 1.76.462 3.58.783 5.016 2.034z" fill="#9C9151"/>
        <path d="M32.66 77.337l-.37.334c-1.396-.6-2.032-1.554-1.25-3.005.305-.565-.21-1.204.292-1.69.283-.032.55-.09.663-.4.345.31.44.743.314 1.122-.425 1.278-.233 2.47.35 3.64z" fill="#9C9151"/>
        <path d="M73.33 56.595c.29-1.15.106-2.258-.284-3.35.983 1.042.976 2.168.284 3.35zM41.012 31.543l-1.084-2.117c1.2.282 1.097 1.223 1.084 2.117z" fill="#EBE1A8"/>
        <path d="M32.66 77.337c-1.16-.71-1.602-1.605-.966-2.946.252-.53.21-1.2.3-1.81l.293-.61c.218-2.157 1-4.173 1.6-6.234 1.627-5.578 3.477-11.09 4.893-16.73.306-1.22.278-2.183-.645-3.36-1.43-1.822-1.972-4.155-2.234-6.487-.027-1.014-.01-2.027-.016-3.04.148-2.184-1.106-3.934-1.842-5.846-.195-.766-.84-1.35-.905-2.17-.005-.512-.026-1.082.552-1.29.578-.21.936.24 1.257.64.322.4.662.767 1.19.893 1.523.937 1.905 2.665 2.612 4.08 1.33 2.663 3.024 5.132 4.187 7.877.334.787 1.08 1.234 1.553 1.903.062.144.02.305.046.445.063.32.162-.01.183-.026 4.62-3.494 9.163-7.082 13.76-10.606.57-.438 1.265-.667 1.867-1.055 1.518 1.037 3.038 2.07 4.02 3.683-.082.574-.538.79-.982 1.02-.716.39-1.358.88-1.955 1.433-1.56 1.19-2.343 3.09-3.945 4.237l-1.122 1.48c-1.58.572-2.53 1.974-3.84 2.91-1.155.824-2.054 1.986-3.33 2.688-.29.16-.358.478-.392.79-.107.305-.342.482-.625.61-.99 1.014-.85 2.358-1.065 3.6-.31 1.788-.3 3.646-1.147 5.32-.42.294-.647.092-.798-.308-.232-.615-.393-1.258-.668-1.698.377 1.12 1.083 2.294 1.154 3.666.008.19.015.38.02.572.175 2.21-.483 4.24-1.346 6.23-.812.884-1.853 1.667-1.387 3.113.056.356.067.712.043 1.07-.374 1.084.155 1.523 1.17 1.62.105 1.767-.56 3.43-.7 5.17-.09 1.115-1.186.753-1.816 1.078-1.144.21-2.288.23-3.43-.015l-.52-.054c-1.717-.502-3.432-1.004-5.023-1.843z" fill="#FFF"/>
        <path d="M60.347 30.965c-5.412 4.475-11.01 8.71-16.782 12.908-.16-.91.863-.875.808-1.514.03-.314-.36-.73.223-.907l.41-.913c.244.525.39 1.12 1.166.433 2.854-2.526 5.743-5.012 8.62-7.513l3.65-2.854c.54.627 1.3.082 1.905.36z" fill="#9C9151"/>
        <path d="M64.368 34.648c.65-.084 1.04.35 1.687.824-1.395.867-2.628 1.9-3.87 2.9-1.27 1.023-2.548 2.012-4.016 2.75.493-1.818 2.06-2.807 3.218-4.11.6-.573 1.325-1.02 1.773-1.745.538.052.815-.395 1.208-.62zM48.8 49.205c-.57-.67-.093-.892.436-1.258 2.045-1.416 3.968-2.978 5.617-4.86.33-.376.92-.662 1.51-.27l-7.27 6.307a.575.575 0 0 0-.292.08z" fill="#FFF"/>
        <path d="M61.566 37.113c-1.016 1.434-2.535 2.447-3.396 4.01-.172.25-.273.723-.684.213.952-1.763 2.23-3.257 3.79-4.516.14.056.234.155.29.293z" fill="#9C9151"/>
        <path d="M71.332 29.93c-1.754-.413-3.194-1.306-4.406-2.58 1.747.39 3.088 1.488 4.406 2.58zM45.672 58.8c.78-2.548.86-5.208 1.247-7.818.12-.82.413-1.226 1.255-1.168.26 1.3-.31 2.497-.495 3.74-.313 2.084-.76 4.15-1.144 6.225-.123.67-.396.74-.843.237-.23-.402-.323-.806-.02-1.217zm-3.108 12.52v-.896c-.006-1.39.464-2.506 1.817-3.113.293-.282.368-.832.947-.766-.363 2.065-.447 4.185-1.22 6.17-1.61.735-1.208-.73-1.543-1.393z" fill="#FFF"/>
        <path d="M45.326 66.544l-.61.94c-.31.104-.483-.045-.588-.317-.15-1.526.957-2.7 1.187-4.143.107-.676-.717-1.56.357-2.058.86 1.21.16 2.433.016 3.646-.078.65-.24 1.29-.362 1.932z" fill="#FFF"/>
        <path d="M45.672 58.8l.02 1.217-.04.377c-.594-1.526-1.188-3.05-1.78-4.578 1.22.656 1.122 2.04 1.8 2.984z" fill="#9C9151"/>
        <path d="M42.564 71.32c.338.66.382 1.638 1.544 1.396.06.087.075.18.042.282-1.606.447-1.983.048-1.586-1.677z" fill="#928A59"/>
        <path fill="#4C491C" d="M38.205 79.232l3.43.015c-1.146.47-2.29.492-3.43-.015z"/>
        <path d="M36.35 39.286c.46 1.788.655 3.667 1.66 5.275.338.54.118 1.64 1.37 1.425.243-.042.307.617.255.964-.13.863-.264 1.733-.492 2.574-2.047 7.554-4.3 15.047-6.857 22.447-.727-.786-.087-1.595.09-2.3 1.69-6.795 3.252-13.624 5.288-20.328.3-.986.158-1.75-.245-2.636-2.905-6.373-5.767-12.764-8.643-19.15.318-.166.64-.27.972-.033 1.273.608 1.342 2.054 2.123 3.006.192.384.202.836.45 1.2.5 1.085.87 2.237 1.69 3.153.388 1.54 1.5 2.802 1.722 4.408.028.204.125.33.085.13-.015-.073.11-.16.2-.224a.284.284 0 0 1 .33.09z" fill="#9C9151"/>
        <path d="M33.533 23.755c-1.075.117-2.148.244-3.223.345-1.085.102-2.297.547-2.856-.95-.002-.005-.274.088-.42.136a122 122 0 0 1-.358-.727 20.943 20.943 0 0 1 5.696-.642c.715.407 1.536.75 1.16 1.837z" fill="#FFF"/>
        <path d="M32.577 22.222c-1.968.09-3.903.75-5.9.337-.048-.262-.135-.54.248-.633l.745.3c1.71-.55 3.473-.87 5.235-1.19l.307.847c-.106.31-.353.356-.635.338z" fill="#9C9151"/>
        <path d="M31.656 30.66c-1.013-.82-1.13-2.175-1.906-3.137 1.508-1.066 3.315-1.18 5.037-1.565 1.014.668 1.624 1.515 1.255 2.795-.695-.017-1.032-.546-1.428-.988-.244-.273-.316-.877-.837-.65-.426.187-.19.717-.274 1.088-.242.962.765 1.478.84 2.33.912 1.784 1.7 3.606 1.833 5.64-.056 1.038.13 2.082-.11 3.112-.188.126-.162.75-.272.5-.707-1.59-1.91-3.003-1.942-4.858-.176-.305-.147-.658-.234-.986-.16-1.386-1.39-2.14-1.962-3.28z" fill="#FFF"/>
        <path d="M36.042 28.753c-.215-1.022-.843-1.86-1.255-2.794 1.114-.643 1.77-.39 2.374.82 2.225 4.45 4.57 8.843 6.858 13.262.233.45.387.94.578 1.412.162.36.112.667-.223.905-1.167-.508-1.652-1.492-2.187-2.598-1.34-2.767-2.832-5.47-4.414-8.11-.576-.964-.645-2.24-1.73-2.9zm-3.137-7.717c-1.63.893-3.397 1.198-5.235 1.19 1.543-1.275 3.353-1.392 5.235-1.19zm-.328 1.186c.092-.334.408-.254.635-.338.514.185 1.185-.34 1.578.274.267.418.787.966.487 1.377-.383.522-1.143.21-1.744.22-.025-.692-.736-.96-.956-1.533z" fill="#FFF"/>
        <path d="M35.98 35.89c-.407-1.92-1.114-3.74-1.856-5.55-.156-.33.02-.36.284-.31.865 1.878 1.915 3.697 1.924 5.85-.112.184-.23.187-.352.01zm4.972 34.965c.005 1.72.14 3.426.642 5.092-1.226-2.027-1.426-4.19-.963-6.444.456.37.056.938.322 1.352zm3.176-3.688l.588.316c-1.55.38-1.66 1.8-2.153 2.94-.483-1.4.002-2.41 1.565-3.256z" fill="#9C9151"/>
        <path d="M40.952 70.855c-.372-.39-.193-.907-.32-1.352-.103-.883.315-1.6.745-2.312.263-.037.417.027.316.332-.534 1.048-.67 2.184-.74 3.333zm20.614-33.742l-.29-.292c.488-.685 1.185-1.12 1.885-1.553.004 1.07-1.032 1.256-1.594 1.846z" fill="#9C9151"/>
        <path d="M34.41 30.03l-.285.31c-.382-.652-.9-1.265-1.11-1.968-.274-.91.29-.18.49-.17.3.61.602 1.22.904 1.83z" fill="#867B52"/>
        <path d="M41.693 67.522l-.316-.33c.316-.74.925-1.143 1.758-1.333-.48.553-.96 1.108-1.442 1.662z" fill="#877F4C"/>
        <path fill="#443C0E" d="M35.98 35.89l.352-.008.02 3.404c-.095 0-.19 0-.286-.002-.2-1.127-.153-2.26-.086-3.393z"/>
        <path d="M33.845 34.072c.197.284.252.568.007.855-1.285-.63-1.24-2.098-1.964-3.08.07-.505.378-.393.612-.182.717.647 1.26 1.405 1.345 2.407z" fill="#FFF"/>
        <path d="M33.845 34.072c-.675-.722-.583-2.11-1.956-2.226-.377-.338-.214-.78-.234-1.187 1.143.875 2.524 1.6 2.19 3.412z" fill="#9C9151"/>
      </g>
    </g>
  </symbol>

  <symbol id="hound" viewBox="0 0 217 50">
    <title>Hound</title>
    <path d="M38.658 48.636H1.56c-.698 0-1.263-.564-1.263-1.26V1.88c0-.695.565-1.26 1.263-1.26h45.627c.698 0 1.263.564 1.263 1.26v19.776c-.183-.564-2.325-7.02-5.637-10.3C39.35 7.92 33.066 5.113 34 7.37c.935 2.256.935 8.134.935 8.134l-9.406 3.65-1.412 5.306-11.512 3.087s.82 5.97 4.13 7.015c2.122.67 16.034 2.23 16.034 2.23l-2.64 11.84h8.528zM66.06.483h6.962v20.76h8.6V.484h6.963v48.464h-6.963V27.37h-8.6v21.577H66.06V.483zM97.41 11.918c0-1.95.342-3.675 1.024-5.173.683-1.497 1.582-2.734 2.697-3.71 1.114-.975 2.366-1.712 3.754-2.212 1.388-.5 2.787-.748 4.198-.748 1.41 0 2.81.25 4.198.748 1.388.5 2.64 1.237 3.754 2.213 1.115.975 2.014 2.212 2.696 3.71.683 1.497 1.024 3.22 1.024 5.172v25.594c0 1.996-.34 3.732-1.024 5.207-.682 1.474-1.58 2.7-2.696 3.674-1.115.976-2.366 1.713-3.754 2.213s-2.787.748-4.198.748c-1.41 0-2.81-.25-4.198-.748-1.388-.5-2.64-1.237-3.754-2.213-1.115-.975-2.014-2.2-2.697-3.675-.682-1.476-1.024-3.212-1.024-5.208V11.918zm6.963 25.594c0 1.68.466 2.915 1.4 3.71.932.793 2.036 1.19 3.31 1.19s2.378-.397 3.31-1.19c.933-.795 1.4-2.03 1.4-3.71V11.918c0-1.68-.467-2.915-1.4-3.71-.932-.793-2.036-1.19-3.31-1.19s-2.378.397-3.31 1.19c-.934.795-1.4 2.03-1.4 3.71v25.594zm47.736.544c0 1.588-.295 3.063-.887 4.425-.59 1.362-1.4 2.553-2.423 3.574-1.024 1.02-2.218 1.827-3.584 2.417-1.365.59-2.82.885-4.368.885-1.547 0-3.004-.295-4.37-.884-1.364-.59-2.56-1.395-3.583-2.416-1.023-1.02-1.83-2.212-2.423-3.573-.59-1.36-.887-2.836-.887-4.424V.483h6.962v36.893c0 1.724.41 2.995 1.23 3.81.818.818 1.842 1.227 3.07 1.227 1.23 0 2.253-.41 3.072-1.226.82-.816 1.228-2.087 1.228-3.81V.482h6.963v37.573zM161.076.483h6.69l10.51 29.2h.138V.484h6.962v48.464h-6.553l-10.648-29.133h-.137v29.133h-6.962V.483zm33.264 0h10.307c3.96 0 6.985 1.1 9.078 3.3 2.094 2.202 3.14 5.277 3.14 9.224v22.667c0 4.538-1.103 7.884-3.31 10.04-2.208 2.155-5.382 3.233-9.523 3.233h-9.693V.483zm6.962 41.93h3.208c1.957 0 3.345-.488 4.164-1.464.82-.977 1.23-2.508 1.23-4.595V13.007c0-1.905-.388-3.38-1.162-4.424-.773-1.044-2.184-1.565-4.232-1.565h-3.208v35.395z"/>
  </symbol>

  <symbol id="javascript" viewBox="0 0 100 100">
    <title>JavaScript</title>
    <circle fill="#f0db4f" cx="50" cy="50" r="50"/>
    <path fill="#fff" stroke="#ddc41c" stroke-width="1.89" d="M25 25h50v50H25z"/>
    <path fill="#ddc41c" d="M45.115 64.884c.705.152 1.91 0 2.428-1.275.402-.99.233-4.137.217-7.36-.023-4.434 0-9.08 0-9.08h4.537v14.904s-.092 2.86-1.408 4.554c-1.31 1.684-3.835 2.2-5.435 2.216-5.05.05-6.445-3.96-6.445-3.96l3.593-2.226s1.034 1.907 2.512 2.226zM64.198 52.782l3.69-2.314s-1.66-4.267-8.08-3.294c-6.417.973-4.448 8.273-4.448 8.273s.275 2.49 6.636 4.8c3.765 1.37 2.727 3.936 1.204 4.53-3.92 1.527-5.87-2.333-5.87-2.333l-3.62 2.03s1.318 3.935 6.862 4.427c2.522.224 3.996-.185 5.51-.91.846-.406 2.616-1.885 2.738-4.338.044-.9.13-2.36-.266-3.404-.454-1.194-1.427-1.936-1.916-2.312-2.08-1.598-4.642-2.49-4.642-2.49s-4.688-1.87-1.856-4.173c1.856-1.51 4.058 1.51 4.058 1.51z"/>
  </symbol>

  <symbol id="python" viewBox="0 0 100 100">
    <title>Python</title>
    <circle fill="#3777AC" cx="50" cy="50" r="50"/>
    <path fill="#fff" d="M49.669,22.744 C35.073,22.744 35.984,29.074 35.984,29.074 L36,35.632 L49.93,35.632 L49.93,37.602 L30.469,37.602 C30.469,37.602 21.126,36.54 21.126,51.27 C21.126,66 29.279,65.476 29.279,65.476 L34.145,65.476 L34.145,58.642 C34.145,58.642 33.883,50.489 42.168,50.489 L55.982,50.489 C55.982,50.489 63.744,50.613 63.744,42.986 L63.744,30.377 C63.744,30.377 64.925,22.743 49.669,22.743 L49.669,22.744 Z M41.989,27.154 C42.6538766,27.1532026 43.2917509,27.4169708 43.7618901,27.8871099 C44.2320292,28.3572491 44.4957974,28.9951234 44.495,29.66 C44.4957974,30.3248766 44.2320292,30.9627509 43.7618901,31.4328901 C43.2917509,31.9030292 42.6538766,32.1667974 41.989,32.166 C41.3241234,32.1667974 40.6862491,31.9030292 40.2161099,31.4328901 C39.7459708,30.9627509 39.4822026,30.3248766 39.483,29.66 C39.4822026,28.9951234 39.7459708,28.3572491 40.2161099,27.8871099 C40.6862491,27.4169708 41.3241234,27.1532026 41.989,27.154 L41.989,27.154 Z"/>
    <path fill="#fff" d="M50.084,79.944 C64.681,79.944 63.769,73.614 63.769,73.614 L63.753,67.056 L49.823,67.056 L49.823,65.086 L69.286,65.086 C69.286,65.086 78.626,66.146 78.626,51.418 C78.626,36.688 70.474,37.212 70.474,37.212 L65.609,37.212 L65.609,44.046 C65.609,44.046 65.869,52.199 57.586,52.199 L43.769,52.199 C43.769,52.199 36.009,52.072 36.009,59.699 L36.009,72.311 C36.009,72.311 34.829,79.943 50.084,79.943 L50.084,79.944 L50.084,79.944 Z M57.764,75.534 C57.0992965,75.5345316 56.4616794,75.2706461 55.9917568,74.8005358 C55.5218341,74.3304256 55.2582031,73.6927032 55.259,73.028 C55.2582026,72.3631234 55.5219708,71.7252491 55.9921099,71.2551099 C56.4622491,70.7849708 57.1001234,70.5212026 57.765,70.522 C58.4297952,70.5214688 59.0675148,70.7853225 59.5375962,71.2554038 C60.0076775,71.7254852 60.2715312,72.3632048 60.271,73.028 C60.2717974,73.6928766 60.0080292,74.3307509 59.5378901,74.8008901 C59.0677509,75.2710292 58.4298766,75.5347974 57.765,75.534 L57.764,75.534 L57.764,75.534 Z"/>
  </symbol>

  <symbol id="ruby" viewBox="0 0 100 100">
    <title>Ruby</title>
    <circle fill="#ee5c5c" cx="50" cy="50" r="50"/>
    <g fill="#fff" stroke="#c33a3a" stroke-width="2">
      <path d="M11.918 44.815l37.54 35.672L88.01 44.82l-16.1-14.58H27.856L11.918 44.815z"/>
      <path d="M27.365 45.068L49.44 79.01l21.195-33.94m-57.873.097h74.45"/>
      <path d="M28.095 30.64l.744 15.01L48.73 30.64l20.36 15.01 2.82-15.01"/>
    </g>
  </symbol>

  <symbol id="sass" viewBox="0 0 100 100">
    <title>Sass</title>
    <circle fill="#c69" cx="50" cy="50" r="50"/>
    <path fill="#fff" d="M43.128 62.213c.504 1.887.45 3.646-.072 5.24-.057.176-.12.35-.19.524-.07.173-.144.344-.224.512-.402.842-.94 1.632-1.6 2.36-2.01 2.222-4.822 3.062-6.028 2.354-1.3-.764-.65-3.897 1.683-6.393 2.51-2.685 6.12-4.41 6.12-4.41l-.005-.012c.104-.057.21-.115.316-.175zm28.6-31.73c-1.567-6.225-11.764-8.272-21.414-4.8-5.744 2.065-11.96 5.307-16.432 9.54-5.315 5.034-6.163 9.415-5.813 11.246 1.23 6.46 9.973 10.68 13.567 13.814v.02c-1.06.527-8.816 4.5-10.63 8.563-1.916 4.287.304 7.362 1.774 7.776 4.555 1.283 9.228-1.024 11.74-4.817 2.423-3.66 2.22-8.386 1.168-10.737 1.453-.39 3.146-.563 5.3-.308 6.073.718 7.265 4.558 7.037 6.164-.228 1.607-1.502 2.49-1.928 2.758-.426.267-.556.36-.52.557.05.29.25.28.612.217.5-.086 3.188-1.308 3.303-4.274.147-3.766-3.418-7.98-9.73-7.87-2.6.047-4.234.297-5.415.742-.087-.1-.176-.2-.268-.3-3.902-4.215-11.116-7.197-10.81-12.864.11-2.06.82-7.483 13.86-14.063 10.686-5.39 19.24-3.907 20.717-.62 2.11 4.697-4.57 13.425-15.667 14.684-4.227.48-6.453-1.178-7.007-1.795-.583-.65-.67-.68-.887-.558-.355.2-.13.773 0 1.115.33.873 1.69 2.42 4.008 3.19 2.04.68 7.002 1.05 13.005-1.3 6.72-2.633 11.97-9.956 10.43-16.078z"/>
  </symbol>

  <symbol id="typescript" viewBox="0 0 100 100">
    <title>TypeScript</title>
    <circle fill="#178fcf" fill-rule="nonzero" cx="50" cy="50" r="50"/>
    <g fill="#fff">
      <path fill-rule="nonzero" d="M50.7 36.1H39.6v34.3h-4.5V36.1H24V32h26.6v4.1z"/>
      <path d="M54 68.7v-3c2.8 1.8 5.5 2.6 8.4 2.6 3 0 5.3-.6 6.8-1.9 1.6-1.2 2.3-3 2.3-5.2 0-2-.5-3.5-1.6-4.7-1-1.2-3.3-2.8-6.8-4.8-3.9-2.3-6.4-4.2-7.4-5.7s-1.6-3.3-1.6-5.3c0-2.7 1.1-5 3.2-6.9 2.1-1.9 4.9-2.8 8.4-2.8 2.3 0 4.6.4 6.9 1.2V35c-2.3-1-4.7-1.5-7.2-1.5-2.6 0-4.7.7-6.2 2s-2.3 3-2.3 5 .5 3.5 1.6 4.7c1 1.2 3.3 2.7 6.8 4.7 3.6 2 6 3.8 7.2 5.4 1.2 1.6 1.8 3.4 1.8 5.5 0 2.9-1 5.3-3.1 7.2-2 1.9-4.9 2.8-8.7 2.8-1.3 0-2.8-.2-4.6-.6-1.6-.5-2.9-1-3.9-1.5z"/>
    </g>
  </symbol>











  <symbol id="go" viewBox="0 0 100 100">
    <title>Go</title>
    <defs>
      <circle id="a" cx="50" cy="50" r="50"/>
    </defs>
    <g fill="none" fill-rule="evenodd">
      <mask id="b" fill="#fff">
        <use xlink:href="#a"/>
      </mask>
      <use fill="#61CFDD" xlink:href="#a"/>
      <g mask="url(#b)">
        <path d="M16.818 70.893c.135 2.79 2.91 1.498 4.17.627 1.193-.828 1.542-.14 1.647-1.773.068-1.074.192-2.147.13-3.225-1.804-.164-3.768.267-5.248 1.346-.762.556-2.192 2.33-.7 3.025" stroke="#178391" stroke-width="1.5" fill="#97EBF5"/>
        <path d="M16.818 70.893c.238-.134 1.268-.676 1.43-1" stroke="#178391" fill="#C6B198"/>
        <path d="M23.235 37.676c-10.64-3-2.73-16.58 5.816-10.995l-5.815 10.996zM70.51 25.662c8.423-5.934 16.034 7.455 6.246 10.823L70.51 25.662z" stroke="#178391" stroke-width="1.5" fill="#97EBF5"/>
        <path d="M23.68 33.926c-1.405-.745-2.435-1.757-1.576-3.385.795-1.507 2.272-1.344 3.676-.6l-2.1 3.986zm51.858-1.416c1.404-.745 2.434-1.757 1.575-3.386-.795-1.508-2.272-1.344-3.676-.6l2.1 3.986z" fill="#178391"/>
        <path d="M84.2 70.54c-.133 2.788-2.91 1.497-4.168.626-1.194-.828-1.543-.14-1.648-1.773-.068-1.074-.192-2.147-.13-3.225 1.804-.164 3.768.267 5.248 1.346.762.556 2.192 2.33.7 3.025" stroke="#178391" stroke-width="1.5" fill="#97EBF5"/>
        <path d="M84.2 70.54c-.403-.152-1.676-.636-1.95-1.002" stroke="#178391" fill="#C6B198"/>
        <path d="M75.288 31.817c4.672 11.508 3.01 23.917 3.723 36.08.613 10.442 1.97 22.506-2.86 32.184-5.08 10.182-17.775 12.743-28.235 12.368-8.215-.295-18.14-2.983-22.776-10.513-5.44-8.834-2.866-21.968-2.47-31.798.467-11.643-3.145-23.32.668-34.714 3.956-11.82 14.624-14.49 26.105-15.4 10.653 0 20.64 1.527 25.845 11.794z" stroke="#178391" stroke-width="1.5" fill="#97EBF6"/>
        <path d="M51.324 36.367C53.237 47.52 71.41 44.572 68.8 33.323c-2.34-10.087-18.112-7.295-17.476 3.044M29.606 38.17c2.48 9.71 17.976 7.225 17.392-2.515-.7-11.665-19.762-9.414-17.392 2.516M53.517 50.75c.008 1.45.328 3.08.055 4.62-.37.7-1.093.775-1.717 1.058a2.529 2.529 0 0 1-1.935-1.514c-.22-1.76.083-3.466.14-5.227l3.457 1.064z" stroke="#178391" fill="#FFF"/>
        <g transform="translate(31.58 33.684)">
          <ellipse fill="#178391" cx="2.704" cy="2.904" rx="2.617" ry="2.843"/>
          <ellipse fill="#FFF" cx="3.895" cy="3.546" rx=".617" ry=".723"/>
        </g>
        <g transform="translate(53.56 32.976)">
          <ellipse fill="#178391" cx="2.748" cy="2.904" rx="2.573" ry="2.843"/>
          <ellipse fill="#FFF" cx="3.918" cy="3.546" rx=".607" ry=".723"/>
        </g>
        <path d="M46.038 50.593c-1.14 2.776.637 8.326 3.735 4.232-.222-1.76.083-3.465.138-5.227l-3.872.995z" stroke="#178391" fill="#FFF"/>
        <path d="M46.43 45.247c-2.13.182-3.87 2.72-2.762 4.728 1.465 2.66 4.736-.235 6.773.036 2.345.05 4.266 2.488 6.15.442 2.093-2.275-.903-4.492-3.244-5.482l-6.917.277z" stroke="#178391" stroke-width="1.2" fill="#97EBF5"/>
        <path d="M46.16 45.136c-.156-3.698 6.873-4.16 7.703-1.065.828 3.09-7.356 3.807-7.702 1.066-.275-2.19 0 0 0 0z" fill="#168391"/>
      </g>
    </g>
  </symbol>











  <symbol id="swift" viewBox="0 0 100 100">
    <title>Swift</title>
    <defs>
        <linearGradient x1="50%" y1="0%" x2="50%" y2="100%" id="linearGradient-1">
            <stop stop-color="#FBAE3D" offset="0%"></stop>
            <stop stop-color="#FF291A" offset="100%"></stop>
        </linearGradient>
        <radialGradient cx="33.8466994%" cy="32.2922064%" fx="33.8466994%" fy="32.2922064%" r="0.594798881%" gradientTransform="translate(0.338467,0.322922),scale(1.000000,0.991431),translate(-0.338467,-0.322922)" id="radialGradient-2">
            <stop stop-color="#FBA73E" offset="0%"></stop>
            <stop stop-color="#E97532" offset="44.4%"></stop>
            <stop stop-color="#A23314" offset="100%"></stop>
        </radialGradient>
    </defs>
    <g id="Page-1" stroke="none" stroke-width="1" fill="none" fill-rule="evenodd">
        <g id="swift" fill-rule="nonzero">
            <path d="M50,0 L50,0 C77.6,0 100,22.4 100,50 L100,50 C100,77.6 77.6,100 50,100 L50,100 C22.4,100 0,77.6 0,50 L0,50 C0,22.4 22.4,0 50,0 L50,0 Z" id="circle-bg" fill="url(#linearGradient-1)"></path>
            <g id="Shadow-Clipped" fill="url(#radialGradient-2)" opacity="0.3394">
                <path d="M12,-29.5 L56.9,14.5 C56.9,14.5 86.7,31.9 79.4,61.6 C79.4,61.6 78,69.5 74.2,74.9 C67.7,75.6 62.7,81.2 51.4,81.2 C40.1,81.2 24,77.8 10.5,57.5 L-29.2,19.4 L12,-29.5 Z" id="shadow"></path>
            </g>
            <path d="M56.8,14.6 C56.8,14.6 86.6,32 79.3,61.7 C79.3,61.7 88.3,73.3 84.6,81.7 C84.6,81.7 81,74.4 74.1,75 C67.6,75.7 62.6,81.3 51.3,81.3 C40,81.3 23.9,77.9 10.4,57.6 C10.4,57.6 32.4,74.7 52.8,62.5 C52.8,62.5 38.4,52.6 17.6,24.6 C17.6,24.6 42.4,45.2 47.8,47.2 C47.8,47.2 32.1,31 26.7,20.8 C26.7,20.8 47.8,41.1 63.4,50.3 C63.5,50.3 70.3,34.2 56.8,14.6 L56.8,14.6 Z" id="Bird" fill="#FFFFFF"></path>
        </g>
    </g>
  </symbol>



</svg>
