<?xml version="1.0" encoding="utf-8"?>
<!-- Generator: Adobe Illustrator 16.0.4, SVG Export Plug-In . SVG Version: 6.00 Build 0)  -->
<!DOCTYPE svg PUBLIC "-//W3C//DTD SVG 1.1//EN" "http://www.w3.org/Graphics/SVG/1.1/DTD/svg11.dtd">
<svg version="1.1" id="Layer_1" xmlns:sketch="http://www.bohemiancoding.com/sketch/ns"
	 xmlns="http://www.w3.org/2000/svg" xmlns:xlink="http://www.w3.org/1999/xlink" x="0px" y="0px" width="51px" height="50px"
	 viewBox="0 0 51 50" enable-background="new 0 0 51 50" xml:space="preserve">
<title>LOGO</title>
<desc>Created with Sketch.</desc>
<g id="Page-1" sketch:type="MSPage">
	<path id="LOGO" sketch:type="MSShapeGroup" fill="#E53221" d="M40.629,50H1.338C0.599,50,0,49.412,0,48.688V1.312
		C0,0.587,0.599,0,1.338,0h48.324C50.4,0,51,0.587,51,1.312v20.593c-0.193-0.588-2.463-7.312-5.971-10.726
		c-3.67-3.573-10.322-6.496-9.333-4.146s0.989,8.47,0.989,8.47l-9.962,3.8l-1.494,5.526l-12.192,3.215c0,0,0.869,6.219,4.373,7.305
		c2.248,0.697,16.982,2.322,16.982,2.322L31.596,50H40.629L40.629,50z"/>
</g>
</svg>
