<svg width="217" height="50" viewBox="0 0 217 50" xmlns="http://www.w3.org/2000/svg"><title>Hound logo</title><g fill="#A873D1" fill-rule="evenodd"><path d="M38.658 48.636H1.56c-.698 0-1.263-.564-1.263-1.26V1.88c0-.695.565-1.26 1.263-1.26h45.627c.698 0 1.263.564 1.263 1.26v19.776c-.183-.564-2.325-7.02-5.637-10.3C39.35 7.92 33.066 5.113 34 7.37c.935 2.256.935 8.134.935 8.134l-9.406 3.65-1.412 5.306-11.512 3.087s.82 5.97 4.13 7.015c2.122.67 16.034 2.23 16.034 2.23l-2.64 11.84h8.528zM66.06.483h6.962v20.76h8.6V.484h6.963v48.464h-6.963V27.37h-8.6v21.577H66.06V.483zM97.41 11.918c0-1.95.342-3.675 1.024-5.173.683-1.497 1.582-2.734 2.697-3.71 1.114-.975 2.366-1.712 3.754-2.212 1.388-.5 2.787-.748 4.198-.748 1.41 0 2.81.25 4.198.748 1.388.5 2.64 1.237 3.754 2.213 1.115.975 2.014 2.212 2.696 3.71.683 1.497 1.024 3.22 1.024 5.172v25.594c0 1.996-.34 3.732-1.024 5.207-.682 1.474-1.58 2.7-2.696 3.674-1.115.976-2.366 1.713-3.754 2.213s-2.787.748-4.198.748c-1.41 0-2.81-.25-4.198-.748-1.388-.5-2.64-1.237-3.754-2.213-1.115-.975-2.014-2.2-2.697-3.675-.682-1.476-1.024-3.212-1.024-5.208V11.918zm6.963 25.594c0 1.68.466 2.915 1.4 3.71.932.793 2.036 1.19 3.31 1.19s2.378-.397 3.31-1.19c.933-.795 1.4-2.03 1.4-3.71V11.918c0-1.68-.467-2.915-1.4-3.71-.932-.793-2.036-1.19-3.31-1.19s-2.378.397-3.31 1.19c-.934.795-1.4 2.03-1.4 3.71v25.594zm47.736.544c0 1.588-.295 3.063-.887 4.425-.59 1.362-1.4 2.553-2.423 3.574-1.024 1.02-2.218 1.827-3.584 2.417-1.365.59-2.82.885-4.368.885-1.547 0-3.004-.295-4.37-.884-1.364-.59-2.56-1.395-3.583-2.416-1.023-1.02-1.83-2.212-2.423-3.573-.59-1.36-.887-2.836-.887-4.424V.483h6.962v36.893c0 1.724.41 2.995 1.23 3.81.818.818 1.842 1.227 3.07 1.227 1.23 0 2.253-.41 3.072-1.226.82-.816 1.228-2.087 1.228-3.81V.482h6.963v37.573zM161.076.483h6.69l10.51 29.2h.138V.484h6.962v48.464h-6.553l-10.648-29.133h-.137v29.133h-6.962V.483zm33.264 0h10.307c3.96 0 6.985 1.1 9.078 3.3 2.094 2.202 3.14 5.277 3.14 9.224v22.667c0 4.538-1.103 7.884-3.31 10.04-2.208 2.155-5.382 3.233-9.523 3.233h-9.693V.483zm6.962 41.93h3.208c1.957 0 3.345-.488 4.164-1.464.82-.977 1.23-2.508 1.23-4.595V13.007c0-1.905-.388-3.38-1.162-4.424-.773-1.044-2.184-1.565-4.232-1.565h-3.208v35.395z"/></g></svg>
