<?xml version="1.0" encoding="utf-8"?>
<!-- Generator: Adobe Illustrator 16.0.4, SVG Export Plug-In . SVG Version: 6.00 Build 0)  -->
<!DOCTYPE svg PUBLIC "-//W3C//DTD SVG 1.1//EN" "http://www.w3.org/Graphics/SVG/1.1/DTD/svg11.dtd">
<svg version="1.1" id="Layer_1" xmlns:sketch="http://www.bohemiancoding.com/sketch/ns"
	 xmlns="http://www.w3.org/2000/svg" xmlns:xlink="http://www.w3.org/1999/xlink" x="0px" y="0px" width="217px" height="50px"
	 viewBox="0 0 217 50" enable-background="new 0 0 217 50" xml:space="preserve">
<title>Rectangle-36 + HOUND-9</title>
<desc>Created with Sketch.</desc>
<g id="Page-1_1_" sketch:type="MSPage">
	<g id="HoundLogo_1_" sketch:type="MSLayerGroup">
		<g id="Page-1" sketch:type="MSShapeGroup">
			<g id="HoundLogo">
				<g id="Rectangle-36-_x2B_-HOUND-9">
					<path id="Rectangle-36" fill="#E53221" d="M38.658,48.637H1.56c-0.698,0-1.264-0.564-1.264-1.26V1.878
						c0-0.695,0.566-1.259,1.264-1.259h45.627c0.698,0,1.264,0.564,1.264,1.259v19.776c-0.183-0.564-2.326-7.021-5.638-10.301
						C39.349,7.922,33.066,5.115,34,7.372c0.935,2.256,0.935,8.134,0.935,8.134l-9.406,3.649l-1.411,5.308l-11.512,3.086
						c0,0,0.82,5.973,4.129,7.016c2.123,0.67,16.034,2.23,16.034,2.23l-2.641,11.842H38.658L38.658,48.637z"/>
					<path id="HOUND-9" fill="#E53221" d="M66.059,0.483h6.962v20.76h8.601V0.483h6.962v48.464h-6.962V27.369h-8.601v21.578h-6.962
						V0.483L66.059,0.483z M97.412,11.918c0-1.951,0.341-3.676,1.024-5.173c0.683-1.497,1.582-2.734,2.696-3.709
						c1.115-0.976,2.367-1.713,3.754-2.212c1.388-0.499,2.788-0.749,4.198-0.749c1.411,0,2.81,0.25,4.198,0.749
						c1.388,0.5,2.639,1.237,3.754,2.212s2.014,2.212,2.696,3.709c0.683,1.498,1.024,3.222,1.024,5.173v25.593
						c0,1.996-0.342,3.732-1.024,5.207s-1.581,2.7-2.696,3.676s-2.366,1.713-3.754,2.212c-1.389,0.499-2.787,0.749-4.198,0.749
						c-1.411,0-2.81-0.25-4.198-0.749c-1.388-0.499-2.639-1.236-3.754-2.212c-1.115-0.976-2.014-2.201-2.696-3.676
						s-1.024-3.211-1.024-5.207V11.918L97.412,11.918z M104.375,37.512c0,1.679,0.466,2.916,1.399,3.709
						c0.933,0.795,2.036,1.191,3.311,1.191s2.378-0.396,3.311-1.191c0.933-0.793,1.399-2.03,1.399-3.709V11.918
						c0-1.679-0.467-2.916-1.399-3.709c-0.933-0.794-2.036-1.191-3.311-1.191s-2.378,0.397-3.311,1.191
						c-0.933,0.794-1.399,2.03-1.399,3.709V37.512L104.375,37.512z M152.111,38.057c0,1.588-0.297,3.062-0.889,4.424
						c-0.591,1.361-1.398,2.553-2.422,3.574c-1.024,1.021-2.219,1.826-3.584,2.416s-2.822,0.885-4.369,0.885
						s-3.004-0.295-4.369-0.885s-2.559-1.396-3.583-2.416c-1.024-1.021-1.831-2.213-2.423-3.574s-0.888-2.836-0.888-4.424V0.483
						h6.962v36.892c0,1.725,0.41,2.996,1.229,3.812c0.82,0.816,1.844,1.225,3.072,1.225s2.252-0.408,3.072-1.225
						c0.818-0.816,1.229-2.088,1.229-3.812V0.483h6.963V38.057L152.111,38.057z M161.074,0.483h6.689l10.513,29.2h0.136v-29.2h6.963
						v48.464h-6.553l-10.648-29.133h-0.137v29.133h-6.963V0.483L161.074,0.483z M194.34,0.483h10.307c3.959,0,6.985,1.1,9.078,3.301
						c2.094,2.201,3.141,5.275,3.141,9.223v22.667c0,4.538-1.104,7.885-3.311,10.04s-5.381,3.233-9.522,3.233h-9.692V0.483
						L194.34,0.483z M201.302,42.412h3.208c1.957,0,3.346-0.487,4.164-1.463c0.819-0.976,1.229-2.508,1.229-4.595V13.007
						c0-1.906-0.387-3.38-1.16-4.424c-0.773-1.043-2.184-1.565-4.232-1.565h-3.208V42.412L201.302,42.412z"/>
				</g>
			</g>
		</g>
	</g>
</g>
</svg>
