<svg width="20" height="20" viewBox="0 0 20 20" xmlns="http://www.w3.org/2000/svg"><title>Pattern</title><g fill="#EBDEF4" fill-rule="evenodd"><path d="M-4.086 1.672l-.708.707 1.415 1.415.707-.708 26.88-26.879.706-.707-1.414-1.414-.707.707zm0 15l-.708.707 1.415 1.415.707-.708 26.88-26.879.706-.707-1.414-1.414-.707.707zm0-10l-.708.707 1.415 1.415.707-.708 26.88-26.879.706-.707-1.414-1.414-.707.707zm0 15l-.708.707 1.415 1.415.707-.708 26.88-26.879.706-.707L23.5-5.914l-.707.707zm0-10l-.708.707 1.415 1.415.707-.708 26.88-26.879.706-.707-1.414-1.414-.707.707zm0 15l-.708.707 1.415 1.415.707-.708 26.88-26.879.706-.707L23.5-.914l-.707.707z"/><path d="M-4.086 16.672l-.708.707 1.415 1.415.707-.708 26.88-26.879.706-.707-1.414-1.414-.707.707zm0-15l-.708.707 1.415 1.415.707-.708 26.88-26.879.706-.707-1.414-1.414-.707.707zm0 30l-.708.707 1.415 1.415.707-.708 26.88-26.879.706-.707L23.5 4.086l-.707.707zm0-10l-.708.707 1.415 1.415.707-.708 26.88-26.879.706-.707L23.5-5.914l-.707.707zm0 15l-.708.707 1.415 1.415.707-.708 26.88-26.879.706-.707L23.5 9.086l-.707.707zm0-10l-.708.707 1.415 1.415.707-.708 26.88-26.879.706-.707L23.5-.914l-.707.707zm0 15l-.708.707 1.415 1.415.707-.708 26.88-26.879.706-.707-1.414-1.414-.707.707zm0 5l-.708.707 1.415 1.415.707-.708 26.88-26.879.706-.707-1.414-1.414-.707.707z"/></g></svg>