<?xml version="1.0" encoding="UTF-8" standalone="no"?>
<svg width="100px" height="100px" viewBox="0 0 100 100" version="1.1" xmlns="http://www.w3.org/2000/svg" xmlns:xlink="http://www.w3.org/1999/xlink" xmlns:sketch="http://www.bohemiancoding.com/sketch/ns">
    <!-- Generator: Sketch 3.2.2 (9983) - http://www.bohemiancoding.com/sketch -->
    <title>coffee 4</title>
    <desc>Created with Sketch.</desc>
    <defs></defs>
    <g id="Page-1" stroke="none" stroke-width="1" fill="none" fill-rule="evenodd" sketch:type="MSPage">
        <g id="coffee-4" sketch:type="MSLayerGroup">
            <circle id="Oval-2" fill="#28334C" sketch:type="MSShapeGroup" cx="50" cy="50" r="50"></circle>
            <path d="M27.2512378,51.7336721 C26.9525966,52.0113973 26.6706259,52.3174349 26.4041807,52.6525473 C25.1998595,54.4066968 24.748239,56.4114391 25.1998595,58.5665371 C25.5009398,60.8719908 26.7554411,62.776496 28.6121031,64.1296971 C30.3182249,65.4828981 32.0243467,66.1344394 34.0315488,66.1344394 C33.0781278,66.4351507 32.0243467,66.9363363 31.0709257,67.086692 C28.6121031,67.537759 26.4543608,67.086692 24.4471587,65.5330167 C22.5403167,63.9793414 21.3359954,61.9745991 21.1854552,59.5187897 C21.0349151,57.0629804 21.7876159,54.5570525 23.4937377,52.4019545 C24.3999104,51.257317 25.3910176,50.3671708 26.4820964,49.708988 C25.5625945,47.1068169 24.8633178,44.3819772 24.4471587,41.5763459 C25.2500395,42.8293099 27.558322,44.0321553 31.8738065,45.1347636 C36.6910916,46.1872533 42.8632381,46.9891502 50.4404261,46.9891502 C57.8670739,46.9891502 64.0392204,46.2373718 68.8565055,45.1347636 C73.0214498,44.182511 75.3297323,42.9796656 76.3333333,41.5763459 C75.3799123,47.0392688 73.6737905,52.1513617 71.2149679,56.6119134 C69.358306,59.4185526 67.501644,61.8743619 65.6449821,64.5306455 C64.8922813,66.0843208 64.3904808,67.6379961 64.0894004,69.1916714 L63.9388603,69.1916714 C62.684359,70.8957024 60.9782372,71.9481921 58.971035,72.5997334 C56.2613122,73.5018674 53.3006891,73.9529344 50.4906061,73.8025788 L50.1895258,73.8025788 C47.3794428,73.9529344 44.6195399,73.551986 41.9599971,72.5997334 C39.8022549,71.9983107 38.045953,70.8957024 36.8416317,69.1916714 C36.4903714,67.6379961 35.9383908,66.0843208 35.1355099,64.5306455 C33.278848,61.8743619 31.422186,59.4185526 29.5655241,56.6119134 C28.716008,55.0534898 27.9383707,53.4232755 27.2512378,51.7336721 Z M43.0639583,31.4523972 C43.1141383,31.7531086 42.9635982,32.0037014 42.4617977,32.2542941 C41.809457,31.9034642 40.4044155,31.70299 39.2502743,31.8032271 C37.995773,31.9034642 36.9419918,32.3044127 37.092532,33.1564282 C37.2932522,34.0084437 38.4975735,34.5096293 40.6553158,34.309155 C45.9242213,33.858088 45.8740413,30.2996704 53.6017694,29.5980106 C59.6233757,29.0467064 62.9854393,30.9010931 63.4370598,33.1564282 C63.7883201,34.9105777 62.3330986,36.6146087 57.967434,36.9654386 C54.1035699,37.3162685 51.8454675,36.2637788 51.6447473,35.2112891 C51.5443872,34.6599849 51.8454675,33.858088 53.7021295,33.6576138 C53.9028497,34.5096293 54.9566308,35.4117633 57.4656335,35.1611705 C59.2721154,35.0108148 60.7775169,34.3592736 60.5767967,33.3569024 C60.3760765,32.3044127 58.4692345,31.70299 55.4584313,31.9535828 C49.3364649,32.5048869 47.8310633,35.8628303 42.6123378,36.3138973 C38.8990139,36.6647273 35.8882107,35.3115262 35.4867703,33.3067839 C35.3362302,32.5550055 35.3362302,30.800856 39.2502743,30.4500261 C41.2574764,30.2996704 42.8632381,30.6505003 43.0639583,31.4523972 Z M50.390246,40.8245676 C43.9170192,40.8245676 38.1463131,40.1730263 33.9813687,39.2708923 C29.515344,38.168284 27.1568815,36.9654386 27.1568815,35.4117633 C27.1568815,34.7602221 27.4579619,34.2089179 28.3612028,33.5573767 C25.5511198,34.6599849 24.0457183,35.562119 24.0457183,36.9654386 C24.1962584,38.5191139 26.7052611,40.0727892 31.8236265,41.2756346 C36.6409115,42.47848 42.813058,43.1300212 50.2397058,43.1300212 C57.8168938,43.1300212 63.8385002,42.47848 68.6557852,41.2756346 C73.7741506,40.0727892 76.2329732,38.4689953 76.2329732,36.9654386 C76.2329732,35.8628303 75.1290121,34.8103406 73.12181,34.0084437 C73.5734304,34.309155 73.9246908,34.8103406 73.9246908,35.3616447 C73.9246908,36.91532 71.6164084,38.168284 66.9496634,39.2207737 C62.6341789,40.1730263 57.1143731,40.8245676 50.390246,40.8245676 Z" id="Shape" fill="#FFFFFF" sketch:type="MSShapeGroup"></path>
        </g>
    </g>
</svg>