<svg width="100" height="100" viewBox="0 0 100 100" xmlns="http://www.w3.org/2000/svg" xmlns:xlink="http://www.w3.org/1999/xlink">
    <title>
        version 3
    </title>
    <defs>
        <circle id="a" cx="50" cy="50" r="50"/>
    </defs>
    <g fill="none" fill-rule="evenodd">
        <mask id="b" fill="#fff">
            <use xlink:href="#a"/>
        </mask>
        <use fill="#61CFDD" xlink:href="#a"/>
        <g mask="url(#b)">
            <path d="M16.818 70.893c.135 2.79 2.91 1.498 4.17.627 1.193-.828 1.542-.14 1.647-1.773.068-1.074.192-2.147.13-3.225-1.804-.164-3.768.267-5.248 1.346-.762.556-2.192 2.33-.7 3.025" stroke="#178391" stroke-width="1.5" fill="#97EBF5"/>
            <path d="M16.818 70.893c.238-.134 1.268-.676 1.43-1" stroke="#178391" fill="#C6B198"/>
            <path d="M23.235 37.676c-10.64-3-2.73-16.58 5.816-10.995l-5.815 10.996zM70.51 25.662c8.423-5.934 16.034 7.455 6.246 10.823L70.51 25.662z" stroke="#178391" stroke-width="1.5" fill="#97EBF5"/>
            <path d="M23.68 33.926c-1.405-.745-2.435-1.757-1.576-3.385.795-1.507 2.272-1.344 3.676-.6l-2.1 3.986zM75.538 32.51c1.404-.745 2.434-1.757 1.575-3.386-.795-1.508-2.272-1.344-3.676-.6l2.1 3.986z" fill="#178391"/>
            <path d="M84.2 70.54c-.133 2.788-2.91 1.497-4.168.626-1.194-.828-1.543-.14-1.648-1.773-.068-1.074-.192-2.147-.13-3.225 1.804-.164 3.768.267 5.248 1.346.762.556 2.192 2.33.7 3.025" stroke="#178391" stroke-width="1.5" fill="#97EBF5"/>
            <path d="M84.2 70.54c-.403-.152-1.676-.636-1.95-1.002" stroke="#178391" fill="#C6B198"/>
            <path d="M75.288 31.817c4.672 11.508 3.01 23.917 3.723 36.08.613 10.442 1.97 22.506-2.86 32.184-5.08 10.182-17.775 12.743-28.235 12.368-8.215-.295-18.14-2.983-22.776-10.513-5.44-8.834-2.866-21.968-2.47-31.798.467-11.643-3.145-23.32.668-34.714 3.956-11.82 14.624-14.49 26.105-15.4 10.653 0 20.64 1.527 25.845 11.794z" stroke="#178391" stroke-width="1.5" fill="#97EBF6"/>
            <path d="M51.324 36.367C53.237 47.52 71.41 44.572 68.8 33.323c-2.34-10.087-18.112-7.295-17.476 3.044M29.606 38.17c2.48 9.71 17.976 7.225 17.392-2.515-.7-11.665-19.762-9.414-17.392 2.516M53.517 50.75c.008 1.45.328 3.08.055 4.62-.37.7-1.093.775-1.717 1.058-.863-.136-1.59-.705-1.935-1.514-.22-1.76.083-3.466.14-5.227l3.457 1.064z" stroke="#178391" fill="#FFF"/>
            <g transform="translate(31.58 33.684)">
                <ellipse fill="#178391" cx="2.704" cy="2.904" rx="2.617" ry="2.843"/>
                <ellipse fill="#FFF" cx="3.895" cy="3.546" rx=".617" ry=".723"/>
            </g>
            <g transform="translate(53.56 32.976)">
                <ellipse fill="#178391" cx="2.748" cy="2.904" rx="2.573" ry="2.843"/>
                <ellipse fill="#FFF" cx="3.918" cy="3.546" rx=".607" ry=".723"/>
            </g>
            <path d="M46.038 50.593c-1.14 2.776.637 8.326 3.735 4.232-.222-1.76.083-3.465.138-5.227l-3.872.995z" stroke="#178391" fill="#FFF"/>
            <path d="M46.43 45.247c-2.13.182-3.87 2.72-2.762 4.728 1.465 2.66 4.736-.235 6.773.036 2.345.05 4.266 2.488 6.15.442 2.093-2.275-.903-4.492-3.244-5.482l-6.917.277z" stroke="#178391" stroke-width="1.2" fill="#97EBF5"/>
            <path d="M46.16 45.136c-.156-3.698 6.873-4.16 7.703-1.065.828 3.09-7.356 3.807-7.702 1.066-.275-2.19 0 0 0 0z" fill="#168391"/>
        </g>
    </g>
</svg>
