<?xml version="1.0" encoding="UTF-8" standalone="no"?>
<svg width="100px" height="101px" viewBox="0 0 100 101" version="1.1" xmlns="http://www.w3.org/2000/svg" xmlns:xlink="http://www.w3.org/1999/xlink" xmlns:sketch="http://www.bohemiancoding.com/sketch/ns">
    <!-- Generator: Sketch 3.3.3 (12081) - http://www.bohemiancoding.com/sketch -->
    <title>haml</title>
    <desc>Created with Sketch.</desc>
    <defs>
        <ellipse id="path-1" cx="50" cy="50.5" rx="50" ry="50"></ellipse>
    </defs>
    <g id="Page-1" stroke="none" stroke-width="1" fill="none" fill-rule="evenodd" sketch:type="MSPage">
        <g id="haml" sketch:type="MSLayerGroup">
            <mask id="mask-2" sketch:name="mask" fill="white">
                <use xlink:href="#path-1"></use>
            </mask>
            <use id="mask" fill="#EBE1A8" sketch:type="MSShapeGroup" xlink:href="#path-1"></use>
            <g id="version-1" mask="url(#mask-2)">
                <g transform="translate(26.000000, 19.500000)" id="icon">
                    <g>
                        <path d="M33.1053506,9.25899492 C33.3085714,9.06237056 33.5117922,8.86543655 33.7147013,8.66912183 C33.8163117,8.66014213 33.9172987,8.65085279 34.0192208,8.64156345 C35.4193247,8.54712183 36.1505455,7.12678173 37.4914286,6.91467513 C38.8921558,5.83835025 40.238961,6.21549746 41.6172468,7.00632995 C42.9565714,7.77455838 44.3092987,8.52235025 45.4756364,9.53674619 C45.9478442,9.94702538 46.8168312,10.3591624 46.4409351,11.0865178 C46.0189091,11.9018122 45.2605714,11.0571015 44.6474805,11.096736 C42.9843117,10.9691624 41.6908052,9.98139594 40.2900779,9.24537056 C39.9254026,9.05370051 39.5962597,8.76511168 39.1782857,8.71649746 C38.424,8.62855838 37.8171429,9.00663452 37.5331948,9.62778173 C37.2723117,10.1990761 37.9602078,10.3340812 38.3002597,10.600066 C39.4669091,11.510731 40.9171948,12.0677817 41.7871169,13.3509492 C42.5183377,14.3241624 43.152,13.7404822 43.8040519,13.2376193 C44.0443636,13.0518325 44.4071688,12.8462284 44.6091429,13.1196447 C44.8005195,13.3785076 44.4561039,13.6531624 44.2902857,13.8965431 C43.8813506,14.0752081 43.7560519,14.3733959 43.6450909,14.8223807 C43.3717403,15.9265736 42.9618701,17.0403655 41.4308571,16.756731 C40.9284156,16.6638376 40.6550649,16.9672893 40.3418182,17.2168629 C39.8574545,17.6036091 39.4491429,18.121335 38.9114805,18.3981574 C37.0111169,19.3784924 36.4301299,21.1090964 36.0180779,23.0041218 C35.4791688,25.4849949 36.1081558,26.6461624 38.5701818,27.4602183 C42.0953766,28.6263401 45.0523636,30.5452081 47.0481039,33.7453858 C47.7073247,34.8148985 47.808,35.9314772 47.3323636,37.0954315 C46.8688831,38.0664772 46.4166234,39.1229848 45.3805714,39.5583452 C43.891013,40.1853756 44.1101299,41.588066 43.6918442,42.7080508 C43.4524675,42.9972589 43.564987,43.5465685 43.0164156,43.605401 C42.1371429,44.3027208 41.356987,45.1409289 40.2567273,45.5248883 C38.9086753,45.9048223 37.5606234,45.7713655 36.2122597,45.5217919 C34.8704416,45.8410355 34.0591169,44.5126599 32.8397922,44.4513503 C32.3990649,43.404132 32.8288831,42.6191827 33.6031169,41.9379645 C33.7583377,41.916599 33.9091948,41.9385838 34.0522597,42.0023706 C34.3415065,43.6208832 35.4829091,43.8565228 36.8908052,43.8246294 C38.3482597,43.7914975 39.7826494,43.7899492 40.9496104,42.7436599 C41.4451948,42.2993198 41.9644675,41.8936853 41.7042078,41.0666244 C41.4673247,40.3141878 42.1209351,40.0005178 42.5981299,39.6277056 C43.0083117,39.1988477 43.1965714,38.7418122 42.787013,38.2036497 C42.6897662,38.0977513 42.6377143,37.975132 42.6255584,37.8333147 C43.3592727,36.6337513 43.3997922,36.6343706 44.5471169,37.8642792 C45.7979221,36.6560457 45.8144416,35.3508934 44.5639481,33.8546904 C43.0965195,32.0996244 41.2014545,30.9787107 39.0439481,30.2634315 C38.5524156,30.1005584 38.0484156,29.9773198 37.5540779,29.8212589 C34.2835325,28.7870457 33.1449351,27.2372741 33.1449351,23.6110254 C32.2812468,24.1203909 31.5815065,24.6879695 30.8886234,25.2515228 C29.0421818,26.7545381 27.0766753,28.0965381 25.1382857,29.4753858 C24.5644675,29.8831878 23.9847273,30.3987462 23.1637403,30.1268782 C23.0437403,30.0318173 22.9695584,29.9088883 22.9318442,29.7624264 C23.486961,28.1528934 25.0575584,27.4871574 26.1615584,26.3962792 C27.3624935,25.2094112 28.7940779,24.264066 29.9738182,23.0434467 C30.4388571,22.6514365 30.6782338,22.0008731 31.3458701,21.8404772 C31.8177662,22.0083046 31.8947532,21.5066802 32.1752727,21.3465939 C34.3411948,19.8822843 36.2920519,18.140533 38.4065455,16.6152234 C39.2456104,16.0095584 38.8946494,15.6872183 38.2871688,15.3023299 C36.9179221,14.2080457 35.8612987,12.7582893 34.310026,11.876731 C33.6143377,11.876731 32.8647273,12.0318629 32.428987,11.2583706 C32.1684156,10.6579695 32.774961,10.2777259 32.8132987,9.75225888 C32.8516364,9.55222843 32.9417143,9.38347208 33.1053506,9.25899492 L33.1053506,9.25899492 Z" id="Shape" fill="#9C9151" sketch:type="MSShapeGroup"></path>
                        <path d="M42.7377662,38.0506853 C42.8630649,38.0574975 42.988987,38.0649289 43.1142857,38.0717411 C43.3402597,38.5532386 43.0416623,38.965066 42.936,39.4022843 C41.3694545,41.0579543 39.4357403,40.8684518 37.5026494,40.3745685 C36.4332468,40.1008426 35.5960519,39.8444569 35.4349091,41.3886548 C35.3576104,42.1290152 34.7482597,42.3336904 34.036987,42.0850457 C33.9166753,42.0797817 33.7966753,42.0748274 33.6766753,42.0695635 C29.8756364,41.4292183 26.2048831,40.4541472 23.020987,37.8738782 C22.3645714,39.3604822 22.3785974,40.9040609 22.0295065,42.3590812 C21.806961,43.2867766 21.9581299,44.3281117 21.2128831,45.1031523 C20.5782857,48.1748274 19.8498701,51.2307107 19.636987,54.3732944 C19.0282597,55.9190406 18.9204156,57.5753299 18.6392727,59.1861015 C18.4718961,60.1444518 17.9629091,60.5321269 17.1353766,60.6268782 C14.9336104,60.8804772 12.7318442,60.9987614 10.6061299,60.1546701 C10.4761558,59.4954365 10.9782857,59.4530152 11.4087273,59.3396853 C11.6711688,59.3053147 11.9320519,59.3248223 12.1895065,59.3749848 C13.2984935,59.6660508 14.4068571,59.7440812 15.5111688,59.3508325 C16.5584416,59.1052843 17.0194286,58.4253046 17.1712208,57.3842792 C17.3566753,56.1116396 17.6920519,54.8606751 17.6995325,53.5614061 C17.7032727,53.3982234 17.7213506,53.2378274 17.7475325,53.0774315 C18.225039,51.0718629 18.6751169,49.062269 18.9201039,47.0136599 C19.0915325,45.2359898 19.9514805,43.5143655 19.3549091,41.6756954 C19.3087792,41.4357208 19.3128312,41.1948173 19.3620779,40.9570102 C19.3991688,40.8062132 19.4674286,40.6668731 19.5603117,40.5423959 C20.1705974,40.2519492 20.1945974,39.663934 20.289039,39.1121472 C20.784,36.2256396 21.4260779,33.3660711 21.9179221,30.4780152 C22.0432208,30.0952944 22.2854026,29.8094924 22.6413506,29.6190609 C22.7915844,29.5654924 22.9421299,29.5676599 23.0914286,29.6240152 C23.1157403,29.7847208 23.1406753,29.9448071 23.1646753,30.1055127 C23.6917403,30.6650406 23.6552727,31.3837259 23.5087792,32.0085888 C23.1154286,33.6850051 23.9523117,34.8226396 25.1192727,35.7509543 C27.4120519,37.5753807 30.0748052,38.7291168 32.822961,39.7054264 C33.6598442,40.0023756 34.2018701,39.6989239 34.6578701,39.012132 C35.1531429,38.266198 35.9208312,37.7212234 36.7683117,38.0506853 C38.7896104,38.8347056 40.7476364,38.8402792 42.7377662,38.0506853 L42.7377662,38.0506853 Z" id="Shape" fill="#9C9151" sketch:type="MSShapeGroup"></path>
                        <path d="M0.924779221,2.42730457 C0.966857143,2.33843655 0.973402597,2.24678173 0.944103896,2.15295939 C3.37776623,0.71806599 6.08633766,0.430406091 8.82857143,0.310573604 C9.34348052,0.288588832 9.61090909,0.645299492 9.79168831,1.14289848 C10.2317922,2.35329949 10.4998442,3.66216751 11.9195844,4.28083756 C12.4569351,4.51523858 12.4912208,5.20946193 12.3858701,5.79995431 C11.7503377,6.58056853 12.5778701,7.06485279 12.8038442,7.64667513 C13.108987,8.43348223 13.5475325,9.16919797 13.9287273,9.92658883 C14.7275844,10.4108731 14.635013,11.3463096 15.0127792,12.0436294 C16.3524156,14.9381878 17.6920519,17.8321269 19.0313766,20.7266853 C19.1560519,20.8322741 19.2084156,20.9666599 19.1984416,21.1282944 C19.0806234,21.5667513 19.0575584,22.0999594 18.36,21.965264 C17.0926753,19.6825635 15.830026,17.3933604 14.6580779,15.0611168 C13.507013,12.7697462 12.2396883,10.5381371 11.1313247,8.22447208 C10.6747013,7.27200508 10.1308052,6.35483756 8.78493506,6.85305584 C7.16883117,7.16115228 5.58077922,7.56895431 4.03605195,8.13250761 C3.60903896,8.24336041 3.18451948,8.28980711 2.77776623,8.05695431 C1.9358961,8.34337563 1.22275325,8.21394416 0.927896104,7.29832487 C0.670441558,6.49882234 -0.402077922,5.62903046 1.07844156,4.86978173 C1.57028571,4.61773096 1.06566234,4.15388325 1.03293506,3.78571574 C1.07283117,3.68198477 1.16322078,3.55472081 1.21433766,3.58042132 C3.19948052,4.58212183 5.25568831,4.0523198 7.29381818,3.86777157 C7.71366234,3.78974112 8.42337662,4.0461269 8.4801039,3.53769036 C8.55802597,2.83448731 7.67781818,2.94162437 7.25111688,2.6431269 C6.94846753,2.46198477 6.76987013,2.15203046 6.50431169,1.93280203 C4.75979221,1.66464975 3.19854545,2.30189848 1.62763636,2.89579695 C1.28851948,2.89424873 1.03979221,2.75924365 0.924779221,2.42730457 L0.924779221,2.42730457 Z" id="Shape" fill="#9C9151" sketch:type="MSShapeGroup"></path>
                        <path d="M41.7858701,13.3503299 C40.2455065,12.3418173 38.7144935,11.3184416 37.1585455,10.3343909 C36.6483117,10.0120508 36.5407792,9.7918934 37.0098701,9.30791878 C37.9997922,8.28578173 38.8447792,7.59620305 40.3371429,8.75148731 C41.6128831,9.73863452 43.1987532,10.3306751 44.6471688,11.0970457 C42.9802597,10.9536802 42.4323117,12.213934 41.7858701,13.3503299 L41.7858701,13.3503299 Z" id="Shape" fill="#FFFFFF" sketch:type="MSShapeGroup"></path>
                        <path d="M11.6839481,59.6778173 C11.2871688,59.752132 10.8364675,59.7087817 10.6061299,60.1549797 C9.07916883,59.6849391 7.57402597,59.1662843 6.29111688,58.1713959 C6.23033766,57.8639188 6.42233766,57.7357259 6.66763636,57.6440711 C8.42805195,58.1060609 10.2470649,58.4271624 11.6839481,59.6778173 L11.6839481,59.6778173 Z" id="Shape" fill="#9C9151" sketch:type="MSShapeGroup"></path>
                        <path d="M6.66109091,57.8366701 C6.53766234,57.9481421 6.41423377,58.0599239 6.29080519,58.1713959 C4.89444156,57.5706853 4.25828571,56.6157411 5.03968831,55.1653655 C5.34451948,54.5999543 4.82867532,53.961467 5.33205195,53.4750152 C5.61506494,53.4434315 5.88218182,53.3855279 5.99501299,53.0761929 C6.34005195,53.3836701 6.43418182,53.8181015 6.30888312,54.1971066 C5.8852987,55.4750102 6.07667532,56.6680711 6.66109091,57.8366701 L6.66109091,57.8366701 Z" id="Shape" fill="#9C9151" sketch:type="MSShapeGroup"></path>
                        <path d="M47.3304935,37.0951218 C47.6206753,35.9460305 47.4358442,34.8365736 47.0462338,33.7450761 C48.0286753,34.7870305 48.0215065,35.9125888 47.3304935,37.0951218 L47.3304935,37.0951218 Z" id="Shape" fill="#EBE1A8" sketch:type="MSShapeGroup"></path>
                        <path d="M15.0124675,12.0433198 C14.6512208,11.3376396 14.2902857,10.6316497 13.9284156,9.92627919 C15.1281039,10.2083655 15.0246234,11.1487563 15.0124675,12.0433198 L15.0124675,12.0433198 Z" id="Shape" fill="#EBE1A8" sketch:type="MSShapeGroup"></path>
                        <path d="M6.66109091,57.8366701 C5.49942857,57.1272741 5.05807792,56.2317817 5.69361039,54.8913299 C5.94607792,54.3593604 5.90368831,53.689599 5.99532468,53.0786701 C6.09257143,52.8739949 6.18950649,52.6724162 6.28706494,52.4711472 C6.50524675,50.3129239 7.28664935,48.2974467 7.88758442,46.2364518 C9.51397403,40.658203 11.3644675,35.1449797 12.7801558,29.5060406 C13.0859221,28.2863503 13.0584935,27.322736 12.1352727,26.1463959 C10.7049351,24.3235178 10.1625974,21.9906548 9.90109091,19.6593401 C9.87272727,18.6458731 9.88987013,17.6327157 9.88394805,16.6211066 C10.0316883,14.4362538 8.77776623,12.6855228 8.04249351,10.7743959 C7.84706494,10.0080254 7.20280519,9.42496447 7.13735065,8.60347716 C7.13236364,8.09163452 7.11116883,7.52219797 7.68935065,7.31380711 C8.26815584,7.10479695 8.62566234,7.55378173 8.9467013,7.95291371 C9.26867532,8.35390355 9.60935065,8.72114213 10.1376623,8.84654822 C11.6599481,9.78353299 12.0423896,11.5119695 12.748987,12.9258071 C14.0802078,15.5899898 15.7742338,18.0590964 16.9374545,20.8040964 C17.270961,21.5912132 18.0162078,22.0380305 18.4896623,22.7071726 C18.552,22.851467 18.5092987,23.0118629 18.5364156,23.152132 C18.5987532,23.4732335 18.6975584,23.1422234 18.7190649,23.1258122 C23.3385974,19.632401 27.8833247,16.0436193 32.4791688,12.5204822 C33.0508052,12.082335 33.7452468,11.8525787 34.3474286,11.4649036 C35.8647273,12.5019036 37.3854545,13.5351878 38.3678961,15.1481269 C38.284987,15.7222081 37.8292987,15.9386497 37.3854545,16.1668579 C36.6688831,16.5570102 36.0271169,17.0487259 35.4296104,17.6008223 C33.8702338,18.7889289 33.0866494,20.6898376 31.4851948,21.8367614 C31.1114805,22.330335 30.7380779,22.8239086 30.3634286,23.3174822 C28.7828571,23.8890863 27.8337662,25.2905381 26.5243636,26.225665 C25.3683117,27.0511777 24.4694026,28.2129645 23.1942857,28.9146193 C22.9016104,29.0759442 22.8345974,29.3933299 22.8006234,29.7057614 C22.6927792,30.0101421 22.4583896,30.1872589 22.1753766,30.3142132 C21.1854545,31.3286091 21.326026,32.6733959 21.1103377,33.9144518 C20.798961,35.7029594 20.8101818,37.5608274 19.9627013,39.2350761 C19.5441039,39.5286193 19.3162597,39.3270406 19.1650909,38.9266701 C18.9328831,38.312335 18.7723636,37.669203 18.4974545,37.2288883 C18.873974,38.3510406 19.5799481,39.5242843 19.651013,40.8957005 C19.6575584,41.0864416 19.6647273,41.2768731 19.6712727,41.4682335 C19.8448831,43.6772386 19.1869091,45.7085076 18.3241558,47.6973553 C17.5118961,48.5817005 16.4714805,49.3651015 16.9371429,50.8114518 C16.9932468,51.1659949 17.0035325,51.5223959 16.9798442,51.8797259 C16.6061299,52.9637919 17.1347532,53.4034873 18.1486753,53.4988579 C18.2552727,55.2666193 17.5901299,56.931269 17.4498701,58.6693046 C17.3601039,59.785264 16.2638961,59.4229797 15.6342857,59.747797 C14.4900779,59.9589746 13.3461818,59.9775533 12.2041558,59.7332437 C12.0299221,59.7149746 11.8566234,59.6970152 11.6827013,59.6787462 C9.96748052,59.1777411 8.25163636,58.6761168 6.66109091,57.8366701 L6.66109091,57.8366701 Z" id="Shape" fill="#FFFFFF" sketch:type="MSShapeGroup"></path>
                        <path d="M34.3474286,11.4652132 C28.9346494,15.940198 23.3376623,20.1745888 17.5645714,24.3727513 C17.4046753,23.4620863 18.4276364,23.4983147 18.3730909,22.8585888 C18.4033247,22.5461574 18.0115325,22.1309239 18.5962597,21.9531878 C18.7327792,21.6491168 18.868987,21.344736 19.0051948,21.0403553 C19.2495584,21.565203 19.3972987,22.1591015 20.1724675,21.4726193 C23.0256623,18.9468477 25.915013,16.4607107 28.7906494,13.9603299 C30.0077922,13.0094112 31.2255584,12.0575635 32.4433247,11.106335 C32.9816104,11.7327462 33.7427532,11.1883909 34.3474286,11.4652132 L34.3474286,11.4652132 Z" id="Shape" fill="#9C9151" sketch:type="MSShapeGroup"></path>
                        <path d="M38.3682078,15.1481269 C39.0171429,15.0639036 39.4073766,15.4989543 40.0550649,15.9720914 C38.6598172,16.8387287 37.426524,17.8718538 36.1856517,18.8716239 C34.9153516,19.8951041 33.6371086,20.8836286 32.169039,21.622797 C32.6627532,19.8042538 34.228987,18.8152487 35.3884675,17.511335 C35.9884675,16.9391117 36.7131429,16.4916751 37.1613506,15.7671066 C37.6983896,15.8194365 37.9748571,15.3716904 38.3682078,15.1481269 Z" id="Shape" fill="#FFFFFF" sketch:type="MSShapeGroup"></path>
                        <path d="M22.8009351,29.7048325 C22.228987,29.0353807 22.7071169,28.8133655 23.2360519,28.4470558 C25.2813506,27.0307411 27.2035325,25.4688934 28.8532987,23.5859442 C29.1824416,23.2106548 29.774026,22.9245431 30.3637403,23.3171726 C27.9400519,25.4193503 25.5157403,27.5215279 23.0923636,29.6240152 C22.9876364,29.6252538 22.8907013,29.6521929 22.8009351,29.7048325 L22.8009351,29.7048325 Z" id="Shape" fill="#FFFFFF" sketch:type="MSShapeGroup"></path>
                        <path d="M35.5661299,17.6132081 C34.5503377,19.0474822 33.0311688,20.0600203 32.1696623,21.622797 C31.9982338,21.8729898 31.8972468,22.3458173 31.4855065,21.8361421 C32.4383377,20.073335 33.7153247,18.5786802 35.2762597,17.3199746 C35.4155844,17.3760203 35.510026,17.4754162 35.5661299,17.6132081 L35.5661299,17.6132081 Z" id="Shape" fill="#9C9151" sketch:type="MSShapeGroup"></path>
                        <path d="M45.3316364,10.431 C43.5777662,10.0170051 42.1380779,9.1236802 40.9259221,7.85042132 C42.6729351,8.23995431 44.0144416,9.33826396 45.3316364,10.431 L45.3316364,10.431 Z" id="Shape" fill="#FFFFFF" sketch:type="MSShapeGroup"></path>
                        <path d="M19.6722078,39.2997919 C20.4526753,36.7520355 20.5334026,34.0921878 20.918961,31.4818832 C21.0402078,30.6625635 21.3331948,30.2556904 22.1753766,30.3135939 C22.4359481,31.6128629 21.8655584,32.8108782 21.6797922,34.0525533 C21.3671688,36.1380102 20.9198961,38.2036497 20.5362078,40.279198 C20.4127792,40.9486497 20.1400519,41.0195584 19.6927792,40.5173147 C19.4627532,40.1150863 19.3704935,39.711 19.6722078,39.2997919 L19.6722078,39.2997919 Z" id="Shape" fill="#FFFFFF" sketch:type="MSShapeGroup"></path>
                        <path d="M16.5643636,51.8208934 C16.5640519,51.5220863 16.5640519,51.2229695 16.5637403,50.9241624 C16.5575065,49.5341675 17.0278442,48.4175888 18.3805714,47.8106853 C18.6729351,47.5279797 18.7477403,46.9783604 19.3265455,47.0436954 C18.9643636,49.109335 18.8798961,51.2291624 18.1081558,53.2152234 C16.4961039,53.9490812 16.8988052,52.4826041 16.5643636,51.8208934 L16.5643636,51.8208934 Z" id="Shape" fill="#FFFFFF" sketch:type="MSShapeGroup"></path>
                        <path d="M19.3262338,47.0443147 C19.123013,47.3576751 18.9194805,47.6704162 18.7159481,47.9837766 C18.4048831,48.0881269 18.2331429,47.9385685 18.1277922,47.6667005 C17.9791169,46.1413909 19.0852987,44.9678376 19.3147013,43.5236548 C19.4216104,42.8480102 18.5984416,41.9633553 19.6718961,41.466066 C20.5330909,42.676467 19.8314805,43.8992538 19.6877922,45.1124416 C19.6104935,45.7620761 19.4493506,46.4008731 19.3262338,47.0443147 L19.3262338,47.0443147 Z" id="Shape" fill="#FFFFFF" sketch:type="MSShapeGroup"></path>
                        <path d="M19.6722078,39.2997919 C19.6787532,39.705736 19.6859221,40.1110609 19.6927792,40.5173147 C19.6790649,40.6427208 19.6653506,40.7687462 19.6513247,40.8944619 C19.0575584,39.3682234 18.4641039,37.8426041 17.8706494,36.3163655 C19.0905974,36.9721929 18.9936623,38.3547563 19.6722078,39.2997919 L19.6722078,39.2997919 Z" id="Shape" fill="#9C9151" sketch:type="MSShapeGroup"></path>
                        <path d="M16.5643636,51.8208934 C16.9016104,52.4795076 16.9464935,53.4576751 18.1081558,53.2158426 C18.1692468,53.3028528 18.1832727,53.3966751 18.1499221,53.4976193 C16.5437922,53.9447462 16.1666494,53.5456142 16.5643636,51.8208934 L16.5643636,51.8208934 Z" id="Shape" fill="#928A59" sketch:type="MSShapeGroup"></path>
                        <path id="Shape" fill="#4C491C" sketch:type="MSShapeGroup" d="M12.2047792,59.7323147 C13.3480519,59.737269 14.4913247,59.7419137 15.6349091,59.746868 C14.4894545,60.2175279 13.3461818,60.2388934 12.2047792,59.7323147 L12.2047792,59.7323147 Z"></path>
                        <path d="M10.3514805,19.7859848 C10.809974,21.5744924 11.0054026,23.4534162 12.0109091,25.0610914 C12.3484675,25.6004924 12.1277922,26.6994213 13.3801558,26.4848376 C13.6232727,26.4433452 13.6871688,27.1016497 13.6348052,27.4487614 C13.5048312,28.3126701 13.3708052,29.1827716 13.142961,30.0240761 C11.0964156,37.5781675 8.84322078,45.0709492 6.28644156,52.4711472 C5.55896104,51.6843401 6.19916883,50.8752386 6.37496104,50.1695584 C8.06587013,43.375335 9.62774026,36.5461218 11.6636883,29.8423147 C11.9632208,28.8557868 11.822026,28.0912741 11.419013,27.206 C8.51532468,20.833203 5.65277922,14.4418274 2.77683117,8.05602538 C3.09506494,7.89036548 3.4161039,7.78663452 3.74867532,8.02258376 C5.02285714,8.63103553 5.09205195,10.0773858 5.87314286,11.0286142 C6.06514286,11.4135025 6.07542857,11.8655838 6.32446753,12.2303452 C6.82285714,13.3147208 7.19376623,14.466599 8.01257143,15.3825279 C8.40124675,16.9227005 9.51428571,18.1848122 9.73527273,19.7912487 C9.76332468,19.9937563 9.85994805,20.120401 9.82005195,19.9203706 C9.8054026,19.8466751 9.93038961,19.7609036 10.0204675,19.6964975 C10.1554286,19.6512893 10.262961,19.6853503 10.3514805,19.7859848 L10.3514805,19.7859848 Z" id="Shape" fill="#9C9151" sketch:type="MSShapeGroup"></path>
                        <path d="M7.53257143,4.2554467 C6.45818182,4.37156345 5.38503896,4.4994467 4.30971429,4.60008122 C3.22535065,4.70164467 2.01288312,5.14722335 1.45402597,3.65040102 C1.45184416,3.64451777 1.18005195,3.7383401 1.03355844,3.78602538 C0.914805195,3.5435736 0.795428571,3.30143147 0.676363636,3.05928934 C2.54524675,2.5883198 4.44249351,2.36785279 6.37153247,2.41770558 C7.08654545,2.82457868 7.90753247,3.16859391 7.53257143,4.2554467 L7.53257143,4.2554467 Z" id="Shape" fill="#FFFFFF" sketch:type="MSShapeGroup"></path>
                        <path d="M6.57693506,2.72239594 C4.60893506,2.81343147 2.67366234,3.47297462 0.676363636,3.05928934 C0.628675325,2.79794924 0.542025974,2.52143655 0.924779221,2.42730457 C1.17319481,2.52701015 1.42161039,2.62733503 1.67002597,2.72704061 C3.37963636,2.17556345 5.14285714,1.85724873 6.90545455,1.53583756 C7.00768831,1.81854315 7.10961039,2.10124873 7.21153247,2.38395431 C7.10649351,2.69452792 6.85901299,2.74035533 6.57693506,2.72239594 L6.57693506,2.72239594 Z" id="Shape" fill="#9C9151" sketch:type="MSShapeGroup"></path>
                        <path d="M5.6558961,11.1592843 C4.64322078,10.3399645 4.52509091,8.98495939 3.74961039,8.02320305 C5.25787013,6.95709645 7.06535065,6.84314721 8.78742857,6.45825888 C9.80135065,7.12616244 10.4113247,7.97304061 10.0416623,9.25311168 C9.34690909,9.23577157 9.01028571,8.70689848 8.61412987,8.26503553 C8.36976623,7.99223858 8.29807792,7.38812183 7.77662338,7.6160203 C7.35085714,7.8024264 7.58836364,8.33191878 7.50327273,8.70349239 C7.26109091,9.66462944 8.26815584,10.1811168 8.34202597,11.0320203 C9.25464935,12.8168122 10.0425974,14.6390711 10.176,16.6734365 C10.1195844,17.7110558 10.3069091,18.7551777 10.0656623,19.7847462 C9.87771429,19.9113909 9.9038961,20.5350152 9.79355844,20.285132 C9.08664935,18.6935584 7.88509091,17.2818883 7.85205195,15.4274264 C7.67625974,15.1218071 7.70524675,14.7688122 7.61797403,14.4412081 C7.45901299,13.0536904 6.22877922,12.2997056 5.6558961,11.1592843 L5.6558961,11.1592843 Z" id="Shape" fill="#FFFFFF" sketch:type="MSShapeGroup"></path>
                        <path d="M10.0416623,9.25342132 C9.82722078,8.23128426 9.19885714,7.3927665 8.78742857,6.45887817 C9.9014026,5.81729442 10.5575065,6.0708934 11.1612468,7.27974619 C13.3845195,11.7308883 15.729974,16.1225787 18.0177662,20.5418274 C18.2509091,20.9917411 18.4051948,21.4819086 18.5959481,21.9538071 C18.758026,22.3129949 18.7075325,22.6207817 18.3727792,22.8592081 C17.2064416,22.3520102 16.7211429,21.3676497 16.1856623,20.2622183 C14.8454026,17.4946142 13.353974,14.7911066 11.7724675,12.1510761 C11.1964675,11.1880812 11.126961,9.91079695 10.0416623,9.25342132 L10.0416623,9.25342132 Z" id="Shape" fill="#FFFFFF" sketch:type="MSShapeGroup"></path>
                        <path d="M6.90545455,1.53583756 C5.2747013,2.42854315 3.50836364,2.73385279 1.67002597,2.72673096 C3.21288312,1.45130457 5.02254545,1.33425888 6.90545455,1.53583756 L6.90545455,1.53583756 Z" id="Shape" fill="#FFFFFF" sketch:type="MSShapeGroup"></path>
                        <path d="M6.57693506,2.72239594 C6.66888312,2.38828934 6.98493506,2.46848731 7.21184416,2.38426396 C7.72644156,2.56850254 8.39719481,2.04365482 8.79023377,2.65798985 C9.05735065,3.0763198 9.57724675,3.62439086 9.27709091,4.03467005 C8.89402597,4.55735025 8.13412987,4.24553807 7.53257143,4.2554467 C7.50763636,3.56339086 6.79667532,3.294 6.57693506,2.72239594 L6.57693506,2.72239594 Z" id="Shape" fill="#FFFFFF" sketch:type="MSShapeGroup"></path>
                        <path d="M9.97994805,16.390731 C9.57319481,14.4706244 8.86597403,12.6496041 8.12446753,10.839731 C7.968,10.5093401 8.14316883,10.4786853 8.40841558,10.5303959 C9.27335065,12.4077716 10.3228052,14.2266244 10.3321558,16.3814416 C10.2196364,16.564132 10.1021299,16.5669188 9.97994805,16.390731 L9.97994805,16.390731 Z" id="Shape" fill="#9C9151" sketch:type="MSShapeGroup"></path>
                        <path d="M14.9516883,51.3548782 C14.956987,53.075264 15.0907013,54.7807868 15.5943896,56.4469848 C14.3678961,54.4197411 14.1684156,52.2562538 14.6312727,50.0026599 C15.0863377,50.3717563 14.6864416,50.9411929 14.9516883,51.3548782 L14.9516883,51.3548782 Z" id="Shape" fill="#9C9151" sketch:type="MSShapeGroup"></path>
                        <path d="M18.1281039,47.6667005 C18.3241558,47.772599 18.5198961,47.8784975 18.7159481,47.983467 C17.1668571,48.363401 17.0558961,49.7815736 16.5634286,50.9238528 C16.0796883,49.5242589 16.564987,48.514198 18.1281039,47.6667005 L18.1281039,47.6667005 Z" id="Shape" fill="#9C9151" sketch:type="MSShapeGroup"></path>
                        <path d="M14.9516883,51.3548782 C14.5798442,50.9659645 14.7593766,50.4482386 14.6318961,50.0026599 C14.529039,49.1198629 14.947013,48.4033452 15.3771429,47.6905431 C15.6398961,47.6533858 15.7944935,47.7174822 15.6931948,48.0218629 C15.158961,49.0703198 15.024,50.2057868 14.9516883,51.3548782 L14.9516883,51.3548782 Z" id="Shape" fill="#9C9151" sketch:type="MSShapeGroup"></path>
                        <path d="M35.5661299,17.6132081 C35.4691948,17.5159797 35.3725714,17.4178223 35.2756364,17.3205939 C35.7637403,16.6350406 36.4612987,16.1996802 37.161039,15.766797 C37.1635325,16.8378579 36.1281039,17.023335 35.5661299,17.6132081 L35.5661299,17.6132081 Z" id="Shape" fill="#9C9151" sketch:type="MSShapeGroup"></path>
                        <path d="M8.40872727,10.5307056 C8.31397403,10.6338173 8.21984416,10.7369289 8.12477922,10.8400406 C7.74327273,10.1876193 7.22587013,9.57483249 7.01454545,8.87224873 C6.74119481,7.96313198 7.30441558,8.69079695 7.50358442,8.70349239 C7.80498701,9.31256345 8.1067013,9.92163452 8.40872727,10.5307056 L8.40872727,10.5307056 Z" id="Shape" fill="#867B52" sketch:type="MSShapeGroup"></path>
                        <path d="M15.6925714,48.0221726 C15.5872208,47.9119391 15.4818701,47.8007766 15.3765195,47.6908528 C15.6928831,46.9520406 16.3022338,46.5488832 17.1347532,46.3587614 C16.6541299,46.913335 16.1735065,47.4679086 15.6925714,48.0221726 L15.6925714,48.0221726 Z" id="Shape" fill="#877F4C" sketch:type="MSShapeGroup"></path>
                        <path id="Shape" fill="#443C0E" sketch:type="MSShapeGroup" d="M9.97994805,16.390731 C10.0974545,16.3873249 10.214961,16.3842284 10.3324675,16.3817513 C10.339013,17.516599 10.3452468,18.6511371 10.3517922,19.7859848 C10.2567273,19.7853655 10.1613506,19.7847462 10.065974,19.7841269 C9.86524675,18.6570203 9.91293506,17.5240305 9.97994805,16.390731 L9.97994805,16.390731 Z"></path>
                        <path d="M7.84457143,14.5724975 C8.04155844,14.8555127 8.09703896,15.1400761 7.85205195,15.4271168 C6.56696104,14.7963706 6.61246753,13.3292741 5.88841558,12.3458426 C5.95885714,11.8423604 6.26587013,11.9538325 6.49963636,12.1650102 C7.21714286,12.8115482 7.75948052,13.5704873 7.84457143,14.5724975 L7.84457143,14.5724975 Z" id="Shape" fill="#FFFFFF" sketch:type="MSShapeGroup"></path>
                        <path d="M7.84457143,14.5724975 C7.17007792,13.8497868 7.26202597,12.4628883 5.88872727,12.3458426 C5.51314286,12.0077107 5.67584416,11.5655381 5.65558442,11.1592843 C6.79916883,12.035269 8.17994805,12.7607665 7.84457143,14.5724975 L7.84457143,14.5724975 Z" id="Shape" fill="#9C9151" sketch:type="MSShapeGroup"></path>
                    </g>
                </g>
            </g>
        </g>
    </g>
</svg>