<svg width="100" height="101" viewBox="0 0 100 101" xmlns="http://www.w3.org/2000/svg" xmlns:xlink="http://www.w3.org/1999/xlink">
    <title>
        haml
    </title>
    <defs>
        <ellipse id="a" cx="50" cy="50.5" rx="50" ry="50"/>
    </defs>
    <g fill="none" fill-rule="evenodd">
        <mask id="b" fill="#fff">
            <use xlink:href="#a"/>
        </mask>
        <use fill="#EBE1A8" xlink:href="#a"/>
        <g mask="url(#b)">
            <path d="M59.105 28.76l.61-.59c.1-.01.202-.02.304-.028 1.4-.095 2.13-1.515 3.47-1.727 1.402-1.077 2.75-.7 4.127.09 1.34.77 2.692 1.517 3.86 2.532.47.41 1.34.822.964 1.55-.42.815-1.18-.03-1.793.01-1.663-.128-2.956-1.116-4.357-1.852-.365-.19-.694-.48-1.112-.53-.754-.086-1.36.292-1.645.913-.26.57.427.706.767.972 1.167.91 2.617 1.468 3.487 2.75.73.974 1.365.39 2.017-.112.24-.186.603-.392.805-.118.19.26-.154.533-.32.777-.41.178-.534.476-.645.925-.273 1.105-.683 2.218-2.214 1.935-.502-.093-.775.21-1.088.46-.485.387-.893.904-1.43 1.18-1.9.98-2.482 2.712-2.894 4.607-.54 2.48.09 3.642 2.552 4.456 3.525 1.166 6.482 3.085 8.478 6.285.66 1.07.76 2.186.284 3.35-.463.97-.915 2.028-1.95 2.463-1.49.627-1.272 2.03-1.69 3.15-.24.29-.127.84-.676.897-.88.698-1.66 1.536-2.76 1.92-1.347.38-2.695.246-4.044-.003-1.342.32-2.153-1.01-3.372-1.07-.44-1.048-.01-1.833.763-2.514.155-.02.306 0 .45.064.29 1.62 1.43 1.855 2.838 1.823 1.458-.034 2.893-.035 4.06-1.08.495-.446 1.014-.85.754-1.678-.237-.753.417-1.066.894-1.44.41-.428.6-.885.19-1.423-.098-.106-.15-.23-.162-.37.733-1.2.774-1.2 1.92.03 1.252-1.208 1.268-2.513.018-4.01-1.467-1.754-3.363-2.875-5.52-3.59-.492-.163-.996-.287-1.49-.443-3.27-1.033-4.41-2.583-4.41-6.21-.863.51-1.562 1.078-2.255 1.642-1.848 1.503-3.813 2.845-5.752 4.223-.574.408-1.153.924-1.974.652-.12-.095-.194-.218-.232-.365.555-1.61 2.126-2.275 3.23-3.366 1.2-1.187 2.632-2.132 3.812-3.353.465-.392.704-1.042 1.372-1.203.472.168.55-.333.83-.493 2.165-1.465 4.116-3.206 6.23-4.732.84-.605.49-.928-.12-1.313-1.368-1.094-2.425-2.544-3.976-3.425-.696 0-1.445.155-1.88-.62-.262-.6.345-.98.383-1.505.04-.2.13-.37.292-.493z" fill="#9C9151"/>
            <path d="M68.738 57.55l.376.022c.226.48-.072.893-.178 1.33-1.567 1.656-3.5 1.466-5.433.973-1.07-.274-1.907-.53-2.068 1.014-.077.74-.687.944-1.398.695l-.36-.015c-3.8-.64-7.472-1.616-10.656-4.196-.655 1.486-.64 3.03-.99 4.485-.223.927-.072 1.968-.817 2.743-.635 3.072-1.363 6.128-1.576 9.27-.61 1.546-.717 3.202-.998 4.813-.168.958-.677 1.346-1.505 1.44-2.2.254-4.403.373-6.53-.47-.13-.66.373-.703.804-.816.26-.035.522-.015.78.035 1.108.29 2.217.37 3.32-.024 1.048-.245 1.51-.925 1.66-1.966.187-1.272.522-2.523.53-3.823.003-.162.02-.322.048-.483.477-2.005.927-4.015 1.172-6.063.172-1.778 1.03-3.5.435-5.338-.046-.24-.042-.48.007-.72.037-.15.105-.29.198-.414.61-.29.635-.878.73-1.43.494-2.886 1.136-5.746 1.628-8.634.125-.383.367-.67.723-.86.152-.053.302-.05.45.006.026.16.05.32.075.482.527.56.49 1.278.344 1.903-.395 1.675.442 2.813 1.61 3.74 2.292 1.825 4.955 2.98 7.703 3.955.837.297 1.38-.006 1.835-.693.495-.746 1.263-1.29 2.11-.96 2.022.783 3.98.788 5.97 0zM26.925 21.927c.042-.09.048-.18.02-.274 2.433-1.435 5.14-1.723 7.884-1.842.513-.02.78.335.962.833.44 1.21.708 2.52 2.128 3.138.537.235.57.93.466 1.52-.636.78.192 1.265.418 1.847.305.786.744 1.522 1.125 2.28.798.484.705 1.42 1.083 2.117 1.34 2.894 2.68 5.788 4.018 8.683.126.105.178.24.168.4-.117.44-.14.973-.838.838-1.267-2.282-2.53-4.572-3.702-6.904-1.15-2.29-2.418-4.522-3.527-6.836-.455-.952-1-1.87-2.345-1.37-1.616.307-3.204.715-4.75 1.28-.426.11-.85.156-1.257-.077-.842.286-1.555.157-1.85-.76-.258-.798-1.33-1.668.15-2.427.492-.252-.012-.716-.045-1.084.04-.104.13-.23.18-.206 1.986 1.002 4.043.472 6.08.288.42-.078 1.13.178 1.187-.33.078-.704-.802-.596-1.23-.895-.302-.18-.48-.49-.746-.71-1.744-.268-3.305.37-4.876.963-.34-.002-.588-.137-.703-.47z" fill="#9C9151"/>
            <path d="M67.786 32.85c-1.54-1.008-3.072-2.032-4.627-3.016-.512-.322-.62-.542-.15-1.026.99-1.022 1.835-1.712 3.327-.557 1.276.99 2.862 1.58 4.31 2.347-1.667-.143-2.215 1.117-2.86 2.253z" fill="#FFF"/>
            <path d="M37.684 79.178c-.397.074-.848.03-1.078.477-1.527-.47-3.032-.99-4.315-1.984-.06-.306.132-.434.378-.526 1.76.462 3.58.783 5.016 2.034z" fill="#9C9151"/>
            <path d="M32.66 77.337l-.37.334c-1.396-.6-2.032-1.554-1.25-3.005.305-.565-.21-1.204.292-1.69.283-.032.55-.09.663-.4.345.31.44.743.314 1.122-.425 1.278-.233 2.47.35 3.64z" fill="#9C9151"/>
            <path d="M73.33 56.595c.29-1.15.106-2.258-.284-3.35.983 1.042.976 2.168.284 3.35zM41.012 31.543l-1.084-2.117c1.2.282 1.097 1.223 1.084 2.117z" fill="#EBE1A8"/>
            <path d="M32.66 77.337c-1.16-.71-1.602-1.605-.966-2.946.252-.53.21-1.2.3-1.81l.293-.61c.218-2.157 1-4.173 1.6-6.234 1.627-5.578 3.477-11.09 4.893-16.73.306-1.22.278-2.183-.645-3.36-1.43-1.822-1.972-4.155-2.234-6.487-.027-1.014-.01-2.027-.016-3.04.148-2.184-1.106-3.934-1.842-5.846-.195-.766-.84-1.35-.905-2.17-.005-.512-.026-1.082.552-1.29.578-.21.936.24 1.257.64.322.4.662.767 1.19.893 1.523.937 1.905 2.665 2.612 4.08 1.33 2.663 3.024 5.132 4.187 7.877.334.787 1.08 1.234 1.553 1.903.062.144.02.305.046.445.063.32.162-.01.183-.026 4.62-3.494 9.163-7.082 13.76-10.606.57-.438 1.265-.667 1.867-1.055 1.518 1.037 3.038 2.07 4.02 3.683-.082.574-.538.79-.982 1.02-.716.39-1.358.88-1.955 1.433-1.56 1.19-2.343 3.09-3.945 4.237l-1.122 1.48c-1.58.572-2.53 1.974-3.84 2.91-1.155.824-2.054 1.986-3.33 2.688-.29.16-.358.478-.392.79-.107.305-.342.482-.625.61-.99 1.014-.85 2.358-1.065 3.6-.31 1.788-.3 3.646-1.147 5.32-.42.294-.647.092-.798-.308-.232-.615-.393-1.258-.668-1.698.377 1.12 1.083 2.294 1.154 3.666.008.19.015.38.02.572.175 2.21-.483 4.24-1.346 6.23-.812.884-1.853 1.667-1.387 3.113.056.356.067.712.043 1.07-.374 1.084.155 1.523 1.17 1.62.105 1.767-.56 3.43-.7 5.17-.09 1.115-1.186.753-1.816 1.078-1.144.21-2.288.23-3.43-.015l-.52-.054c-1.717-.502-3.432-1.004-5.023-1.843z" fill="#FFF"/>
            <path d="M60.347 30.965c-5.412 4.475-11.01 8.71-16.782 12.908-.16-.91.863-.875.808-1.514.03-.314-.36-.73.223-.907l.41-.913c.244.525.39 1.12 1.166.433 2.854-2.526 5.743-5.012 8.62-7.513l3.65-2.854c.54.627 1.3.082 1.905.36z" fill="#9C9151"/>
            <path d="M64.368 34.648c.65-.084 1.04.35 1.687.824-1.395.867-2.628 1.9-3.87 2.9-1.27 1.023-2.548 2.012-4.016 2.75.493-1.818 2.06-2.807 3.218-4.11.6-.573 1.325-1.02 1.773-1.745.538.052.815-.395 1.208-.62zM48.8 49.205c-.57-.67-.093-.892.436-1.258 2.045-1.416 3.968-2.978 5.617-4.86.33-.376.92-.662 1.51-.27l-7.27 6.307c-.105 0-.202.028-.292.08z" fill="#FFF"/>
            <path d="M61.566 37.113c-1.016 1.434-2.535 2.447-3.396 4.01-.172.25-.273.723-.684.213.952-1.763 2.23-3.257 3.79-4.516.14.056.234.155.29.293z" fill="#9C9151"/>
            <path d="M71.332 29.93c-1.754-.413-3.194-1.306-4.406-2.58 1.747.39 3.088 1.488 4.406 2.58zM45.672 58.8c.78-2.548.86-5.208 1.247-7.818.12-.82.413-1.226 1.255-1.168.26 1.3-.31 2.497-.495 3.74-.313 2.084-.76 4.15-1.144 6.225-.123.67-.396.74-.843.237-.23-.402-.323-.806-.02-1.217zM42.564 71.32v-.896c-.006-1.39.464-2.506 1.817-3.113.293-.282.368-.832.947-.766-.363 2.065-.447 4.185-1.22 6.17-1.61.735-1.208-.73-1.543-1.393z" fill="#FFF"/>
            <path d="M45.326 66.544l-.61.94c-.31.104-.483-.045-.588-.317-.15-1.526.957-2.7 1.187-4.143.107-.676-.717-1.56.357-2.058.86 1.21.16 2.433.016 3.646-.078.65-.24 1.29-.362 1.932z" fill="#FFF"/>
            <path d="M45.672 58.8l.02 1.217-.04.377c-.594-1.526-1.188-3.05-1.78-4.578 1.22.656 1.122 2.04 1.8 2.984z" fill="#9C9151"/>
            <path d="M42.564 71.32c.338.66.382 1.638 1.544 1.396.06.087.075.18.042.282-1.606.447-1.983.048-1.586-1.677z" fill="#928A59"/>
            <path fill="#4C491C" d="M38.205 79.232l3.43.015c-1.146.47-2.29.492-3.43-.015z"/>
            <path d="M36.35 39.286c.46 1.788.655 3.667 1.66 5.275.338.54.118 1.64 1.37 1.425.243-.042.307.617.255.964-.13.863-.264 1.733-.492 2.574-2.047 7.554-4.3 15.047-6.857 22.447-.727-.786-.087-1.595.09-2.3 1.69-6.795 3.252-13.624 5.288-20.328.3-.986.158-1.75-.245-2.636-2.905-6.373-5.767-12.764-8.643-19.15.318-.166.64-.27.972-.033 1.273.608 1.342 2.054 2.123 3.006.192.384.202.836.45 1.2.5 1.085.87 2.237 1.69 3.153.388 1.54 1.5 2.802 1.722 4.408.028.204.125.33.085.13-.015-.073.11-.16.2-.224.135-.045.243-.01.33.09z" fill="#9C9151"/>
            <path d="M33.533 23.755c-1.075.117-2.148.244-3.223.345-1.085.102-2.297.547-2.856-.95-.002-.005-.274.088-.42.136-.12-.242-.24-.485-.358-.727 1.87-.472 3.766-.692 5.696-.642.715.407 1.536.75 1.16 1.837z" fill="#FFF"/>
            <path d="M32.577 22.222c-1.968.09-3.903.75-5.9.337-.048-.262-.135-.54.248-.633l.745.3c1.71-.55 3.473-.87 5.235-1.19l.307.847c-.106.31-.353.356-.635.338z" fill="#9C9151"/>
            <path d="M31.656 30.66c-1.013-.82-1.13-2.175-1.906-3.137 1.508-1.066 3.315-1.18 5.037-1.565 1.014.668 1.624 1.515 1.255 2.795-.695-.017-1.032-.546-1.428-.988-.244-.273-.316-.877-.837-.65-.426.187-.19.717-.274 1.088-.242.962.765 1.478.84 2.33.912 1.784 1.7 3.606 1.833 5.64-.056 1.038.13 2.082-.11 3.112-.188.126-.162.75-.272.5-.707-1.59-1.91-3.003-1.942-4.858-.176-.305-.147-.658-.234-.986-.16-1.386-1.39-2.14-1.962-3.28z" fill="#FFF"/>
            <path d="M36.042 28.753c-.215-1.022-.843-1.86-1.255-2.794 1.114-.643 1.77-.39 2.374.82 2.225 4.45 4.57 8.843 6.858 13.262.233.45.387.94.578 1.412.162.36.112.667-.223.905-1.167-.508-1.652-1.492-2.187-2.598-1.34-2.767-2.832-5.47-4.414-8.11-.576-.964-.645-2.24-1.73-2.9zM32.905 21.036c-1.63.893-3.397 1.198-5.235 1.19 1.543-1.275 3.353-1.392 5.235-1.19zM32.577 22.222c.092-.334.408-.254.635-.338.514.185 1.185-.34 1.578.274.267.418.787.966.487 1.377-.383.522-1.143.21-1.744.22-.025-.692-.736-.96-.956-1.533z" fill="#FFF"/>
            <path d="M35.98 35.89c-.407-1.92-1.114-3.74-1.856-5.55-.156-.33.02-.36.284-.31.865 1.878 1.915 3.697 1.924 5.85-.112.184-.23.187-.352.01zM40.952 70.855c.005 1.72.14 3.426.642 5.092-1.226-2.027-1.426-4.19-.963-6.444.456.37.056.938.322 1.352zM44.128 67.167l.588.316c-1.55.38-1.66 1.8-2.153 2.94-.483-1.4.002-2.41 1.565-3.256z" fill="#9C9151"/>
            <path d="M40.952 70.855c-.372-.39-.193-.907-.32-1.352-.103-.883.315-1.6.745-2.312.263-.037.417.027.316.332-.534 1.048-.67 2.184-.74 3.333zM61.566 37.113l-.29-.292c.488-.685 1.185-1.12 1.885-1.553.004 1.07-1.032 1.256-1.594 1.846z" fill="#9C9151"/>
            <path d="M34.41 30.03l-.285.31c-.382-.652-.9-1.265-1.11-1.968-.274-.91.29-.18.49-.17.3.61.602 1.22.904 1.83z" fill="#867B52"/>
            <path d="M41.693 67.522l-.316-.33c.316-.74.925-1.143 1.758-1.333-.48.553-.96 1.108-1.442 1.662z" fill="#877F4C"/>
            <path fill="#443C0E" d="M35.98 35.89l.352-.008.02 3.404c-.095 0-.19 0-.286-.002-.2-1.127-.153-2.26-.086-3.393z"/>
            <path d="M33.845 34.072c.197.284.252.568.007.855-1.285-.63-1.24-2.098-1.964-3.08.07-.505.378-.393.612-.182.717.647 1.26 1.405 1.345 2.407z" fill="#FFF"/>
            <path d="M33.845 34.072c-.675-.722-.583-2.11-1.956-2.226-.377-.338-.214-.78-.234-1.187 1.143.875 2.524 1.6 2.19 3.412z" fill="#9C9151"/>
        </g>
    </g>
</svg>
