<svg width="100" height="100" viewBox="0 0 100 100" xmlns="http://www.w3.org/2000/svg">
    <g fill="none" fill-rule="evenodd">
        <g>
            <circle fill="#F0DB4F" cx="50" cy="50" r="50"/>
            <g>
                <path stroke="#DDC41C" stroke-width="1.89" fill="#fff" d="M25 25h50v50H25z"/>
                <path d="M45.115 64.884c.705.152 1.91 0 2.428-1.275.402-.99.233-4.137.217-7.36-.023-4.434 0-9.08 0-9.08h4.537v14.904s-.092 2.86-1.408 4.554c-1.31 1.684-3.835 2.2-5.435 2.216-5.05.05-6.445-3.96-6.445-3.96l3.593-2.226s1.034 1.907 2.512 2.226z" fill="#DDC41C"/>
                <path d="M64.198 52.782l3.69-2.314s-1.66-4.267-8.08-3.294c-6.417.973-4.448 8.273-4.448 8.273s.275 2.49 6.636 4.8c3.765 1.37 2.727 3.936 1.204 4.53-3.92 1.527-5.87-2.333-5.87-2.333l-3.62 2.03s1.318 3.935 6.862 4.427c2.522.224 3.996-.185 5.51-.91.846-.406 2.616-1.885 2.738-4.338.044-.9.13-2.36-.266-3.404-.454-1.194-1.427-1.936-1.916-2.312-2.08-1.598-4.642-2.49-4.642-2.49s-4.688-1.87-1.856-4.173c1.856-1.51 4.058 1.51 4.058 1.51z" fill="#DDC41C"/>
            </g>
        </g>
    </g>
</svg>
