<?xml version="1.0" encoding="UTF-8" standalone="no"?>
<svg width="100px" height="100px" viewBox="0 0 100 100" version="1.1" xmlns="http://www.w3.org/2000/svg" xmlns:xlink="http://www.w3.org/1999/xlink" xmlns:sketch="http://www.bohemiancoding.com/sketch/ns">
    <!-- Generator: Sketch 3.2.2 (9983) - http://www.bohemiancoding.com/sketch -->
    <title>JS' 4</title>
    <desc>Created with Sketch.</desc>
    <defs>
        <path id="path-1" d="M0.0365432099,0.0409912281 L49.0598683,0.0409912281 L49.0598683,69.1300877 L0.0365432099,69.1300877"></path>
    </defs>
    <g id="Page-1" stroke="none" stroke-width="1" fill="none" fill-rule="evenodd" sketch:type="MSPage">
        <g id="JS'-4" sketch:type="MSLayerGroup">
            <circle id="Oval-3" fill="#EABA31" sketch:type="MSShapeGroup" cx="50" cy="50" r="50"></circle>
            <g id="js" transform="translate(25.333333, 15.500000)">
                <g id="Group-3">
                    <mask id="mask-2" sketch:name="Clip 2" fill="white">
                        <use xlink:href="#path-1"></use>
                    </mask>
                    <g id="Clip-2"></g>
                    <path d="M49.0598683,13.5892237 L0,13.5892237 L4.5971358,63.5103421 L24.5296296,69.1666667 L44.4554239,63.5103421 L49.0598683,13.5892237" id="Fill-1" fill="#DC9D34" sketch:type="MSShapeGroup" mask="url(#mask-2)"></path>
                </g>
                <path d="M24.5296296,17.6555833 L24.5296296,64.9393596 L40.6707654,60.3590658 L44.6015967,17.6555833 L24.5296296,17.6555833" id="Fill-4" fill="#EABA31" sketch:type="MSShapeGroup"></path>
                <path d="M37.3715226,23.7813377 L12.5446749,23.7813377 L10.8192263,42.4731798 L10.8557695,42.3561272 L31.944856,42.3561272 L31.2566255,50.262057 L24.5296296,52.2037895 L17.7003128,50.2334035 L17.2904198,45.4482675 L11.0896461,45.4482675 L11.9758189,55.0100044 L24.5296296,58.5788904 L37.0840494,55.0100044 L38.8119342,36.2450044 L16.4334815,36.2450044 L16.7191276,29.9875658 L32.2512099,29.9875658 L32.4796049,33.5692544 L38.7358025,33.5692544 L37.3715226,23.7813377" id="Fill-5" fill="#FFFFFF" sketch:type="MSShapeGroup"></path>
                <path d="M17.2904198,45.4482675 L11.0896461,45.4482675 L11.9758189,55.0100044 L24.5296296,58.5709649 L24.5296296,52.2037895 L17.7003128,50.2334035 L17.2904198,45.4482675 L17.2904198,45.4482675 Z M24.5296296,23.7813377 L12.5446749,23.7813377 L10.8192263,42.4731798 L10.8557695,42.3561272 L24.5296296,42.3561272 L24.5296296,36.2450044 L17.2971193,36.2450044 L17.5821564,29.9875658 L24.5296296,29.9875658 L24.5296296,23.7813377 L24.5296296,23.7813377 Z" id="Fill-6" fill="#ECECE9" sketch:type="MSShapeGroup"></path>
                <path d="M19.7558683,6.22527193 L15.3932181,6.22527193 L15.3932181,9.36130702 L22.8821399,9.36130702 L22.8821399,0.0409912281 L19.7558683,0.0409912281 L19.7558683,6.22527193" id="Fill-7" fill="#1A1918" sketch:type="MSShapeGroup"></path>
                <path d="M33.6666502,0.0885438596 L26.0571358,0.0885438596 L26.0571358,3.35199561 C27.0742551,4.37132895 27.6059588,4.85904825 29.0786502,6.33317982 C28.2174486,6.33317982 26.0571358,6.33622807 26.0571358,6.33622807 L26.0571358,9.31375439 L33.6666502,9.31375439 L33.6666502,6.33561842 L30.6274733,3.35199561 L33.6666502,3.35199561 L33.6666502,0.0885438596" id="Fill-8" fill="#1A1918" sketch:type="MSShapeGroup"></path>
            </g>
        </g>
    </g>
</svg>