<svg xmlns="http://www.w3.org/2000/svg" viewBox="0 0 60 60" enable-background="new 0 0 60 60"><circle fill="#6F81B9" cx="30" cy="30" r="30"/><g fill="#fff"><path d="M19.052 23.744h-7.716l-3.336 16.891h3.962l.834-4.379h3.754c3.545.209 7.507-2.711 7.507-7.716 0-2.919-1.668-4.587-5.005-4.796zm-2.919 9.384h-2.503l1.043-6.256h2.711c1.46 0 2.502.626 2.502 1.877-.208 3.545-1.877 4.17-3.753 4.379z"/><path d="M23.267 36.256l3.336-16.891h3.962l-.834 4.379h3.754c3.336.209 4.588 1.877 4.171 3.962l-1.46 8.55h-4.171l1.46-7.716c.209-1.043.209-1.668-1.251-1.668h-3.128l-1.877 9.384h-3.962z"/><path d="M46.995 23.744h-7.715l-3.336 16.891h3.962l.834-4.379h3.754c3.544.208 7.506-2.711 7.506-7.716 0-2.919-1.668-4.587-5.005-4.796zm-2.919 9.384h-2.502l1.043-6.256h2.711c1.46 0 2.502.626 2.502 1.877-.209 3.545-1.877 4.17-3.754 4.379z"/></g></svg>