<svg width="100" height="100" viewBox="0 0 100 100" xmlns="http://www.w3.org/2000/svg" xmlns:xlink="http://www.w3.org/1999/xlink">
    <title>
        python
    </title>
    <defs>
        <ellipse id="a" cx="50" cy="50" rx="50" ry="50"/>
        <linearGradient x1="12.959%" y1="11.7%" x2="79.639%" y2="78.453%" id="d">
            <stop stop-color="#387EB8" offset="0%"/>
            <stop stop-color="#366994" offset="100%"/>
        </linearGradient>
        <path d="M29.03.244c-14.596 0-13.685 6.33-13.685 6.33l.016 6.558h13.93v1.97H9.83S.487 14.04.487 28.77 8.64 42.976 8.64 42.976h4.866v-6.834s-.262-8.153 8.023-8.153h13.814s7.762.124 7.762-7.503V7.877S44.286.243 29.03.243zm-7.68 4.41c1.386 0 2.506 1.12 2.506 2.506 0 1.386-1.12 2.506-2.506 2.506-1.386 0-2.506-1.12-2.506-2.506 0-1.386 1.12-2.506 2.506-2.506z" id="c"/>
        <linearGradient x1="19.128%" y1="20.316%" x2="90.742%" y2="88.773%" id="g">
            <stop stop-color="#FFE052" offset="0%"/>
            <stop stop-color="#FFC331" offset="100%"/>
        </linearGradient>
        <path d="M29.445 57.444c14.597 0 13.685-6.33 13.685-6.33l-.016-6.558h-13.93v-1.97h19.463s9.34 1.06 9.34-13.668c0-14.73-8.152-14.206-8.152-14.206H44.97v6.834s.26 8.153-8.023 8.153H23.13s-7.76-.127-7.76 7.5v12.612s-1.18 7.632 14.075 7.632zm7.68-4.41c-1.385 0-2.505-1.12-2.505-2.506 0-1.386 1.12-2.506 2.506-2.506 1.385 0 2.506 1.12 2.506 2.506 0 1.386-1.12 2.506-2.506 2.506z" id="f"/>
    </defs>
    <g fill="none" fill-rule="evenodd">
        <mask id="b" fill="#fff">
            <use xlink:href="#a"/>
        </mask>
        <use fill="#3777AC" xlink:href="#a"/>
        <g transform="translate(20.64 22.5)" mask="url(#b)">
            <mask id="e" fill="#fff">
                <use xlink:href="#c"/>
            </mask>
            <use fill="url(#d)" xlink:href="#c"/>
            <path fill="#FFF" mask="url(#e)" d="M-17.61-30.35h104.5V82.416h-104.5z"/>
            <mask id="h" fill="#fff">
                <use xlink:href="#f"/>
            </mask>
            <use fill="url(#g)" xlink:href="#f"/>
            <use xlink:href="#f"/>
            <path fill="#FFF" mask="url(#h)" d="M-17.61-30.35h104.5V82.416h-104.5z"/>
        </g>
    </g>
</svg>
