<svg width="100" height="100" viewBox="0 0 100 100" xmlns="http://www.w3.org/2000/svg" xmlns:xlink="http://www.w3.org/1999/xlink"><title>Group</title><defs><circle id="a" cx="50" cy="50" r="50"/><linearGradient x1="12.959%" y1="11.872%" x2="79.639%" y2="78.325%" id="c"><stop stop-color="#387EB8" offset="0%"/><stop stop-color="#366994" offset="100%"/></linearGradient><path d="M29.03.244c-14.596 0-13.685 6.33-13.685 6.33l.016 6.558h13.93v1.97H9.83S.487 14.04.487 28.77c0 14.73 8.153 14.206 8.153 14.206h4.866v-6.834s-.262-8.153 8.023-8.153h13.814s7.762.124 7.762-7.503V7.877S44.286.243 29.03.243v.001zm-7.68 4.41a2.503 2.503 0 0 1 2.506 2.506 2.503 2.503 0 0 1-2.506 2.506 2.503 2.503 0 0 1-2.506-2.506 2.503 2.503 0 0 1 2.506-2.506z" id="d"/><linearGradient x1="19.128%" y1="20.449%" x2="90.742%" y2="88.599%" id="f"><stop stop-color="#FFE052" offset="0%"/><stop stop-color="#FFC331" offset="100%"/></linearGradient><path d="M14.445 43.444c14.597 0 13.685-6.33 13.685-6.33l-.016-6.558h-13.93v-1.97h19.463s9.34 1.06 9.34-13.668C42.987.188 34.835.712 34.835.712H29.97v6.834s.26 8.153-8.023 8.153H8.13s-7.76-.127-7.76 7.5v12.612s-1.18 7.632 14.075 7.632v.001zm7.68-4.41a2.503 2.503 0 0 1-2.505-2.506 2.503 2.503 0 0 1 2.506-2.506 2.504 2.504 0 0 1 2.506 2.506 2.503 2.503 0 0 1-2.506 2.506h-.001z" id="g"/></defs><g fill="none" fill-rule="evenodd"><circle cx="50" cy="50" r="50" fill-rule="nonzero" fill="#3777AC"/><mask id="b" fill="#fff"><use xlink:href="#a"/></mask><g mask="url(#b)"><path d="M29.03.244c-14.596 0-13.685 6.33-13.685 6.33l.016 6.558h13.93v1.97H9.83S.487 14.04.487 28.77c0 14.73 8.153 14.206 8.153 14.206h4.866v-6.834s-.262-8.153 8.023-8.153h13.814s7.762.124 7.762-7.503V7.877S44.286.243 29.03.243v.001zm-7.68 4.41a2.503 2.503 0 0 1 2.506 2.506 2.503 2.503 0 0 1-2.506 2.506 2.503 2.503 0 0 1-2.506-2.506 2.503 2.503 0 0 1 2.506-2.506z" fill="url(#c)" fill-rule="nonzero" transform="translate(20.639 22.5)"/><g transform="translate(20.639 22.5)"><mask id="e" fill="#fff"><use xlink:href="#d"/></mask><path fill="#FFF" fill-rule="nonzero" mask="url(#e)" d="M-17.61-30.35h104.5V82.416h-104.5z"/></g><path d="M14.445 43.444c14.597 0 13.685-6.33 13.685-6.33l-.016-6.558h-13.93v-1.97h19.463s9.34 1.06 9.34-13.668C42.987.188 34.835.712 34.835.712H29.97v6.834s.26 8.153-8.023 8.153H8.13s-7.76-.127-7.76 7.5v12.612s-1.18 7.632 14.075 7.632v.001zm7.68-4.41a2.503 2.503 0 0 1-2.505-2.506 2.503 2.503 0 0 1 2.506-2.506 2.504 2.504 0 0 1 2.506 2.506 2.503 2.503 0 0 1-2.506 2.506h-.001z" fill-rule="nonzero" fill="url(#f)" transform="translate(35.639 36.5)"/><path d="M50.084 79.944c14.597 0 13.685-6.33 13.685-6.33l-.016-6.558h-13.93v-1.97h19.463s9.34 1.06 9.34-13.668c0-14.73-8.152-14.206-8.152-14.206h-4.865v6.834s.26 8.153-8.023 8.153H43.769s-7.76-.127-7.76 7.5v12.612s-1.18 7.632 14.075 7.632v.001zm7.68-4.41a2.503 2.503 0 0 1-2.505-2.506 2.503 2.503 0 0 1 2.506-2.506 2.504 2.504 0 0 1 2.506 2.506 2.503 2.503 0 0 1-2.506 2.506h-.001z"/><g transform="translate(35.639 36.5)"><mask id="h" fill="#fff"><use xlink:href="#g"/></mask><path fill="#FFF" fill-rule="nonzero" mask="url(#h)" d="M-32.61-44.35h104.5V68.416h-104.5z"/></g></g></g></svg>
