<svg width="100" height="100" viewBox="0 0 100 100" xmlns="http://www.w3.org/2000/svg">
    <g fill="none" fill-rule="evenodd">
        <g>
            <circle fill="#BE5F8A" cx="50" cy="50" r="50"/>
            <path d="M43.128 62.213c.504 1.887.45 3.646-.072 5.24-.057.176-.12.35-.19.524-.07.173-.144.344-.224.512-.402.842-.94 1.632-1.6 2.36-2.01 2.222-4.822 3.062-6.028 2.354-1.3-.764-.65-3.897 1.683-6.393 2.51-2.685 6.12-4.41 6.12-4.41l-.005-.012c.104-.057.21-.115.316-.175zm28.6-31.73c-1.567-6.225-11.764-8.272-21.414-4.8-5.744 2.065-11.96 5.307-16.432 9.54-5.315 5.034-6.163 9.415-5.813 11.246 1.23 6.46 9.973 10.68 13.567 13.814v.02c-1.06.527-8.816 4.5-10.63 8.563-1.916 4.287.304 7.362 1.774 7.776 4.555 1.283 9.228-1.024 11.74-4.817 2.423-3.66 2.22-8.386 1.168-10.737 1.453-.39 3.146-.563 5.3-.308 6.073.718 7.265 4.558 7.037 6.164-.228 1.607-1.502 2.49-1.928 2.758-.426.267-.556.36-.52.557.05.29.25.28.612.217.5-.086 3.188-1.308 3.303-4.274.147-3.766-3.418-7.98-9.73-7.87-2.6.047-4.234.297-5.415.742-.087-.1-.176-.2-.268-.3-3.902-4.215-11.116-7.197-10.81-12.864.11-2.06.82-7.483 13.86-14.063 10.686-5.39 19.24-3.907 20.717-.62 2.11 4.697-4.57 13.425-15.667 14.684-4.227.48-6.453-1.178-7.007-1.795-.583-.65-.67-.68-.887-.558-.355.2-.13.773 0 1.115.33.873 1.69 2.42 4.008 3.19 2.04.68 7.002 1.05 13.005-1.3 6.72-2.633 11.97-9.956 10.43-16.078z" fill="#fff"/>
        </g>
    </g>
</svg>
