<?xml version="1.0" encoding="UTF-8" standalone="no"?>
<svg width="100px" height="100px" viewBox="0 0 100 100" version="1.1" xmlns="http://www.w3.org/2000/svg" xmlns:xlink="http://www.w3.org/1999/xlink" xmlns:sketch="http://www.bohemiancoding.com/sketch/ns">
    <!-- Generator: Sketch 3.2.2 (9983) - http://www.bohemiancoding.com/sketch -->
    <title>Sass Logo - Seal (Color) 4</title>
    <desc>Created with Sketch.</desc>
    <defs>
        <path id="path-1" d="M0.0145985401,0.0313868613 L99.9686131,0.0313868613 L99.9686131,100 L0.0145985401,100"></path>
    </defs>
    <g id="Page-1" stroke="none" stroke-width="1" fill="none" fill-rule="evenodd" sketch:type="MSPage">
        <g id="Sass-Logo---Seal-(Color)-4" sketch:type="MSLayerGroup">
            <g id="Group-3">
                <mask id="mask-2" sketch:name="Clip 2" fill="white">
                    <use xlink:href="#path-1"></use>
                </mask>
                <g id="Clip-2"></g>
                <path d="M49.9844282,0.0313868613 C77.5900243,0.0313868613 99.9686131,22.410219 99.9686131,50.0158151 C99.9686131,77.6214112 77.5900243,100 49.9844282,100 C22.3788321,100 0,77.6214112 0,50.0158151 C0,22.410219 22.3788321,0.0313868613 49.9844282,0.0313868613" id="Fill-1" fill="#BE5F8A" sketch:type="MSShapeGroup" mask="url(#mask-2)"></path>
            </g>
            <path d="M40.0508516,66.6656934 C40.7781022,69.3557178 40.6982968,71.8642336 39.9472019,74.1360097 C39.863747,74.3883212 39.7717762,74.6379562 39.6720195,74.8846715 C39.5722628,75.1309002 39.4642336,75.3744526 39.3484185,75.6148418 C38.7690998,76.8167883 37.9917275,77.9418491 37.0396594,78.980292 C34.1355231,82.1486618 30.0778589,83.3467153 28.3379562,82.3372263 C26.4591241,81.2481752 27.4002433,76.7810219 30.7673966,73.2218978 C34.389781,69.3924574 39.6017032,66.9304136 39.6017032,66.9304136 L39.593674,66.9148418 C39.7437956,66.8340633 39.8963504,66.7508516 40.0508516,66.6656934 L40.0508516,66.6656934 Z M81.3379562,21.4253041 C79.0744526,12.5479319 64.3547445,9.6296837 50.4233577,14.5788321 C42.1326034,17.5245742 33.1571776,22.1474453 26.7036496,28.1836983 C19.0304136,35.3608273 17.8068127,41.6075426 18.3111922,44.2177616 C20.0902676,53.4279805 32.7099757,59.4481752 37.8978102,63.9148418 L37.8978102,63.9418491 C36.3681265,64.6948905 25.1717762,70.3610706 22.5515815,76.1537713 C19.7868613,82.2649635 22.9917275,86.650365 25.113382,87.2406326 C31.6873479,89.0695864 38.4333333,85.7798054 42.0586375,80.3722628 C45.5571776,75.1537713 45.2659367,68.4150852 43.7454988,65.063017 C45.8428224,64.5097324 48.2878345,64.2618005 51.3951338,64.6248175 C60.1632603,65.6489051 61.8836983,71.1238443 61.5547445,73.4145985 C61.2260341,75.7060827 59.3868613,76.9659367 58.7720195,77.3462287 C58.1569343,77.726764 57.9693431,77.8583942 58.0211679,78.1411192 C58.0956204,78.5523114 58.380292,78.536983 58.9046229,78.4481752 C59.6262774,78.3265207 63.5087591,76.5844282 63.6746959,72.3549878 C63.8861314,66.9851582 58.740146,60.9783455 49.6284672,61.1352798 C45.8759124,61.2 43.5163017,61.5569343 41.8119221,62.1912409 C41.6858881,62.0476886 41.5576642,61.9048662 41.4250608,61.7635036 C35.7919708,55.753528 25.3785888,51.5021898 25.8201946,43.4226277 C25.9807786,40.4854015 27.0017032,32.7508516 45.8296837,23.3690998 C61.2530414,15.6836983 73.6,17.7985401 75.73382,22.4856448 C78.7817518,29.1817518 69.1350365,41.6274939 53.1177616,43.4226277 C47.0153285,44.1068127 43.8021898,41.7416058 43.0029197,40.8608273 C42.1613139,39.9335766 42.0360097,39.8917275 41.7218978,40.0656934 C41.2099757,40.3491484 41.5343066,41.1678832 41.7218978,41.6559611 C42.2,42.9004866 44.1625304,45.1075426 47.5082725,46.2053528 C50.4513382,47.1712895 57.6163017,47.7019465 66.2812652,44.350365 C75.9856448,40.5963504 83.563747,30.1540146 81.3379562,21.4253041 L81.3379562,21.4253041 Z" id="Fill-4" fill="#FFFFFF" sketch:type="MSShapeGroup"></path>
        </g>
    </g>
</svg>