<svg xmlns="http://www.w3.org/2000/svg" width="100" height="100" viewBox="0 0 100 100" fill="none">
  <path fill="#24292E" d="M50 100c27.614 0 50-22.386 50-50S77.614 0 50 0 0 22.386 0 50s22.386 50 50 50z"/>
  <path fill="#DBEDFF" d="M52.99 67.296h23.04v-4.32H52.99v4.32zM25.661 58.528c2.352 1.968 5.856 3.456 9.168 3.792v6.96h3.84v-7.056c5.232-.768 8.304-3.84 8.304-7.92 0-8.784-14.64-8.064-14.64-12.384 0-1.92 1.632-3.072 4.272-3.072 2.928 0 4.656.912 6.912 2.592l2.784-3.216c-1.968-1.968-4.272-3.408-7.632-3.792v-6.24h-3.84v6.288c-4.752.624-7.824 3.408-7.824 7.536 0 8.592 14.592 7.728 14.592 12.672 0 1.92-1.584 3.168-4.656 3.168-3.312 0-6.048-1.296-8.784-3.12l-2.496 3.792z"/>
</svg>
