<svg width="100px" height="100px" viewBox="0 0 100 100" version="1.1" xmlns="http://www.w3.org/2000/svg" xmlns:xlink="http://www.w3.org/1999/xlink">
    <defs>
        <linearGradient x1="50%" y1="0%" x2="50%" y2="100%" id="linearGradient-1">
            <stop stop-color="#FBAE3D" offset="0%"></stop>
            <stop stop-color="#FF291A" offset="100%"></stop>
        </linearGradient>
        <path d="M50,0 L50,0 C77.6,0 100,22.4 100,50 L100,50 C100,77.6 77.6,100 50,100 L50,100 C22.4,100 0,77.6 0,50 L0,50 C0,22.4 22.4,0 50,0 L50,0 Z" id="path-2"></path>
        <radialGradient cx="33.8466994%" cy="32.2922064%" fx="33.8466994%" fy="32.2922064%" r="0.594798881%" id="radialGradient-4">
            <stop stop-color="#FBA73E" offset="0%"></stop>
            <stop stop-color="#E97532" offset="44.4%"></stop>
            <stop stop-color="#A23314" offset="100%"></stop>
        </radialGradient>
    </defs>
    <g id="Page-1" stroke="none" stroke-width="1" fill="none" fill-rule="evenodd">
        <g id="Swift">
            <mask id="mask-3" fill="white">
                <use xlink:href="#path-2"></use>
            </mask>
            <use id="Base" fill="url(#linearGradient-1)" xlink:href="#path-2"></use>
            <path d="M-29.2,19.4 L12,-29.5 L56.9,14.5 C56.9,14.5 86.7,31.9 79.4,61.6 C79.4,61.6 78,69.5 74.2,74.9 C67.7,75.6 62.7,81.2 51.4,81.2 C40.1,81.2 24,77.8 10.5,57.5 L-29.2,19.4 L-29.2,19.4 Z" id="Shadow" fill="url(#radialGradient-4)" opacity="0.3394" mask="url(#mask-3)"></path>
            <path d="M56.8,14.6 C56.8,14.6 86.6,32 79.3,61.7 C79.3,61.7 88.3,73.3 84.6,81.7 C84.6,81.7 81,74.4 74.1,75 C67.6,75.7 62.6,81.3 51.3,81.3 C40,81.3 23.9,77.9 10.4,57.6 C10.4,57.6 32.4,74.7 52.8,62.5 C52.8,62.5 38.4,52.6 17.6,24.6 C17.6,24.6 42.4,45.2 47.8,47.2 C47.8,47.2 32.1,31 26.7,20.8 C26.7,20.8 47.8,41.1 63.4,50.3 C63.5,50.3 70.3,34.2 56.8,14.6 L56.8,14.6 Z" id="Bird" fill="#FFFFFF"></path>
        </g>
    </g>
</svg>
