<svg width="100" height="100" viewBox="0 0 100 100" xmlns="http://www.w3.org/2000/svg"><title>Group 2 Copy</title><g fill="none" fill-rule="evenodd"><circle fill="#178FCF" fill-rule="nonzero" cx="50" cy="50" r="50"/><g fill="#FFF"><path fill-rule="nonzero" d="M50.7 36.1H39.6v34.3h-4.5V36.1H24V32h26.6v4.1z"/><path d="M54 68.7v-3c2.8 1.8 5.5 2.6 8.4 2.6 3 0 5.3-.6 6.8-1.9 1.6-1.2 2.3-3 2.3-5.2 0-2-.5-3.5-1.6-4.7-1-1.2-3.3-2.8-6.8-4.8-3.9-2.3-6.4-4.2-7.4-5.7s-1.6-3.3-1.6-5.3c0-2.7 1.1-5 3.2-6.9 2.1-1.9 4.9-2.8 8.4-2.8 2.3 0 4.6.4 6.9 1.2V35c-2.3-1-4.7-1.5-7.2-1.5-2.6 0-4.7.7-6.2 2s-2.3 3-2.3 5 .5 3.5 1.6 4.7c1 1.2 3.3 2.7 6.8 4.7 3.6 2 6 3.8 7.2 5.4 1.2 1.6 1.8 3.4 1.8 5.5 0 2.9-1 5.3-3.1 7.2-2 1.9-4.9 2.8-8.7 2.8-1.3 0-2.8-.2-4.6-.6-1.6-.5-2.9-1-3.9-1.5z"/></g></g></svg>
