<?xml version="1.0" encoding="UTF-8" standalone="no"?>
<svg width="546px" height="148px" viewBox="0 0 546 148" version="1.1" xmlns="http://www.w3.org/2000/svg" xmlns:xlink="http://www.w3.org/1999/xlink" xmlns:sketch="http://www.bohemiancoding.com/sketch/ns">
    <!-- Generator: Sketch 3.0.2 (7799) - http://www.bohemiancoding.com/sketch -->
    <title>HoundLogo</title>
    <description>Created with Sketch.</description>
    <defs></defs>
    <g id="Page-1" stroke="none" stroke-width="1" fill="none" fill-rule="evenodd" sketch:type="MSPage">
        <g id="HoundLogo" sketch:type="MSArtboardGroup" fill="#A873D1">
            <path d="M103.745616,130.134146 L15.7018816,130.134146 C14.0467912,130.134146 12.7038517,128.791882 12.7038517,127.136116 L12.7038517,18.8499557 C12.7038517,17.1948653 14.0461154,15.8519259 15.7018816,15.8519259 L123.988042,15.8519259 C125.643132,15.8519259 126.986072,17.1941896 126.986072,18.8499557 L126.986072,65.9171698 C126.551846,64.5739188 121.465996,49.2059384 113.60707,41.4011125 C105.384724,33.2353691 90.4757577,26.5537825 92.6927998,31.9242077 C94.909842,37.2946329 94.9098412,51.2838453 94.9098412,51.2838453 L72.5868063,59.9685597 L69.2385363,72.6004061 L41.918481,79.9474275 C41.918481,79.9474275 43.8653576,94.1608442 51.7180957,96.6449591 C56.7550544,98.2383377 89.7709426,101.953358 89.7709426,101.953358 L83.5031892,130.134146 L103.745616,130.134146 Z" id="Rectangle-36" sketch:type="MSShapeGroup"></path>
            <path d="M168.776,13.1498491 L185.3,13.1498491 L185.3,62.5598491 L205.712,62.5598491 L205.712,13.1498491 L222.236,13.1498491 L222.236,128.493849 L205.712,128.493849 L205.712,77.1398491 L185.3,77.1398491 L185.3,128.493849 L168.776,128.493849 L168.776,13.1498491 Z M243.186,40.3658491 C243.186,35.7218258 243.995992,31.6178669 245.616,28.0538491 C247.236008,24.4898312 249.368987,21.5468607 252.015,19.2248491 C254.661013,16.9028374 257.630983,15.147855 260.925,13.9598491 C264.219016,12.7718431 267.539983,12.1778491 270.888,12.1778491 C274.236017,12.1778491 277.556983,12.7718431 280.851,13.9598491 C284.145016,15.147855 287.114987,16.9028374 289.761,19.2248491 C292.407013,21.5468607 294.539992,24.4898312 296.16,28.0538491 C297.780008,31.6178669 298.59,35.7218258 298.59,40.3658491 L298.59,101.277849 C298.59,106.029873 297.780008,110.160832 296.16,113.670849 C294.539992,117.180867 292.407013,120.096837 289.761,122.418849 C287.114987,124.740861 284.145016,126.495843 280.851,127.683849 C277.556983,128.871855 274.236017,129.465849 270.888,129.465849 C267.539983,129.465849 264.219016,128.871855 260.925,127.683849 C257.630983,126.495843 254.661013,124.740861 252.015,122.418849 C249.368987,120.096837 247.236008,117.180867 245.616,113.670849 C243.995992,110.160832 243.186,106.029873 243.186,101.277849 L243.186,40.3658491 Z M259.71,101.277849 C259.71,105.273869 260.816989,108.21684 263.031,110.106849 C265.245011,111.996859 267.863985,112.941849 270.888,112.941849 C273.912015,112.941849 276.530989,111.996859 278.745,110.106849 C280.959011,108.21684 282.066,105.273869 282.066,101.277849 L282.066,40.3658491 C282.066,36.3698291 280.959011,33.4268585 278.745,31.5368491 C276.530989,29.6468396 273.912015,28.7018491 270.888,28.7018491 C267.863985,28.7018491 265.245011,29.6468396 263.031,31.5368491 C260.816989,33.4268585 259.71,36.3698291 259.71,40.3658491 L259.71,101.277849 Z M373,102.573849 C373,106.353868 372.298007,109.863833 370.894,113.103849 C369.489993,116.343865 367.573012,119.178837 365.143,121.608849 C362.712988,124.038861 359.878016,125.955842 356.638,127.359849 C353.397984,128.763856 349.942018,129.465849 346.27,129.465849 C342.597981,129.465849 339.142016,128.763856 335.902,127.359849 C332.661984,125.955842 329.827012,124.038861 327.397,121.608849 C324.966988,119.178837 323.050007,116.343865 321.646,113.103849 C320.241993,109.863833 319.54,106.353868 319.54,102.573849 L319.54,13.1498491 L336.064,13.1498491 L336.064,100.953849 C336.064,105.05787 337.03599,108.081839 338.98,110.025849 C340.924009,111.969859 343.353985,112.941849 346.27,112.941849 C349.186014,112.941849 351.61599,111.969859 353.56,110.025849 C355.504009,108.081839 356.476,105.05787 356.476,100.953849 L356.476,13.1498491 L373,13.1498491 L373,102.573849 Z M394.274,13.1498491 L410.15,13.1498491 L435.098,82.6478491 L435.422,82.6478491 L435.422,13.1498491 L451.946,13.1498491 L451.946,128.493849 L436.394,128.493849 L411.122,59.1578491 L410.798,59.1578491 L410.798,128.493849 L394.274,128.493849 L394.274,13.1498491 Z M473.22,13.1498491 L497.682,13.1498491 C507.078047,13.1498491 514.259975,15.7688229 519.228,21.0068491 C524.196024,26.2448752 526.68,33.5618021 526.68,42.9578491 L526.68,96.9038491 C526.68,107.703903 524.061026,115.668823 518.823,120.798849 C513.584973,125.928875 506.052049,128.493849 496.224,128.493849 L473.22,128.493849 L473.22,13.1498491 Z M489.744,112.941849 L497.358,112.941849 C502.002023,112.941849 505.29599,111.780861 507.24,109.458849 C509.184009,107.136837 510.156,103.491874 510.156,98.5238491 L510.156,42.9578491 C510.156,38.4218264 509.238009,34.9118615 507.402,32.4278491 C505.56599,29.9438366 502.218024,28.7018491 497.358,28.7018491 L489.744,28.7018491 L489.744,112.941849 Z" id="HOUND-9" sketch:type="MSShapeGroup"></path>
        </g>
    </g>
</svg>