<?xml version="1.0" encoding="utf-8"?>
<!-- Generator: Adobe Illustrator 17.1.0, SVG Export Plug-In . SVG Version: 6.00 Build 0)  -->
<!DOCTYPE svg PUBLIC "-//W3C//DTD SVG 1.1//EN" "http://www.w3.org/Graphics/SVG/1.1/DTD/svg11.dtd">
<svg version="1.1" id="Layer_1" xmlns="http://www.w3.org/2000/svg" xmlns:xlink="http://www.w3.org/1999/xlink" x="0px" y="0px"
	 viewBox="0 0 100 100" enable-background="new 0 0 100 100" xml:space="preserve">
<g>
	<path fill="#ACACAC" d="M76.671,27.191H23.33c-12.471,0-22.581,10.11-22.581,22.581v0.457c0,12.471,10.11,22.581,22.581,22.581
		h53.34c12.471,0,22.581-10.11,22.581-22.581v-0.457C99.252,37.3,89.142,27.191,76.671,27.191z M29.787,53.387
		c-0.405,1.039-0.977,1.939-1.712,2.7c-0.738,0.759-1.623,1.352-2.658,1.777c-1.035,0.426-2.181,0.638-3.44,0.638
		s-2.408-0.213-3.447-0.638c-1.038-0.425-1.93-1.017-2.669-1.777c-0.74-0.761-1.314-1.659-1.72-2.7
		c-0.407-1.038-0.61-2.168-0.61-3.389c0-1.22,0.203-2.348,0.61-3.387c0.406-1.039,0.98-1.94,1.72-2.7
		c0.739-0.759,1.631-1.352,2.669-1.778c1.038-0.426,2.188-0.638,3.447-0.638c1.258,0,2.403,0.216,3.44,0.644
		c1.037,0.429,1.921,1.022,2.658,1.778c0.735,0.756,1.308,1.653,1.712,2.693c0.407,1.038,0.61,2.168,0.61,3.387
		C30.397,51.219,30.194,52.348,29.787,53.387z M45.275,58.317c-0.245,0-0.448-0.039-0.609-0.116
		c-0.162-0.075-0.32-0.214-0.472-0.414l-8.699-11.079c0.024,0.246,0.041,0.489,0.052,0.731c0.012,0.241,0.018,0.463,0.018,0.661
		v10.218h-2.727V41.68h1.623c0.138,0,0.253,0.005,0.345,0.017c0.092,0.011,0.174,0.034,0.247,0.069
		c0.073,0.034,0.144,0.084,0.213,0.149c0.069,0.065,0.145,0.151,0.229,0.259l8.733,11.126c-0.03-0.269-0.052-0.53-0.063-0.787
		c-0.012-0.257-0.018-0.497-0.018-0.719V41.68h2.726v16.637C46.872,58.317,45.275,58.317,45.275,58.317z M75.767,66.148
		c-8.918,0-16.148-7.23-16.148-16.148s7.229-16.149,16.148-16.149s16.148,7.23,16.148,16.148S84.685,66.148,75.767,66.148z"/>
	<path fill="#ACACAC" d="M25.817,45.695c-0.452-0.506-1.003-0.893-1.651-1.161c-0.648-0.269-1.379-0.403-2.191-0.403
		c-0.814,0-1.547,0.134-2.197,0.403c-0.653,0.269-1.206,0.655-1.663,1.161c-0.457,0.506-0.807,1.123-1.052,1.846
		c-0.246,0.725-0.369,1.544-0.369,2.456c0,0.913,0.124,1.732,0.369,2.456c0.246,0.724,0.596,1.338,1.052,1.842
		c0.457,0.504,1.01,0.888,1.663,1.155c0.65,0.27,1.384,0.403,2.197,0.403c0.811,0,1.542-0.133,2.191-0.403
		c0.648-0.268,1.199-0.653,1.651-1.155c0.454-0.503,0.799-1.117,1.043-1.842c0.241-0.725,0.362-1.543,0.362-2.456
		c0-0.912-0.121-1.732-0.362-2.456C26.617,46.818,26.272,46.201,25.817,45.695z"/>
</g>
</svg>
