<?xml version="1.0" encoding="utf-8"?>
<!-- Generator: Adobe Illustrator 17.1.0, SVG Export Plug-In . SVG Version: 6.00 Build 0)  -->
<!DOCTYPE svg PUBLIC "-//W3C//DTD SVG 1.1//EN" "http://www.w3.org/Graphics/SVG/1.1/DTD/svg11.dtd">
<svg version="1.1" id="Layer_1" xmlns="http://www.w3.org/2000/svg" xmlns:xlink="http://www.w3.org/1999/xlink" x="0px" y="0px"
	 viewBox="0 0 100 100" enable-background="new 0 0 100 100" xml:space="preserve">
<g>
	<path fill="#ACACAC" d="M90.654,21.15c0,0,0.227-5.966-2.43-8.624c-2.245-2.245-5.152-3.031-11.083-3.031H66.504V0L40.046,15.211
		l26.458,15.216v-9.433h12.65v50.55c-4.6,2.116-7.943,6.991-7.943,12.671c0,7.62,6.376,13.8,13.997,13.8
		c7.62,0,13.792-6.18,13.792-13.8c0-5.68-3.746-10.556-8.346-12.671V52.046V21.15z M85.404,92.177c-4.395,0-7.963-3.565-7.963-7.962
		c0-4.397,3.567-7.962,7.963-7.962s7.961,3.565,7.961,7.962C93.365,88.614,89.801,92.177,85.404,92.177z"/>
	<path fill="#ACACAC" d="M33.547,15.215c0-7.622-6.126-13.8-13.748-13.8S5.632,7.593,5.632,15.215c0,5.68,3.371,10.555,7.971,12.672
		v43.659c-4.6,2.116-7.943,6.991-7.943,12.671c0,7.62,6.376,13.8,13.997,13.8c7.62,0,13.792-6.18,13.792-13.8
		c0-5.68-3.746-10.556-8.346-12.671v-43.66C29.702,25.769,33.547,20.894,33.547,15.215z M27.814,84.217
		c0,4.397-3.565,7.962-7.962,7.962c-4.395,0-7.962-3.565-7.962-7.962s3.566-7.962,7.962-7.962
		C24.249,76.255,27.814,79.819,27.814,84.217z M19.852,23.175c-4.395,0-7.962-3.565-7.962-7.962s3.566-7.962,7.962-7.962
		c4.397,0,7.962,3.565,7.962,7.962C27.814,19.612,24.249,23.175,19.852,23.175z"/>
</g>
</svg>
